<svg width="674" height="127" viewBox="0 0 674 127" fill="none" xmlns="http://www.w3.org/2000/svg">
<rect x="191" y="40.437" width="169" height="18" fill="#0045F4"/>
<path d="M95.0371 11.1284V47.437H88.3086V11.1284H95.0371ZM102.045 47.437V20.7769H107.25L108.088 24.687C110.644 22.0802 113.555 20.7769 116.822 20.7769C123.136 20.7769 126.293 24.0607 126.293 30.6284V47.437H119.564V30.6284C119.564 27.6831 118.1 26.2104 115.172 26.2104C112.988 26.2104 110.855 27.0822 108.773 28.8257V47.437H102.045ZM132.666 46.1675V40.5815C135.628 41.7664 139.048 42.3589 142.924 42.3589C145.818 42.3589 147.266 41.4279 147.266 39.5659C147.266 37.7886 146.292 36.8999 144.346 36.8999H139.521C134.105 36.8999 131.396 34.2339 131.396 28.9019C131.396 23.3159 135.349 20.5229 143.254 20.5229C146.605 20.5229 149.762 21.0308 152.725 22.0464V27.6323C149.762 26.4474 146.546 25.855 143.076 25.855C139.437 25.855 137.617 26.786 137.617 28.6479C137.617 30.4253 138.675 31.314 140.791 31.314H145.107C151.032 31.314 153.994 33.98 153.994 39.312C153.994 44.8979 150.219 47.6909 142.67 47.6909C138.963 47.6909 135.628 47.1831 132.666 46.1675ZM158.336 16.4604H163.312L164.328 20.7769H171.031V26.1089H165.064V38.3726C165.064 40.8608 166.139 42.105 168.289 42.105H171.031V47.437H165.039C160.57 47.437 158.336 45.0418 158.336 40.2515V16.4604ZM174.357 39.1343C174.357 33.8361 178.217 31.187 185.936 31.187C187.747 31.187 189.558 31.3563 191.369 31.6948V29.689C191.369 27.3022 189.651 26.1089 186.215 26.1089C183.303 26.1089 180.07 26.5321 176.516 27.3784V22.0464C180.07 21.2 183.303 20.7769 186.215 20.7769C194.137 20.7769 198.098 23.7052 198.098 29.562V47.437H194.188L191.801 45.0503C189.482 46.6414 186.926 47.437 184.133 47.437C177.616 47.437 174.357 44.6694 174.357 39.1343ZM191.369 36.2651C189.676 35.9266 187.865 35.7573 185.936 35.7573C182.702 35.7573 181.086 36.8576 181.086 39.0581C181.086 41.4279 182.44 42.6128 185.148 42.6128C187.383 42.6128 189.456 41.9188 191.369 40.5308V36.2651ZM211.199 11.1284V47.437H204.471V11.1284H211.199ZM224.301 11.1284V47.437H217.572V11.1284H224.301ZM229.404 39.1343C229.404 33.8361 233.264 31.187 240.982 31.187C242.794 31.187 244.605 31.3563 246.416 31.6948V29.689C246.416 27.3022 244.698 26.1089 241.262 26.1089C238.35 26.1089 235.117 26.5321 231.562 27.3784V22.0464C235.117 21.2 238.35 20.7769 241.262 20.7769C249.184 20.7769 253.145 23.7052 253.145 29.562V47.437H249.234L246.848 45.0503C244.529 46.6414 241.973 47.437 239.18 47.437C232.663 47.437 229.404 44.6694 229.404 39.1343ZM246.416 36.2651C244.723 35.9266 242.912 35.7573 240.982 35.7573C237.749 35.7573 236.133 36.8576 236.133 39.0581C236.133 41.4279 237.487 42.6128 240.195 42.6128C242.43 42.6128 244.503 41.9188 246.416 40.5308V36.2651ZM259.137 16.4604H264.113L265.129 20.7769H271.832V26.1089H265.865V38.3726C265.865 40.8608 266.94 42.105 269.09 42.105H271.832V47.437H265.84C261.371 47.437 259.137 45.0418 259.137 40.2515V16.4604ZM283.156 11.1284V16.4604H276.428V11.1284H283.156ZM283.156 20.7769V47.437H276.428V20.7769H283.156ZM294.988 34.0054C294.988 39.5744 297.146 42.3589 301.463 42.3589C305.779 42.3589 307.938 39.5744 307.938 34.0054C307.938 28.5718 305.779 25.855 301.463 25.855C297.146 25.855 294.988 28.5718 294.988 34.0054ZM288.26 34.1069C288.26 25.1694 292.661 20.7007 301.463 20.7007C310.265 20.7007 314.666 25.1694 314.666 34.1069C314.666 43.0275 310.265 47.4878 301.463 47.4878C292.695 47.4878 288.294 43.0275 288.26 34.1069ZM319.744 47.437V20.7769H324.949L325.787 24.687C328.343 22.0802 331.255 20.7769 334.521 20.7769C340.835 20.7769 343.992 24.0607 343.992 30.6284V47.437H337.264V30.6284C337.264 27.6831 335.799 26.2104 332.871 26.2104C330.688 26.2104 328.555 27.0822 326.473 28.8257V47.437H319.744ZM366.158 47.437H359.252L374.664 11.1284H381.9L397.643 47.437H390.406L386.268 37.5347H374.207L376.518 31.6948H383.83L378.117 18.0601L366.158 47.437ZM401.451 47.437V20.7769H406.656L407.494 24.1792C409.83 21.911 412.301 20.7769 414.908 20.7769V26.2104C412.403 26.2104 410.16 27.2515 408.18 29.3335V47.437H401.451ZM418.336 16.4604H423.312L424.328 20.7769H431.031V26.1089H425.064V38.3726C425.064 40.8608 426.139 42.105 428.289 42.105H431.031V47.437H425.039C420.57 47.437 418.336 45.0418 418.336 40.2515V16.4604ZM434.992 34.1069C434.992 31.991 436.05 30.9331 438.166 30.9331C440.282 30.9331 441.34 31.991 441.34 34.1069C441.34 36.2228 440.282 37.2808 438.166 37.2808C436.05 37.2808 434.992 36.2228 434.992 34.1069ZM458.479 45.9136V39.8198C462.118 41.174 466.231 41.8511 470.818 41.8511C476.387 41.8511 479.172 39.9891 479.172 36.2651C479.172 33.5568 477.462 32.2026 474.043 32.2026H468.355C460.924 32.2026 457.209 28.8172 457.209 22.0464C457.209 14.5985 462.499 10.8745 473.078 10.8745C477.141 10.8745 480.992 11.467 484.631 12.6519V18.7456C480.992 17.3914 477.141 16.7144 473.078 16.7144C466.984 16.7144 463.938 18.4917 463.938 22.0464C463.938 24.7547 465.41 26.1089 468.355 26.1089H474.043C481.948 26.1089 485.9 29.4943 485.9 36.2651C485.9 43.8823 480.873 47.6909 470.818 47.6909C466.231 47.6909 462.118 47.0985 458.479 45.9136ZM490.979 47.437V11.1284H497.707V24.1792C499.806 21.911 502.489 20.7769 505.756 20.7769C512.07 20.7769 515.227 24.0607 515.227 30.6284V47.437H508.498V30.6284C508.498 27.6831 507.034 26.2104 504.105 26.2104C501.922 26.2104 499.789 27.0822 497.707 28.8257V47.437H490.979ZM527.059 34.0054C527.059 39.5744 529.217 42.3589 533.533 42.3589C537.85 42.3589 540.008 39.5744 540.008 34.0054C540.008 28.5718 537.85 25.855 533.533 25.855C529.217 25.855 527.059 28.5718 527.059 34.0054ZM520.33 34.1069C520.33 25.1694 524.731 20.7007 533.533 20.7007C542.335 20.7007 546.736 25.1694 546.736 34.1069C546.736 43.0275 542.335 47.4878 533.533 47.4878C524.765 47.4878 520.364 43.0275 520.33 34.1069ZM549.529 20.7769H556.309L559.762 39.3374L565.932 20.7769H571.695L578.348 39.3374L581.344 20.7769H588.352L581.395 47.437H575.072L568.801 28.521L562.453 47.437H556.029L549.529 20.7769Z" fill="#242424"/>
<path d="M2.276 92.437V75.157H13.412V76.549H3.908V82.789H12.548V84.181H3.908V92.437H2.276ZM15.3581 92.437V80.005H16.7981V92.437H15.3581ZM15.2861 77.293V75.157H16.8701V77.293H15.2861ZM21.9024 92.437H20.4624V80.005H21.9024V81.733C22.4784 81.125 23.0704 80.629 23.6784 80.245C24.3024 79.861 25.0464 79.669 25.9104 79.669C26.6784 79.669 27.3904 79.805 28.0464 80.077C28.7024 80.333 29.2544 80.789 29.7024 81.445C30.0064 81.893 30.1824 82.357 30.2304 82.837C30.2944 83.301 30.3264 83.789 30.3264 84.301V92.437H28.8864V84.325C28.8864 83.205 28.6384 82.365 28.1424 81.805C27.6464 81.245 26.8224 80.965 25.6704 80.965C25.2224 80.965 24.8144 81.037 24.4464 81.181C24.0784 81.309 23.7424 81.485 23.4384 81.709C23.1504 81.933 22.9024 82.189 22.6944 82.477C22.4864 82.765 22.3264 83.069 22.2144 83.389C22.0704 83.789 21.9824 84.173 21.9504 84.541C21.9184 84.909 21.9024 85.309 21.9024 85.741V92.437ZM43.3983 86.173C43.3983 85.469 43.3023 84.805 43.1103 84.181C42.9183 83.541 42.6383 82.989 42.2703 82.525C41.9183 82.045 41.4783 81.669 40.9503 81.397C40.4383 81.109 39.8543 80.965 39.1983 80.965C38.4463 80.965 37.7983 81.117 37.2543 81.421C36.7103 81.709 36.2623 82.109 35.9103 82.621C35.5583 83.133 35.3023 83.733 35.1423 84.421C34.9823 85.093 34.9183 85.821 34.9503 86.605C34.9503 87.389 35.0543 88.085 35.2623 88.693C35.4863 89.285 35.7903 89.789 36.1743 90.205C36.5583 90.621 37.0063 90.941 37.5183 91.165C38.0303 91.373 38.5903 91.477 39.1983 91.477C39.8703 91.477 40.4703 91.341 40.9983 91.069C41.5263 90.797 41.9663 90.429 42.3183 89.965C42.6703 89.485 42.9343 88.925 43.1103 88.285C43.3023 87.629 43.3983 86.925 43.3983 86.173ZM43.3983 75.157H44.8383V92.437H43.3983V90.253H43.3503C43.1423 90.669 42.8703 91.037 42.5343 91.357C42.2143 91.661 41.8543 91.917 41.4543 92.125C41.0703 92.333 40.6703 92.493 40.2543 92.605C39.8383 92.717 39.4303 92.773 39.0303 92.773C38.0223 92.773 37.1663 92.605 36.4623 92.269C35.7583 91.933 35.1743 91.477 34.7103 90.901C34.2623 90.309 33.9343 89.613 33.7263 88.813C33.5183 88.013 33.4143 87.157 33.4143 86.245C33.4143 85.381 33.5263 84.549 33.7503 83.749C33.9743 82.949 34.3103 82.253 34.7583 81.661C35.2223 81.053 35.7983 80.573 36.4863 80.221C37.1903 79.853 38.0143 79.669 38.9583 79.669C39.8383 79.669 40.6783 79.869 41.4783 80.269C42.2943 80.653 42.9343 81.229 43.3983 81.997V75.157ZM60.0939 92.773C59.2939 92.757 58.5419 92.613 57.8379 92.341C57.1499 92.069 56.5419 91.661 56.0139 91.117C55.5019 90.573 55.0939 89.893 54.7899 89.077C54.4859 88.261 54.3339 87.309 54.3339 86.221C54.3339 85.309 54.4539 84.461 54.6939 83.677C54.9339 82.877 55.2939 82.181 55.7739 81.589C56.2539 80.997 56.8539 80.533 57.5739 80.197C58.2939 79.845 59.1339 79.669 60.0939 79.669C61.0699 79.669 61.9179 79.845 62.6379 80.197C63.3579 80.533 63.9579 80.997 64.4379 81.589C64.9179 82.165 65.2699 82.853 65.4939 83.653C65.7339 84.453 65.8539 85.309 65.8539 86.221C65.8539 87.213 65.7179 88.109 65.4459 88.909C65.1739 89.709 64.7819 90.397 64.2699 90.973C63.7739 91.549 63.1659 91.997 62.4459 92.317C61.7419 92.621 60.9579 92.773 60.0939 92.773ZM64.3179 86.221C64.3179 85.485 64.2379 84.797 64.0779 84.157C63.9179 83.517 63.6699 82.965 63.3339 82.501C62.9979 82.021 62.5659 81.645 62.0379 81.373C61.5099 81.101 60.8619 80.965 60.0939 80.965C59.3419 80.965 58.6939 81.117 58.1499 81.421C57.6219 81.709 57.1899 82.101 56.8539 82.597C56.5179 83.077 56.2699 83.637 56.1099 84.277C55.9499 84.901 55.8699 85.549 55.8699 86.221C55.8699 86.989 55.9579 87.701 56.1339 88.357C56.3259 88.997 56.5979 89.549 56.9499 90.013C57.3019 90.477 57.7419 90.837 58.2699 91.093C58.7979 91.349 59.4059 91.477 60.0939 91.477C60.8459 91.477 61.4859 91.333 62.0139 91.045C62.5579 90.741 62.9979 90.341 63.3339 89.845C63.6699 89.349 63.9179 88.789 64.0779 88.165C64.2379 87.541 64.3179 86.893 64.3179 86.221ZM76.9098 80.005H78.3498V92.437H76.9098V90.709C76.7178 90.933 76.5018 91.165 76.2618 91.405C76.0218 91.645 75.7418 91.869 75.4218 92.077C75.1178 92.269 74.7578 92.429 74.3418 92.557C73.9258 92.701 73.4458 92.773 72.9018 92.773C72.0698 92.773 71.3738 92.661 70.8138 92.437C70.2538 92.197 69.7978 91.869 69.4458 91.453C69.1098 91.037 68.8618 90.557 68.7018 90.013C68.5578 89.453 68.4858 88.845 68.4858 88.189V80.005H69.9258V88.165C69.9258 89.237 70.1738 90.061 70.6698 90.637C71.1658 91.197 71.9818 91.477 73.1178 91.477C73.7098 91.477 74.2378 91.365 74.7018 91.141C75.1818 90.901 75.5818 90.573 75.9018 90.157C76.2218 89.741 76.4698 89.245 76.6458 88.669C76.8218 88.093 76.9098 87.461 76.9098 86.773V80.005ZM86.1898 92.485C86.0138 92.517 85.7818 92.573 85.4938 92.653C85.2058 92.733 84.8858 92.773 84.5338 92.773C83.8138 92.773 83.2618 92.597 82.8778 92.245C82.5098 91.877 82.3258 91.229 82.3258 90.301V81.205H80.5738V80.005H82.3258V76.549H83.7658V80.005H86.0938V81.205H83.7658V89.725C83.7658 90.029 83.7738 90.293 83.7898 90.517C83.8058 90.741 83.8538 90.925 83.9338 91.069C84.0138 91.213 84.1338 91.317 84.2938 91.381C84.4698 91.445 84.7098 91.477 85.0138 91.477C85.2058 91.477 85.3978 91.461 85.5898 91.429C85.7978 91.397 85.9978 91.357 86.1898 91.309V92.485ZM103.317 85.909C102.709 86.165 102.093 86.333 101.469 86.413C100.845 86.493 100.221 86.557 99.5971 86.605C98.4931 86.685 97.6291 86.933 97.0051 87.349C96.3971 87.765 96.0931 88.397 96.0931 89.245C96.0931 89.629 96.1651 89.965 96.3091 90.253C96.4691 90.525 96.6691 90.757 96.9091 90.949C97.1651 91.125 97.4531 91.261 97.7731 91.357C98.1091 91.437 98.4451 91.477 98.7811 91.477C99.3571 91.477 99.9171 91.405 100.461 91.261C101.005 91.117 101.485 90.901 101.901 90.613C102.333 90.309 102.677 89.933 102.933 89.485C103.189 89.021 103.317 88.477 103.317 87.853V85.909ZM100.893 85.189C101.165 85.157 101.485 85.109 101.853 85.045C102.237 84.981 102.549 84.893 102.789 84.781C103.029 84.669 103.173 84.485 103.221 84.229C103.285 83.957 103.317 83.709 103.317 83.485C103.317 82.749 103.077 82.149 102.597 81.685C102.133 81.205 101.341 80.965 100.221 80.965C99.7251 80.965 99.2691 81.013 98.8531 81.109C98.4371 81.189 98.0691 81.341 97.7491 81.565C97.4451 81.773 97.1891 82.061 96.9811 82.429C96.7891 82.781 96.6611 83.229 96.5971 83.773H95.1331C95.1811 83.037 95.3491 82.413 95.6371 81.901C95.9251 81.373 96.2931 80.949 96.7411 80.629C97.2051 80.293 97.7331 80.053 98.3251 79.909C98.9331 79.749 99.5731 79.669 100.245 79.669C100.869 79.669 101.453 79.741 101.997 79.885C102.557 80.013 103.037 80.229 103.437 80.533C103.853 80.821 104.173 81.213 104.397 81.709C104.637 82.205 104.757 82.813 104.757 83.533V90.301C104.757 90.861 104.853 91.221 105.045 91.381C105.253 91.525 105.661 91.485 106.269 91.261V92.389C106.157 92.421 105.989 92.469 105.765 92.533C105.557 92.597 105.349 92.629 105.141 92.629C104.917 92.629 104.701 92.605 104.493 92.557C104.253 92.525 104.061 92.453 103.917 92.341C103.773 92.213 103.653 92.069 103.557 91.909C103.477 91.733 103.421 91.549 103.389 91.357C103.357 91.149 103.341 90.933 103.341 90.709C102.733 91.381 102.037 91.893 101.253 92.245C100.469 92.597 99.6211 92.773 98.7091 92.773C98.1651 92.773 97.6371 92.701 97.1251 92.557C96.6291 92.413 96.1891 92.189 95.8051 91.885C95.4211 91.581 95.1171 91.213 94.8931 90.781C94.6691 90.333 94.5571 89.805 94.5571 89.197C94.5571 87.085 96.0051 85.837 98.9011 85.453L100.893 85.189ZM110.125 86.173C110.125 86.925 110.213 87.629 110.389 88.285C110.581 88.925 110.853 89.485 111.205 89.965C111.557 90.429 111.997 90.797 112.525 91.069C113.053 91.341 113.653 91.477 114.325 91.477C114.933 91.477 115.493 91.373 116.005 91.165C116.517 90.941 116.965 90.621 117.349 90.205C117.733 89.789 118.029 89.285 118.237 88.693C118.461 88.085 118.573 87.389 118.573 86.605C118.605 85.821 118.541 85.093 118.381 84.421C118.221 83.733 117.965 83.133 117.613 82.621C117.261 82.109 116.805 81.709 116.245 81.421C115.701 81.117 115.061 80.965 114.325 80.965C113.669 80.965 113.077 81.109 112.549 81.397C112.037 81.669 111.597 82.045 111.229 82.525C110.877 82.989 110.605 83.541 110.413 84.181C110.221 84.805 110.125 85.469 110.125 86.173ZM110.125 92.437H108.685V75.157H110.125V81.997C110.589 81.229 111.221 80.653 112.021 80.269C112.837 79.869 113.685 79.669 114.565 79.669C115.509 79.669 116.325 79.853 117.013 80.221C117.717 80.573 118.293 81.053 118.741 81.661C119.205 82.253 119.549 82.949 119.773 83.749C119.997 84.549 120.109 85.381 120.109 86.245C120.109 87.157 120.005 88.013 119.797 88.813C119.589 89.613 119.253 90.309 118.789 90.901C118.341 91.477 117.765 91.933 117.061 92.269C116.357 92.605 115.501 92.773 114.493 92.773C114.093 92.773 113.685 92.717 113.269 92.605C112.853 92.493 112.445 92.333 112.045 92.125C111.661 91.917 111.301 91.661 110.965 91.357C110.645 91.037 110.381 90.669 110.173 90.253H110.125V92.437ZM128.133 92.773C127.333 92.757 126.581 92.613 125.877 92.341C125.189 92.069 124.581 91.661 124.053 91.117C123.541 90.573 123.133 89.893 122.829 89.077C122.525 88.261 122.373 87.309 122.373 86.221C122.373 85.309 122.493 84.461 122.733 83.677C122.973 82.877 123.333 82.181 123.813 81.589C124.293 80.997 124.893 80.533 125.613 80.197C126.333 79.845 127.173 79.669 128.133 79.669C129.109 79.669 129.957 79.845 130.677 80.197C131.397 80.533 131.997 80.997 132.477 81.589C132.957 82.165 133.309 82.853 133.533 83.653C133.773 84.453 133.893 85.309 133.893 86.221C133.893 87.213 133.757 88.109 133.485 88.909C133.213 89.709 132.821 90.397 132.309 90.973C131.813 91.549 131.205 91.997 130.485 92.317C129.781 92.621 128.997 92.773 128.133 92.773ZM132.357 86.221C132.357 85.485 132.277 84.797 132.117 84.157C131.957 83.517 131.709 82.965 131.373 82.501C131.037 82.021 130.605 81.645 130.077 81.373C129.549 81.101 128.901 80.965 128.133 80.965C127.381 80.965 126.733 81.117 126.189 81.421C125.661 81.709 125.229 82.101 124.893 82.597C124.557 83.077 124.309 83.637 124.149 84.277C123.989 84.901 123.909 85.549 123.909 86.221C123.909 86.989 123.997 87.701 124.173 88.357C124.365 88.997 124.637 89.549 124.989 90.013C125.341 90.477 125.781 90.837 126.309 91.093C126.837 91.349 127.445 91.477 128.133 91.477C128.885 91.477 129.525 91.333 130.053 91.045C130.597 90.741 131.037 90.341 131.373 89.845C131.709 89.349 131.957 88.789 132.117 88.165C132.277 87.541 132.357 86.893 132.357 86.221ZM144.949 80.005H146.389V92.437H144.949V90.709C144.757 90.933 144.541 91.165 144.301 91.405C144.061 91.645 143.781 91.869 143.461 92.077C143.157 92.269 142.797 92.429 142.381 92.557C141.965 92.701 141.485 92.773 140.941 92.773C140.109 92.773 139.413 92.661 138.853 92.437C138.293 92.197 137.837 91.869 137.485 91.453C137.149 91.037 136.901 90.557 136.741 90.013C136.597 89.453 136.525 88.845 136.525 88.189V80.005H137.965V88.165C137.965 89.237 138.213 90.061 138.709 90.637C139.205 91.197 140.021 91.477 141.157 91.477C141.749 91.477 142.277 91.365 142.741 91.141C143.221 90.901 143.621 90.573 143.941 90.157C144.261 89.741 144.509 89.245 144.685 88.669C144.861 88.093 144.949 87.461 144.949 86.773V80.005ZM154.229 92.485C154.053 92.517 153.821 92.573 153.533 92.653C153.245 92.733 152.925 92.773 152.573 92.773C151.853 92.773 151.301 92.597 150.917 92.245C150.549 91.877 150.365 91.229 150.365 90.301V81.205H148.613V80.005H150.365V76.549H151.805V80.005H154.133V81.205H151.805V89.725C151.805 90.029 151.813 90.293 151.829 90.517C151.845 90.741 151.893 90.925 151.973 91.069C152.053 91.213 152.173 91.317 152.333 91.381C152.509 91.445 152.749 91.477 153.053 91.477C153.245 91.477 153.437 91.461 153.629 91.429C153.837 91.397 154.037 91.357 154.229 91.309V92.485ZM164.468 92.437H163.028V80.005H164.468V81.877H164.516C164.884 81.157 165.412 80.613 166.1 80.245C166.788 79.861 167.54 79.669 168.356 79.669C168.932 79.669 169.42 79.733 169.82 79.861C170.22 79.989 170.556 80.165 170.828 80.389C171.116 80.597 171.348 80.845 171.524 81.133C171.716 81.421 171.876 81.733 172.004 82.069C172.42 81.253 172.972 80.653 173.66 80.269C174.364 79.869 175.164 79.669 176.06 79.669C176.908 79.669 177.58 79.813 178.076 80.101C178.588 80.373 178.98 80.741 179.252 81.205C179.524 81.653 179.7 82.173 179.78 82.765C179.876 83.357 179.924 83.965 179.924 84.589V92.437H178.484V83.845C178.484 82.949 178.292 82.245 177.908 81.733C177.54 81.221 176.844 80.965 175.82 80.965C175.292 80.965 174.78 81.085 174.284 81.325C173.804 81.549 173.38 81.901 173.012 82.381C172.852 82.589 172.716 82.837 172.604 83.125C172.508 83.397 172.428 83.685 172.364 83.989C172.3 84.293 172.252 84.597 172.22 84.901C172.204 85.205 172.196 85.485 172.196 85.741V92.437H170.756V83.845C170.756 82.949 170.564 82.245 170.18 81.733C169.812 81.221 169.116 80.965 168.092 80.965C167.564 80.965 167.052 81.085 166.556 81.325C166.076 81.549 165.652 81.901 165.284 82.381C165.124 82.589 164.988 82.837 164.876 83.125C164.78 83.397 164.7 83.685 164.636 83.989C164.572 84.293 164.524 84.597 164.492 84.901C164.476 85.205 164.468 85.485 164.468 85.741V92.437ZM183.116 95.821C183.308 95.853 183.5 95.885 183.692 95.917C183.9 95.949 184.108 95.965 184.316 95.965C184.716 95.965 185.044 95.837 185.3 95.581C185.556 95.325 185.764 95.013 185.924 94.645C186.1 94.293 186.244 93.917 186.356 93.517C186.468 93.133 186.596 92.805 186.74 92.533L181.916 80.005H183.524L187.508 90.685L191.492 80.005H193.052L188.42 92.269C188.132 93.053 187.852 93.757 187.58 94.381C187.324 95.005 187.044 95.533 186.74 95.965C186.452 96.413 186.124 96.749 185.756 96.973C185.404 97.213 184.98 97.333 184.484 97.333C184.228 97.333 183.98 97.317 183.74 97.285C183.516 97.253 183.308 97.213 183.116 97.165V95.821ZM201.686 92.437V80.005H203.126V92.437H201.686ZM201.614 77.293V75.157H203.198V77.293H201.614ZM208.23 92.437H206.791V80.005H208.23V81.733C208.807 81.125 209.399 80.629 210.007 80.245C210.631 79.861 211.375 79.669 212.239 79.669C213.007 79.669 213.719 79.805 214.375 80.077C215.031 80.333 215.583 80.789 216.031 81.445C216.335 81.893 216.511 82.357 216.559 82.837C216.623 83.301 216.655 83.789 216.655 84.301V92.437H215.215V84.325C215.215 83.205 214.967 82.365 214.471 81.805C213.975 81.245 213.151 80.965 211.999 80.965C211.551 80.965 211.143 81.037 210.775 81.181C210.407 81.309 210.071 81.485 209.767 81.709C209.479 81.933 209.231 82.189 209.023 82.477C208.815 82.765 208.655 83.069 208.543 83.389C208.399 83.789 208.311 84.173 208.279 84.541C208.247 84.909 208.23 85.309 208.23 85.741V92.437ZM224.494 92.485C224.318 92.517 224.086 92.573 223.798 92.653C223.51 92.733 223.19 92.773 222.838 92.773C222.118 92.773 221.566 92.597 221.182 92.245C220.814 91.877 220.63 91.229 220.63 90.301V81.205H218.878V80.005H220.63V76.549H222.07V80.005H224.398V81.205H222.07V89.725C222.07 90.029 222.078 90.293 222.094 90.517C222.11 90.741 222.158 90.925 222.238 91.069C222.318 91.213 222.438 91.317 222.598 91.381C222.774 91.445 223.014 91.477 223.318 91.477C223.51 91.477 223.702 91.461 223.894 91.429C224.102 91.397 224.302 91.357 224.494 91.309V92.485ZM235.806 85.357C235.806 84.749 235.718 84.181 235.542 83.653C235.382 83.109 235.134 82.645 234.798 82.261C234.478 81.861 234.07 81.549 233.574 81.325C233.078 81.085 232.51 80.965 231.87 80.965C231.23 80.965 230.662 81.085 230.166 81.325C229.686 81.565 229.27 81.885 228.918 82.285C228.582 82.685 228.31 83.149 228.102 83.677C227.894 84.205 227.758 84.765 227.694 85.357H235.806ZM227.694 86.557C227.694 87.229 227.782 87.869 227.958 88.477C228.134 89.069 228.39 89.589 228.726 90.037C229.078 90.469 229.518 90.821 230.046 91.093C230.574 91.349 231.182 91.477 231.87 91.477C232.814 91.477 233.622 91.229 234.294 90.733C234.966 90.237 235.414 89.533 235.638 88.621H237.246C237.07 89.213 236.838 89.765 236.55 90.277C236.262 90.773 235.902 91.213 235.47 91.597C235.038 91.965 234.526 92.253 233.934 92.461C233.342 92.669 232.654 92.773 231.87 92.773C230.878 92.773 230.022 92.605 229.302 92.269C228.582 91.933 227.99 91.477 227.526 90.901C227.062 90.309 226.718 89.621 226.494 88.837C226.27 88.037 226.158 87.181 226.158 86.269C226.158 85.357 226.286 84.501 226.542 83.701C226.814 82.901 227.19 82.205 227.67 81.613C228.166 81.005 228.766 80.533 229.47 80.197C230.174 79.845 230.974 79.669 231.87 79.669C233.582 79.669 234.926 80.261 235.902 81.445C236.878 82.613 237.358 84.317 237.342 86.557H227.694ZM241.654 92.437H240.214V80.005H241.654V82.333H241.702C242.102 81.341 242.614 80.653 243.238 80.269C243.878 79.869 244.718 79.669 245.758 79.669V81.229C244.942 81.213 244.27 81.341 243.742 81.613C243.214 81.885 242.79 82.253 242.47 82.717C242.166 83.181 241.95 83.733 241.822 84.373C241.71 84.997 241.654 85.653 241.654 86.341V92.437ZM256.27 85.909C255.662 86.165 255.046 86.333 254.422 86.413C253.798 86.493 253.174 86.557 252.55 86.605C251.446 86.685 250.582 86.933 249.958 87.349C249.35 87.765 249.046 88.397 249.046 89.245C249.046 89.629 249.118 89.965 249.262 90.253C249.422 90.525 249.622 90.757 249.862 90.949C250.118 91.125 250.406 91.261 250.726 91.357C251.062 91.437 251.398 91.477 251.734 91.477C252.31 91.477 252.87 91.405 253.414 91.261C253.958 91.117 254.438 90.901 254.854 90.613C255.286 90.309 255.63 89.933 255.886 89.485C256.142 89.021 256.27 88.477 256.27 87.853V85.909ZM253.846 85.189C254.118 85.157 254.438 85.109 254.806 85.045C255.19 84.981 255.502 84.893 255.742 84.781C255.982 84.669 256.126 84.485 256.174 84.229C256.238 83.957 256.27 83.709 256.27 83.485C256.27 82.749 256.03 82.149 255.55 81.685C255.086 81.205 254.294 80.965 253.174 80.965C252.678 80.965 252.222 81.013 251.806 81.109C251.39 81.189 251.022 81.341 250.702 81.565C250.398 81.773 250.142 82.061 249.934 82.429C249.742 82.781 249.614 83.229 249.55 83.773H248.086C248.134 83.037 248.302 82.413 248.59 81.901C248.878 81.373 249.246 80.949 249.694 80.629C250.158 80.293 250.686 80.053 251.278 79.909C251.886 79.749 252.526 79.669 253.198 79.669C253.822 79.669 254.406 79.741 254.95 79.885C255.51 80.013 255.99 80.229 256.39 80.533C256.806 80.821 257.126 81.213 257.35 81.709C257.59 82.205 257.71 82.813 257.71 83.533V90.301C257.71 90.861 257.806 91.221 257.998 91.381C258.206 91.525 258.614 91.485 259.222 91.261V92.389C259.11 92.421 258.942 92.469 258.718 92.533C258.51 92.597 258.302 92.629 258.094 92.629C257.87 92.629 257.654 92.605 257.446 92.557C257.206 92.525 257.014 92.453 256.87 92.341C256.726 92.213 256.606 92.069 256.51 91.909C256.43 91.733 256.374 91.549 256.342 91.357C256.31 91.149 256.294 90.933 256.294 90.709C255.686 91.381 254.99 91.893 254.206 92.245C253.422 92.597 252.574 92.773 251.662 92.773C251.118 92.773 250.59 92.701 250.078 92.557C249.582 92.413 249.142 92.189 248.758 91.885C248.374 91.581 248.07 91.213 247.846 90.781C247.622 90.333 247.51 89.805 247.51 89.197C247.51 87.085 248.958 85.837 251.854 85.453L253.846 85.189ZM270.278 83.917C270.022 82.989 269.582 82.269 268.958 81.757C268.334 81.229 267.542 80.965 266.582 80.965C265.846 80.965 265.214 81.117 264.686 81.421C264.158 81.725 263.726 82.133 263.39 82.645C263.054 83.141 262.806 83.709 262.646 84.349C262.486 84.973 262.406 85.605 262.406 86.245C262.406 86.901 262.478 87.541 262.622 88.165C262.782 88.789 263.03 89.349 263.366 89.845C263.702 90.341 264.134 90.741 264.662 91.045C265.19 91.333 265.83 91.477 266.582 91.477C267.654 91.477 268.51 91.181 269.15 90.589C269.806 89.997 270.222 89.181 270.398 88.141H271.934C271.806 88.829 271.598 89.461 271.31 90.037C271.038 90.597 270.678 91.085 270.23 91.501C269.798 91.901 269.278 92.213 268.67 92.437C268.062 92.661 267.366 92.773 266.582 92.773C265.59 92.773 264.734 92.605 264.014 92.269C263.294 91.933 262.702 91.477 262.238 90.901C261.774 90.309 261.43 89.613 261.206 88.813C260.982 88.013 260.87 87.157 260.87 86.245C260.87 85.381 260.99 84.557 261.23 83.773C261.486 82.973 261.854 82.269 262.334 81.661C262.814 81.053 263.406 80.573 264.11 80.221C264.83 79.853 265.654 79.669 266.582 79.669C268.022 79.669 269.182 80.013 270.062 80.701C270.958 81.389 271.518 82.461 271.742 83.917H270.278ZM279.174 92.485C278.998 92.517 278.766 92.573 278.478 92.653C278.19 92.733 277.87 92.773 277.518 92.773C276.798 92.773 276.246 92.597 275.862 92.245C275.494 91.877 275.31 91.229 275.31 90.301V81.205H273.558V80.005H275.31V76.549H276.75V80.005H279.078V81.205H276.75V89.725C276.75 90.029 276.758 90.293 276.774 90.517C276.79 90.741 276.838 90.925 276.918 91.069C276.998 91.213 277.118 91.317 277.278 91.381C277.454 91.445 277.694 91.477 277.998 91.477C278.19 91.477 278.382 91.461 278.574 91.429C278.782 91.397 278.982 91.357 279.174 91.309V92.485ZM281.28 92.437V80.005H282.72V92.437H281.28ZM281.208 77.293V75.157H282.792V77.293H281.208ZM291.328 92.773C290.528 92.757 289.776 92.613 289.072 92.341C288.384 92.069 287.776 91.661 287.248 91.117C286.736 90.573 286.328 89.893 286.024 89.077C285.72 88.261 285.568 87.309 285.568 86.221C285.568 85.309 285.688 84.461 285.928 83.677C286.168 82.877 286.528 82.181 287.008 81.589C287.488 80.997 288.088 80.533 288.808 80.197C289.528 79.845 290.368 79.669 291.328 79.669C292.304 79.669 293.152 79.845 293.872 80.197C294.592 80.533 295.192 80.997 295.672 81.589C296.152 82.165 296.504 82.853 296.728 83.653C296.968 84.453 297.088 85.309 297.088 86.221C297.088 87.213 296.952 88.109 296.68 88.909C296.408 89.709 296.016 90.397 295.504 90.973C295.008 91.549 294.4 91.997 293.68 92.317C292.976 92.621 292.192 92.773 291.328 92.773ZM295.552 86.221C295.552 85.485 295.472 84.797 295.312 84.157C295.152 83.517 294.904 82.965 294.568 82.501C294.232 82.021 293.8 81.645 293.272 81.373C292.744 81.101 292.096 80.965 291.328 80.965C290.576 80.965 289.928 81.117 289.384 81.421C288.856 81.709 288.424 82.101 288.088 82.597C287.752 83.077 287.504 83.637 287.344 84.277C287.184 84.901 287.104 85.549 287.104 86.221C287.104 86.989 287.192 87.701 287.368 88.357C287.56 88.997 287.832 89.549 288.184 90.013C288.536 90.477 288.976 90.837 289.504 91.093C290.032 91.349 290.64 91.477 291.328 91.477C292.08 91.477 292.72 91.333 293.248 91.045C293.792 90.741 294.232 90.341 294.568 89.845C294.904 89.349 295.152 88.789 295.312 88.165C295.472 87.541 295.552 86.893 295.552 86.221ZM301.16 92.437H299.72V80.005H301.16V81.733C301.736 81.125 302.328 80.629 302.936 80.245C303.56 79.861 304.304 79.669 305.168 79.669C305.936 79.669 306.648 79.805 307.304 80.077C307.96 80.333 308.512 80.789 308.96 81.445C309.264 81.893 309.44 82.357 309.488 82.837C309.552 83.301 309.584 83.789 309.584 84.301V92.437H308.144V84.325C308.144 83.205 307.896 82.365 307.4 81.805C306.904 81.245 306.08 80.965 304.928 80.965C304.48 80.965 304.072 81.037 303.704 81.181C303.336 81.309 303 81.485 302.696 81.709C302.408 81.933 302.16 82.189 301.952 82.477C301.744 82.765 301.584 83.069 301.472 83.389C301.328 83.789 301.24 84.173 301.208 84.541C301.176 84.909 301.16 85.309 301.16 85.741V92.437ZM330.248 90.517L333.512 80.005H334.976L330.944 92.437H329.408L326.696 81.997H326.648L323.888 92.437H322.16L318.368 80.005H319.808L323.024 90.613L325.904 80.005H327.512L330.248 90.517ZM342 92.773C341.2 92.757 340.448 92.613 339.744 92.341C339.056 92.069 338.448 91.661 337.92 91.117C337.408 90.573 337 89.893 336.696 89.077C336.392 88.261 336.24 87.309 336.24 86.221C336.24 85.309 336.36 84.461 336.6 83.677C336.84 82.877 337.2 82.181 337.68 81.589C338.16 80.997 338.76 80.533 339.48 80.197C340.2 79.845 341.04 79.669 342 79.669C342.976 79.669 343.824 79.845 344.544 80.197C345.264 80.533 345.864 80.997 346.344 81.589C346.824 82.165 347.176 82.853 347.4 83.653C347.64 84.453 347.76 85.309 347.76 86.221C347.76 87.213 347.624 88.109 347.352 88.909C347.08 89.709 346.688 90.397 346.176 90.973C345.68 91.549 345.072 91.997 344.352 92.317C343.648 92.621 342.864 92.773 342 92.773ZM346.224 86.221C346.224 85.485 346.144 84.797 345.984 84.157C345.824 83.517 345.576 82.965 345.24 82.501C344.904 82.021 344.472 81.645 343.944 81.373C343.416 81.101 342.768 80.965 342 80.965C341.248 80.965 340.6 81.117 340.056 81.421C339.528 81.709 339.096 82.101 338.76 82.597C338.424 83.077 338.176 83.637 338.016 84.277C337.856 84.901 337.776 85.549 337.776 86.221C337.776 86.989 337.864 87.701 338.04 88.357C338.232 88.997 338.504 89.549 338.856 90.013C339.208 90.477 339.648 90.837 340.176 91.093C340.704 91.349 341.312 91.477 342 91.477C342.752 91.477 343.392 91.333 343.92 91.045C344.464 90.741 344.904 90.341 345.24 89.845C345.576 89.349 345.824 88.789 345.984 88.165C346.144 87.541 346.224 86.893 346.224 86.221ZM351.904 92.437H350.464V80.005H351.904V82.333H351.952C352.352 81.341 352.864 80.653 353.488 80.269C354.128 79.869 354.968 79.669 356.008 79.669V81.229C355.192 81.213 354.52 81.341 353.992 81.613C353.464 81.885 353.04 82.253 352.72 82.717C352.416 83.181 352.2 83.733 352.072 84.373C351.96 84.997 351.904 85.653 351.904 86.341V92.437ZM358.288 92.437V75.157H359.728V85.909L365.824 80.005H367.792L363.136 84.493L368.344 92.437H366.736L362.08 85.501L359.728 87.733V92.437H358.288ZM371.224 88.549C371.448 89.621 371.848 90.381 372.424 90.829C373.016 91.261 373.856 91.477 374.944 91.477C375.472 91.477 375.928 91.413 376.312 91.285C376.696 91.157 377.008 90.989 377.248 90.781C377.504 90.557 377.696 90.309 377.824 90.037C377.952 89.765 378.016 89.477 378.016 89.173C378.016 88.565 377.816 88.117 377.416 87.829C377.032 87.525 376.544 87.293 375.952 87.133C375.36 86.957 374.72 86.813 374.032 86.701C373.344 86.573 372.704 86.389 372.112 86.149C371.52 85.909 371.024 85.565 370.624 85.117C370.24 84.669 370.048 84.037 370.048 83.221C370.048 82.181 370.424 81.333 371.176 80.677C371.944 80.005 373.024 79.669 374.416 79.669C375.76 79.669 376.848 79.973 377.68 80.581C378.528 81.173 379.04 82.173 379.216 83.581H377.752C377.624 82.621 377.256 81.949 376.648 81.565C376.056 81.165 375.304 80.965 374.392 80.965C373.48 80.965 372.784 81.165 372.304 81.565C371.824 81.949 371.584 82.461 371.584 83.101C371.584 83.661 371.776 84.093 372.16 84.397C372.56 84.685 373.056 84.925 373.648 85.117C374.24 85.293 374.88 85.453 375.568 85.597C376.256 85.741 376.896 85.949 377.488 86.221C378.08 86.477 378.568 86.829 378.952 87.277C379.352 87.725 379.552 88.349 379.552 89.149C379.552 89.741 379.424 90.269 379.168 90.733C378.912 91.181 378.56 91.557 378.112 91.861C377.664 92.165 377.128 92.389 376.504 92.533C375.896 92.693 375.224 92.773 374.488 92.773C373.752 92.773 373.096 92.661 372.52 92.437C371.96 92.229 371.48 91.933 371.08 91.549C370.68 91.165 370.368 90.717 370.144 90.205C369.92 89.693 369.792 89.141 369.76 88.549H371.224ZM383.104 92.437V90.325H384.856V92.437H383.104ZM383.104 82.741V80.629H384.856V82.741H383.104ZM397.256 92.437H395.816V80.005H397.256V82.333H397.304C397.704 81.341 398.216 80.653 398.84 80.269C399.48 79.869 400.32 79.669 401.36 79.669V81.229C400.544 81.213 399.872 81.341 399.344 81.613C398.816 81.885 398.392 82.253 398.072 82.717C397.768 83.181 397.552 83.733 397.424 84.373C397.312 84.997 397.256 85.653 397.256 86.341V92.437ZM412.314 85.357C412.314 84.749 412.226 84.181 412.05 83.653C411.89 83.109 411.642 82.645 411.306 82.261C410.986 81.861 410.578 81.549 410.082 81.325C409.586 81.085 409.018 80.965 408.378 80.965C407.738 80.965 407.17 81.085 406.674 81.325C406.194 81.565 405.778 81.885 405.426 82.285C405.09 82.685 404.818 83.149 404.61 83.677C404.402 84.205 404.266 84.765 404.202 85.357H412.314ZM404.202 86.557C404.202 87.229 404.29 87.869 404.466 88.477C404.642 89.069 404.898 89.589 405.234 90.037C405.586 90.469 406.026 90.821 406.554 91.093C407.082 91.349 407.69 91.477 408.378 91.477C409.322 91.477 410.13 91.229 410.802 90.733C411.474 90.237 411.922 89.533 412.146 88.621H413.754C413.578 89.213 413.346 89.765 413.058 90.277C412.77 90.773 412.41 91.213 411.978 91.597C411.546 91.965 411.034 92.253 410.442 92.461C409.85 92.669 409.162 92.773 408.378 92.773C407.386 92.773 406.53 92.605 405.81 92.269C405.09 91.933 404.498 91.477 404.034 90.901C403.57 90.309 403.226 89.621 403.002 88.837C402.778 88.037 402.666 87.181 402.666 86.269C402.666 85.357 402.794 84.501 403.05 83.701C403.322 82.901 403.698 82.205 404.178 81.613C404.674 81.005 405.274 80.533 405.978 80.197C406.682 79.845 407.482 79.669 408.378 79.669C410.09 79.669 411.434 80.261 412.41 81.445C413.386 82.613 413.866 84.317 413.85 86.557H404.202ZM424.786 85.909C424.178 86.165 423.562 86.333 422.938 86.413C422.314 86.493 421.69 86.557 421.066 86.605C419.962 86.685 419.098 86.933 418.474 87.349C417.866 87.765 417.562 88.397 417.562 89.245C417.562 89.629 417.634 89.965 417.778 90.253C417.938 90.525 418.138 90.757 418.378 90.949C418.634 91.125 418.922 91.261 419.242 91.357C419.578 91.437 419.914 91.477 420.25 91.477C420.826 91.477 421.386 91.405 421.93 91.261C422.474 91.117 422.954 90.901 423.37 90.613C423.802 90.309 424.146 89.933 424.402 89.485C424.658 89.021 424.786 88.477 424.786 87.853V85.909ZM422.362 85.189C422.634 85.157 422.954 85.109 423.322 85.045C423.706 84.981 424.018 84.893 424.258 84.781C424.498 84.669 424.642 84.485 424.69 84.229C424.754 83.957 424.786 83.709 424.786 83.485C424.786 82.749 424.546 82.149 424.066 81.685C423.602 81.205 422.81 80.965 421.69 80.965C421.194 80.965 420.738 81.013 420.322 81.109C419.906 81.189 419.538 81.341 419.218 81.565C418.914 81.773 418.658 82.061 418.45 82.429C418.258 82.781 418.13 83.229 418.066 83.773H416.602C416.65 83.037 416.818 82.413 417.106 81.901C417.394 81.373 417.762 80.949 418.21 80.629C418.674 80.293 419.202 80.053 419.794 79.909C420.402 79.749 421.042 79.669 421.714 79.669C422.338 79.669 422.922 79.741 423.466 79.885C424.026 80.013 424.506 80.229 424.906 80.533C425.322 80.821 425.642 81.213 425.866 81.709C426.106 82.205 426.226 82.813 426.226 83.533V90.301C426.226 90.861 426.322 91.221 426.514 91.381C426.722 91.525 427.13 91.485 427.738 91.261V92.389C427.626 92.421 427.458 92.469 427.234 92.533C427.026 92.597 426.818 92.629 426.61 92.629C426.386 92.629 426.17 92.605 425.962 92.557C425.722 92.525 425.53 92.453 425.386 92.341C425.242 92.213 425.122 92.069 425.026 91.909C424.946 91.733 424.89 91.549 424.858 91.357C424.826 91.149 424.81 90.933 424.81 90.709C424.202 91.381 423.506 91.893 422.722 92.245C421.938 92.597 421.09 92.773 420.178 92.773C419.634 92.773 419.106 92.701 418.594 92.557C418.098 92.413 417.658 92.189 417.274 91.885C416.89 91.581 416.586 91.213 416.362 90.781C416.138 90.333 416.026 89.805 416.026 89.197C416.026 87.085 417.474 85.837 420.37 85.453L422.362 85.189ZM439.586 86.173C439.586 85.469 439.49 84.805 439.298 84.181C439.106 83.541 438.826 82.989 438.458 82.525C438.106 82.045 437.666 81.669 437.138 81.397C436.626 81.109 436.042 80.965 435.386 80.965C434.634 80.965 433.986 81.117 433.442 81.421C432.898 81.709 432.45 82.109 432.098 82.621C431.746 83.133 431.49 83.733 431.33 84.421C431.17 85.093 431.106 85.821 431.138 86.605C431.138 87.389 431.242 88.085 431.45 88.693C431.674 89.285 431.978 89.789 432.362 90.205C432.746 90.621 433.194 90.941 433.706 91.165C434.218 91.373 434.778 91.477 435.386 91.477C436.058 91.477 436.658 91.341 437.186 91.069C437.714 90.797 438.154 90.429 438.506 89.965C438.858 89.485 439.122 88.925 439.298 88.285C439.49 87.629 439.586 86.925 439.586 86.173ZM439.586 75.157H441.026V92.437H439.586V90.253H439.538C439.33 90.669 439.058 91.037 438.722 91.357C438.402 91.661 438.042 91.917 437.642 92.125C437.258 92.333 436.858 92.493 436.442 92.605C436.026 92.717 435.618 92.773 435.218 92.773C434.21 92.773 433.354 92.605 432.65 92.269C431.946 91.933 431.362 91.477 430.898 90.901C430.45 90.309 430.122 89.613 429.914 88.813C429.706 88.013 429.602 87.157 429.602 86.245C429.602 85.381 429.714 84.549 429.938 83.749C430.162 82.949 430.498 82.253 430.946 81.661C431.41 81.053 431.986 80.573 432.674 80.221C433.378 79.853 434.202 79.669 435.146 79.669C436.026 79.669 436.866 79.869 437.666 80.269C438.482 80.653 439.122 81.229 439.586 81.997V75.157ZM455.705 92.485C455.529 92.517 455.297 92.573 455.009 92.653C454.721 92.733 454.401 92.773 454.049 92.773C453.329 92.773 452.777 92.597 452.393 92.245C452.025 91.877 451.841 91.229 451.841 90.301V81.205H450.089V80.005H451.841V76.549H453.281V80.005H455.609V81.205H453.281V89.725C453.281 90.029 453.289 90.293 453.305 90.517C453.321 90.741 453.369 90.925 453.449 91.069C453.529 91.213 453.649 91.317 453.809 91.381C453.985 91.445 454.225 91.477 454.529 91.477C454.721 91.477 454.913 91.461 455.105 91.429C455.313 91.397 455.513 91.357 455.705 91.309V92.485ZM458.017 92.437V75.157H459.457V81.733C460.033 81.125 460.625 80.629 461.233 80.245C461.857 79.861 462.601 79.669 463.465 79.669C464.233 79.669 464.945 79.805 465.601 80.077C466.257 80.333 466.809 80.789 467.257 81.445C467.561 81.893 467.737 82.357 467.785 82.837C467.849 83.301 467.881 83.789 467.881 84.301V92.437H466.441V84.325C466.441 83.205 466.193 82.365 465.697 81.805C465.201 81.245 464.377 80.965 463.225 80.965C462.777 80.965 462.369 81.037 462.001 81.181C461.633 81.309 461.297 81.485 460.993 81.709C460.705 81.933 460.457 82.189 460.249 82.477C460.041 82.765 459.881 83.069 459.769 83.389C459.625 83.789 459.537 84.173 459.505 84.541C459.473 84.909 459.457 85.309 459.457 85.741V92.437H458.017ZM472.865 92.437H471.425V80.005H472.865V82.333H472.913C473.313 81.341 473.825 80.653 474.449 80.269C475.089 79.869 475.929 79.669 476.969 79.669V81.229C476.153 81.213 475.481 81.341 474.953 81.613C474.425 81.885 474.001 82.253 473.681 82.717C473.377 83.181 473.161 83.733 473.033 84.373C472.921 84.997 472.865 85.653 472.865 86.341V92.437ZM483.867 92.773C483.067 92.757 482.315 92.613 481.611 92.341C480.923 92.069 480.315 91.661 479.787 91.117C479.275 90.573 478.867 89.893 478.563 89.077C478.259 88.261 478.107 87.309 478.107 86.221C478.107 85.309 478.227 84.461 478.467 83.677C478.707 82.877 479.067 82.181 479.547 81.589C480.027 80.997 480.627 80.533 481.347 80.197C482.067 79.845 482.907 79.669 483.867 79.669C484.843 79.669 485.691 79.845 486.411 80.197C487.131 80.533 487.731 80.997 488.211 81.589C488.691 82.165 489.043 82.853 489.267 83.653C489.507 84.453 489.627 85.309 489.627 86.221C489.627 87.213 489.491 88.109 489.219 88.909C488.947 89.709 488.555 90.397 488.043 90.973C487.547 91.549 486.939 91.997 486.219 92.317C485.515 92.621 484.731 92.773 483.867 92.773ZM488.091 86.221C488.091 85.485 488.011 84.797 487.851 84.157C487.691 83.517 487.443 82.965 487.107 82.501C486.771 82.021 486.339 81.645 485.811 81.373C485.283 81.101 484.635 80.965 483.867 80.965C483.115 80.965 482.467 81.117 481.923 81.421C481.395 81.709 480.963 82.101 480.627 82.597C480.291 83.077 480.043 83.637 479.883 84.277C479.723 84.901 479.643 85.549 479.643 86.221C479.643 86.989 479.731 87.701 479.907 88.357C480.099 88.997 480.371 89.549 480.723 90.013C481.075 90.477 481.515 90.837 482.043 91.093C482.571 91.349 483.179 91.477 483.867 91.477C484.619 91.477 485.259 91.333 485.787 91.045C486.331 90.741 486.771 90.341 487.107 89.845C487.443 89.349 487.691 88.789 487.851 88.165C488.011 87.541 488.091 86.893 488.091 86.221ZM500.683 80.005H502.123V92.437H500.683V90.709C500.491 90.933 500.275 91.165 500.035 91.405C499.795 91.645 499.515 91.869 499.195 92.077C498.891 92.269 498.531 92.429 498.115 92.557C497.699 92.701 497.219 92.773 496.675 92.773C495.843 92.773 495.147 92.661 494.587 92.437C494.027 92.197 493.571 91.869 493.219 91.453C492.883 91.037 492.635 90.557 492.475 90.013C492.331 89.453 492.259 88.845 492.259 88.189V80.005H493.699V88.165C493.699 89.237 493.947 90.061 494.443 90.637C494.939 91.197 495.755 91.477 496.891 91.477C497.483 91.477 498.011 91.365 498.475 91.141C498.955 90.901 499.355 90.573 499.675 90.157C499.995 89.741 500.243 89.245 500.419 88.669C500.595 88.093 500.683 87.461 500.683 86.773V80.005ZM515.195 86.269C515.195 85.517 515.099 84.821 514.907 84.181C514.731 83.525 514.467 82.965 514.115 82.501C513.763 82.021 513.323 81.645 512.795 81.373C512.267 81.101 511.667 80.965 510.995 80.965C510.387 80.965 509.827 81.077 509.315 81.301C508.803 81.509 508.355 81.821 507.971 82.237C507.587 82.653 507.283 83.165 507.059 83.773C506.851 84.365 506.747 85.053 506.747 85.837C506.715 86.621 506.779 87.357 506.939 88.045C507.099 88.717 507.355 89.309 507.707 89.821C508.059 90.333 508.507 90.741 509.051 91.045C509.595 91.333 510.243 91.477 510.995 91.477C511.651 91.477 512.235 91.341 512.747 91.069C513.275 90.781 513.715 90.405 514.067 89.941C514.435 89.461 514.715 88.909 514.907 88.285C515.099 87.645 515.195 86.973 515.195 86.269ZM515.195 80.005H516.635V91.237C516.635 92.069 516.547 92.861 516.371 93.613C516.211 94.381 515.915 95.053 515.483 95.629C515.051 96.205 514.459 96.661 513.707 96.997C512.955 97.349 511.987 97.525 510.803 97.525C509.891 97.525 509.107 97.405 508.451 97.165C507.795 96.941 507.259 96.653 506.843 96.301C506.427 95.949 506.107 95.557 505.883 95.125C505.675 94.709 505.563 94.317 505.547 93.949H507.083C507.195 94.413 507.371 94.789 507.611 95.077C507.851 95.381 508.131 95.613 508.451 95.773C508.787 95.949 509.155 96.069 509.555 96.133C509.955 96.197 510.371 96.229 510.803 96.229C511.779 96.229 512.563 96.061 513.155 95.725C513.747 95.389 514.195 94.949 514.499 94.405C514.803 93.861 514.995 93.245 515.075 92.557C515.171 91.869 515.211 91.165 515.195 90.445C514.731 91.213 514.091 91.797 513.275 92.197C512.475 92.581 511.635 92.773 510.755 92.773C509.811 92.773 508.987 92.597 508.283 92.245C507.595 91.877 507.019 91.397 506.555 90.805C506.107 90.197 505.771 89.493 505.547 88.693C505.323 87.893 505.211 87.061 505.211 86.197C505.211 85.285 505.315 84.429 505.523 83.629C505.731 82.829 506.059 82.141 506.507 81.565C506.971 80.973 507.555 80.509 508.259 80.173C508.963 79.837 509.819 79.669 510.827 79.669C511.227 79.669 511.635 79.725 512.051 79.837C512.467 79.949 512.867 80.109 513.251 80.317C513.651 80.525 514.011 80.789 514.331 81.109C514.667 81.429 514.939 81.789 515.147 82.189H515.195V80.005ZM520.267 92.437V75.157H521.707V81.733C522.283 81.125 522.875 80.629 523.483 80.245C524.107 79.861 524.851 79.669 525.715 79.669C526.483 79.669 527.195 79.805 527.851 80.077C528.507 80.333 529.059 80.789 529.507 81.445C529.811 81.893 529.987 82.357 530.035 82.837C530.099 83.301 530.131 83.789 530.131 84.301V92.437H528.691V84.325C528.691 83.205 528.443 82.365 527.947 81.805C527.451 81.245 526.627 80.965 525.475 80.965C525.027 80.965 524.619 81.037 524.251 81.181C523.883 81.309 523.547 81.485 523.243 81.709C522.955 81.933 522.707 82.189 522.499 82.477C522.291 82.765 522.131 83.069 522.019 83.389C521.875 83.789 521.787 84.173 521.755 84.541C521.723 84.909 521.707 85.309 521.707 85.741V92.437H520.267ZM541.531 92.437H540.091V80.005H541.531V81.877H541.579C541.947 81.157 542.475 80.613 543.163 80.245C543.851 79.861 544.603 79.669 545.419 79.669C545.995 79.669 546.483 79.733 546.883 79.861C547.283 79.989 547.619 80.165 547.891 80.389C548.179 80.597 548.411 80.845 548.587 81.133C548.779 81.421 548.939 81.733 549.067 82.069C549.483 81.253 550.035 80.653 550.723 80.269C551.427 79.869 552.227 79.669 553.123 79.669C553.971 79.669 554.643 79.813 555.139 80.101C555.651 80.373 556.043 80.741 556.315 81.205C556.587 81.653 556.763 82.173 556.843 82.765C556.939 83.357 556.987 83.965 556.987 84.589V92.437H555.547V83.845C555.547 82.949 555.355 82.245 554.971 81.733C554.603 81.221 553.907 80.965 552.883 80.965C552.355 80.965 551.843 81.085 551.347 81.325C550.867 81.549 550.443 81.901 550.075 82.381C549.915 82.589 549.779 82.837 549.667 83.125C549.571 83.397 549.491 83.685 549.427 83.989C549.363 84.293 549.315 84.597 549.283 84.901C549.267 85.205 549.259 85.485 549.259 85.741V92.437H547.819V83.845C547.819 82.949 547.627 82.245 547.243 81.733C546.875 81.221 546.179 80.965 545.155 80.965C544.627 80.965 544.115 81.085 543.619 81.325C543.139 81.549 542.715 81.901 542.347 82.381C542.187 82.589 542.051 82.837 541.939 83.125C541.843 83.397 541.763 83.685 541.699 83.989C541.635 84.293 541.587 84.597 541.555 84.901C541.539 85.205 541.531 85.485 541.531 85.741V92.437ZM560.179 95.821C560.371 95.853 560.563 95.885 560.755 95.917C560.963 95.949 561.171 95.965 561.379 95.965C561.779 95.965 562.107 95.837 562.363 95.581C562.619 95.325 562.827 95.013 562.987 94.645C563.163 94.293 563.307 93.917 563.419 93.517C563.531 93.133 563.659 92.805 563.803 92.533L558.979 80.005H560.587L564.571 90.685L568.555 80.005H570.115L565.483 92.269C565.195 93.053 564.915 93.757 564.643 94.381C564.387 95.005 564.107 95.533 563.803 95.965C563.515 96.413 563.187 96.749 562.819 96.973C562.467 97.213 562.043 97.333 561.547 97.333C561.291 97.333 561.043 97.317 560.803 97.285C560.579 97.253 560.371 97.213 560.179 97.165V95.821ZM583.323 92.485C583.147 92.517 582.915 92.573 582.627 92.653C582.339 92.733 582.019 92.773 581.667 92.773C580.947 92.773 580.395 92.597 580.011 92.245C579.643 91.877 579.459 91.229 579.459 90.301V81.205H577.707V80.005H579.459V76.549H580.899V80.005H583.227V81.205H580.899V89.725C580.899 90.029 580.907 90.293 580.923 90.517C580.939 90.741 580.987 90.925 581.067 91.069C581.147 91.213 581.267 91.317 581.427 91.381C581.603 91.445 581.843 91.477 582.147 91.477C582.339 91.477 582.531 91.461 582.723 91.429C582.931 91.397 583.131 91.357 583.323 91.309V92.485ZM585.634 92.437V75.157H587.074V81.733C587.65 81.125 588.242 80.629 588.85 80.245C589.474 79.861 590.218 79.669 591.082 79.669C591.85 79.669 592.562 79.805 593.218 80.077C593.874 80.333 594.426 80.789 594.874 81.445C595.178 81.893 595.354 82.357 595.402 82.837C595.466 83.301 595.498 83.789 595.498 84.301V92.437H594.058V84.325C594.058 83.205 593.81 82.365 593.314 81.805C592.818 81.245 591.994 80.965 590.842 80.965C590.394 80.965 589.986 81.037 589.618 81.181C589.25 81.309 588.914 81.485 588.61 81.709C588.322 81.933 588.074 82.189 587.866 82.477C587.658 82.765 587.498 83.069 587.386 83.389C587.242 83.789 587.154 84.173 587.122 84.541C587.09 84.909 587.074 85.309 587.074 85.741V92.437H585.634ZM603.914 92.773C603.114 92.757 602.362 92.613 601.658 92.341C600.97 92.069 600.362 91.661 599.834 91.117C599.322 90.573 598.914 89.893 598.61 89.077C598.306 88.261 598.154 87.309 598.154 86.221C598.154 85.309 598.274 84.461 598.514 83.677C598.754 82.877 599.114 82.181 599.594 81.589C600.074 80.997 600.674 80.533 601.394 80.197C602.114 79.845 602.954 79.669 603.914 79.669C604.89 79.669 605.738 79.845 606.458 80.197C607.178 80.533 607.778 80.997 608.258 81.589C608.738 82.165 609.09 82.853 609.314 83.653C609.554 84.453 609.674 85.309 609.674 86.221C609.674 87.213 609.538 88.109 609.266 88.909C608.994 89.709 608.602 90.397 608.09 90.973C607.594 91.549 606.986 91.997 606.266 92.317C605.562 92.621 604.778 92.773 603.914 92.773ZM608.138 86.221C608.138 85.485 608.058 84.797 607.898 84.157C607.738 83.517 607.49 82.965 607.154 82.501C606.818 82.021 606.386 81.645 605.858 81.373C605.33 81.101 604.682 80.965 603.914 80.965C603.162 80.965 602.514 81.117 601.97 81.421C601.442 81.709 601.01 82.101 600.674 82.597C600.338 83.077 600.09 83.637 599.93 84.277C599.77 84.901 599.69 85.549 599.69 86.221C599.69 86.989 599.778 87.701 599.954 88.357C600.146 88.997 600.418 89.549 600.77 90.013C601.122 90.477 601.562 90.837 602.09 91.093C602.618 91.349 603.226 91.477 603.914 91.477C604.666 91.477 605.306 91.333 605.834 91.045C606.378 90.741 606.818 90.341 607.154 89.845C607.49 89.349 607.738 88.789 607.898 88.165C608.058 87.541 608.138 86.893 608.138 86.221ZM613.818 92.437H612.378V80.005H613.818V82.333H613.866C614.266 81.341 614.778 80.653 615.402 80.269C616.042 79.869 616.882 79.669 617.922 79.669V81.229C617.106 81.213 616.434 81.341 615.906 81.613C615.378 81.885 614.954 82.253 614.634 82.717C614.33 83.181 614.114 83.733 613.986 84.373C613.874 84.997 613.818 85.653 613.818 86.341V92.437ZM624.82 92.773C624.02 92.757 623.268 92.613 622.564 92.341C621.876 92.069 621.268 91.661 620.74 91.117C620.228 90.573 619.82 89.893 619.516 89.077C619.212 88.261 619.06 87.309 619.06 86.221C619.06 85.309 619.18 84.461 619.42 83.677C619.66 82.877 620.02 82.181 620.5 81.589C620.98 80.997 621.58 80.533 622.3 80.197C623.02 79.845 623.86 79.669 624.82 79.669C625.796 79.669 626.644 79.845 627.364 80.197C628.084 80.533 628.684 80.997 629.164 81.589C629.644 82.165 629.996 82.853 630.22 83.653C630.46 84.453 630.58 85.309 630.58 86.221C630.58 87.213 630.444 88.109 630.172 88.909C629.9 89.709 629.508 90.397 628.996 90.973C628.5 91.549 627.892 91.997 627.172 92.317C626.468 92.621 625.684 92.773 624.82 92.773ZM629.044 86.221C629.044 85.485 628.964 84.797 628.804 84.157C628.644 83.517 628.396 82.965 628.06 82.501C627.724 82.021 627.292 81.645 626.764 81.373C626.236 81.101 625.588 80.965 624.82 80.965C624.068 80.965 623.42 81.117 622.876 81.421C622.348 81.709 621.916 82.101 621.58 82.597C621.244 83.077 620.996 83.637 620.836 84.277C620.676 84.901 620.596 85.549 620.596 86.221C620.596 86.989 620.684 87.701 620.86 88.357C621.052 88.997 621.324 89.549 621.676 90.013C622.028 90.477 622.468 90.837 622.996 91.093C623.524 91.349 624.132 91.477 624.82 91.477C625.572 91.477 626.212 91.333 626.74 91.045C627.284 90.741 627.724 90.341 628.06 89.845C628.396 89.349 628.644 88.789 628.804 88.165C628.964 87.541 629.044 86.893 629.044 86.221ZM641.636 80.005H643.076V92.437H641.636V90.709C641.444 90.933 641.228 91.165 640.988 91.405C640.748 91.645 640.468 91.869 640.148 92.077C639.844 92.269 639.484 92.429 639.068 92.557C638.652 92.701 638.172 92.773 637.628 92.773C636.796 92.773 636.1 92.661 635.54 92.437C634.98 92.197 634.524 91.869 634.172 91.453C633.836 91.037 633.588 90.557 633.428 90.013C633.284 89.453 633.212 88.845 633.212 88.189V80.005H634.652V88.165C634.652 89.237 634.9 90.061 635.396 90.637C635.892 91.197 636.708 91.477 637.844 91.477C638.436 91.477 638.964 91.365 639.428 91.141C639.908 90.901 640.308 90.573 640.628 90.157C640.948 89.741 641.196 89.245 641.372 88.669C641.548 88.093 641.636 87.461 641.636 86.773V80.005ZM656.148 86.269C656.148 85.517 656.052 84.821 655.86 84.181C655.684 83.525 655.42 82.965 655.068 82.501C654.716 82.021 654.276 81.645 653.748 81.373C653.22 81.101 652.62 80.965 651.948 80.965C651.34 80.965 650.78 81.077 650.268 81.301C649.756 81.509 649.308 81.821 648.924 82.237C648.54 82.653 648.236 83.165 648.012 83.773C647.804 84.365 647.7 85.053 647.7 85.837C647.668 86.621 647.732 87.357 647.892 88.045C648.052 88.717 648.308 89.309 648.66 89.821C649.012 90.333 649.46 90.741 650.004 91.045C650.548 91.333 651.196 91.477 651.948 91.477C652.604 91.477 653.188 91.341 653.7 91.069C654.228 90.781 654.668 90.405 655.02 89.941C655.388 89.461 655.668 88.909 655.86 88.285C656.052 87.645 656.148 86.973 656.148 86.269ZM656.148 80.005H657.588V91.237C657.588 92.069 657.5 92.861 657.324 93.613C657.164 94.381 656.868 95.053 656.436 95.629C656.004 96.205 655.412 96.661 654.66 96.997C653.908 97.349 652.94 97.525 651.756 97.525C650.844 97.525 650.06 97.405 649.404 97.165C648.748 96.941 648.212 96.653 647.796 96.301C647.38 95.949 647.06 95.557 646.836 95.125C646.628 94.709 646.516 94.317 646.5 93.949H648.036C648.148 94.413 648.324 94.789 648.564 95.077C648.804 95.381 649.084 95.613 649.404 95.773C649.74 95.949 650.108 96.069 650.508 96.133C650.908 96.197 651.324 96.229 651.756 96.229C652.732 96.229 653.516 96.061 654.108 95.725C654.7 95.389 655.148 94.949 655.452 94.405C655.756 93.861 655.948 93.245 656.028 92.557C656.124 91.869 656.164 91.165 656.148 90.445C655.684 91.213 655.044 91.797 654.228 92.197C653.428 92.581 652.588 92.773 651.708 92.773C650.764 92.773 649.94 92.597 649.236 92.245C648.548 91.877 647.972 91.397 647.508 90.805C647.06 90.197 646.724 89.493 646.5 88.693C646.276 87.893 646.164 87.061 646.164 86.197C646.164 85.285 646.268 84.429 646.476 83.629C646.684 82.829 647.012 82.141 647.46 81.565C647.924 80.973 648.508 80.509 649.212 80.173C649.916 79.837 650.772 79.669 651.78 79.669C652.18 79.669 652.588 79.725 653.004 79.837C653.42 79.949 653.82 80.109 654.204 80.317C654.604 80.525 654.964 80.789 655.284 81.109C655.62 81.429 655.892 81.789 656.1 82.189H656.148V80.005ZM661.22 92.437V75.157H662.66V81.733C663.236 81.125 663.828 80.629 664.436 80.245C665.06 79.861 665.804 79.669 666.668 79.669C667.436 79.669 668.148 79.805 668.804 80.077C669.46 80.333 670.012 80.789 670.46 81.445C670.764 81.893 670.94 82.357 670.988 82.837C671.052 83.301 671.084 83.789 671.084 84.301V92.437H669.644V84.325C669.644 83.205 669.396 82.365 668.9 81.805C668.404 81.245 667.58 80.965 666.428 80.965C665.98 80.965 665.572 81.037 665.204 81.181C664.836 81.309 664.5 81.485 664.196 81.709C663.908 81.933 663.66 82.189 663.452 82.477C663.244 82.765 663.084 83.069 662.972 83.389C662.828 83.789 662.74 84.173 662.708 84.541C662.676 84.909 662.66 85.309 662.66 85.741V92.437H661.22ZM11.036 111.917C10.78 110.989 10.34 110.269 9.716 109.757C9.092 109.229 8.3 108.965 7.34 108.965C6.604 108.965 5.972 109.117 5.444 109.421C4.916 109.725 4.484 110.133 4.148 110.645C3.812 111.141 3.564 111.709 3.404 112.349C3.244 112.973 3.164 113.605 3.164 114.245C3.164 114.901 3.236 115.541 3.38 116.165C3.54 116.789 3.788 117.349 4.124 117.845C4.46 118.341 4.892 118.741 5.42 119.045C5.948 119.333 6.588 119.477 7.34 119.477C8.412 119.477 9.268 119.181 9.908 118.589C10.564 117.997 10.98 117.181 11.156 116.141H12.692C12.564 116.829 12.356 117.461 12.068 118.037C11.796 118.597 11.436 119.085 10.988 119.501C10.556 119.901 10.036 120.213 9.428 120.437C8.82 120.661 8.124 120.773 7.34 120.773C6.348 120.773 5.492 120.605 4.772 120.269C4.052 119.933 3.46 119.477 2.996 118.901C2.532 118.309 2.188 117.613 1.964 116.813C1.74 116.013 1.628 115.157 1.628 114.245C1.628 113.381 1.748 112.557 1.988 111.773C2.244 110.973 2.612 110.269 3.092 109.661C3.572 109.053 4.164 108.573 4.868 108.221C5.588 107.853 6.412 107.669 7.34 107.669C8.78 107.669 9.94 108.013 10.82 108.701C11.716 109.389 12.276 110.461 12.5 111.917H11.036ZM23.6999 113.909C23.0919 114.165 22.4759 114.333 21.8519 114.413C21.2279 114.493 20.6039 114.557 19.9799 114.605C18.8759 114.685 18.0119 114.933 17.3879 115.349C16.7799 115.765 16.4759 116.397 16.4759 117.245C16.4759 117.629 16.5479 117.965 16.6919 118.253C16.8519 118.525 17.0519 118.757 17.2919 118.949C17.5479 119.125 17.8359 119.261 18.1559 119.357C18.4919 119.437 18.8279 119.477 19.1639 119.477C19.7399 119.477 20.2999 119.405 20.8439 119.261C21.3879 119.117 21.8679 118.901 22.2839 118.613C22.7159 118.309 23.0599 117.933 23.3159 117.485C23.5719 117.021 23.6999 116.477 23.6999 115.853V113.909ZM21.2759 113.189C21.5479 113.157 21.8679 113.109 22.2359 113.045C22.6199 112.981 22.9319 112.893 23.1719 112.781C23.4119 112.669 23.5559 112.485 23.6039 112.229C23.6679 111.957 23.6999 111.709 23.6999 111.485C23.6999 110.749 23.4599 110.149 22.9799 109.685C22.5159 109.205 21.7239 108.965 20.6039 108.965C20.1079 108.965 19.6519 109.013 19.2359 109.109C18.8199 109.189 18.4519 109.341 18.1319 109.565C17.8279 109.773 17.5719 110.061 17.3639 110.429C17.1719 110.781 17.0439 111.229 16.9799 111.773H15.5159C15.5639 111.037 15.7319 110.413 16.0199 109.901C16.3079 109.373 16.6759 108.949 17.1239 108.629C17.5879 108.293 18.1159 108.053 18.7079 107.909C19.3159 107.749 19.9559 107.669 20.6279 107.669C21.2519 107.669 21.8359 107.741 22.3799 107.885C22.9399 108.013 23.4199 108.229 23.8199 108.533C24.2359 108.821 24.5559 109.213 24.7799 109.709C25.0199 110.205 25.1399 110.813 25.1399 111.533V118.301C25.1399 118.861 25.2359 119.221 25.4279 119.381C25.6359 119.525 26.0439 119.485 26.6519 119.261V120.389C26.5399 120.421 26.3719 120.469 26.1479 120.533C25.9399 120.597 25.7319 120.629 25.5239 120.629C25.2999 120.629 25.0839 120.605 24.8759 120.557C24.6359 120.525 24.4439 120.453 24.2999 120.341C24.1559 120.213 24.0359 120.069 23.9399 119.909C23.8599 119.733 23.8039 119.549 23.7719 119.357C23.7399 119.149 23.7239 118.933 23.7239 118.709C23.1159 119.381 22.4199 119.893 21.6359 120.245C20.8519 120.597 20.0039 120.773 19.0919 120.773C18.5479 120.773 18.0199 120.701 17.5079 120.557C17.0119 120.413 16.5719 120.189 16.1879 119.885C15.8039 119.581 15.4999 119.213 15.2759 118.781C15.0519 118.333 14.9399 117.805 14.9399 117.197C14.9399 115.085 16.3879 113.837 19.2839 113.453L21.2759 113.189ZM29.7399 116.549C29.9639 117.621 30.3639 118.381 30.9399 118.829C31.5319 119.261 32.3719 119.477 33.4599 119.477C33.9879 119.477 34.4439 119.413 34.8279 119.285C35.2119 119.157 35.5239 118.989 35.7639 118.781C36.0199 118.557 36.2119 118.309 36.3399 118.037C36.4679 117.765 36.5319 117.477 36.5319 117.173C36.5319 116.565 36.3319 116.117 35.9319 115.829C35.5479 115.525 35.0599 115.293 34.4679 115.133C33.8759 114.957 33.2359 114.813 32.5479 114.701C31.8599 114.573 31.2199 114.389 30.6279 114.149C30.0359 113.909 29.5399 113.565 29.1399 113.117C28.7559 112.669 28.5639 112.037 28.5639 111.221C28.5639 110.181 28.9399 109.333 29.6919 108.677C30.4599 108.005 31.5399 107.669 32.9319 107.669C34.2759 107.669 35.3639 107.973 36.1959 108.581C37.0439 109.173 37.5559 110.173 37.7319 111.581H36.2679C36.1399 110.621 35.7719 109.949 35.1639 109.565C34.5719 109.165 33.8199 108.965 32.9079 108.965C31.9959 108.965 31.2999 109.165 30.8199 109.565C30.3399 109.949 30.0999 110.461 30.0999 111.101C30.0999 111.661 30.2919 112.093 30.6759 112.397C31.0759 112.685 31.5719 112.925 32.1639 113.117C32.7559 113.293 33.3959 113.453 34.0839 113.597C34.7719 113.741 35.4119 113.949 36.0039 114.221C36.5959 114.477 37.0839 114.829 37.4679 115.277C37.8679 115.725 38.0679 116.349 38.0679 117.149C38.0679 117.741 37.9399 118.269 37.6839 118.733C37.4279 119.181 37.0759 119.557 36.6279 119.861C36.1799 120.165 35.6439 120.389 35.0199 120.533C34.4119 120.693 33.7399 120.773 33.0039 120.773C32.2679 120.773 31.6119 120.661 31.0359 120.437C30.4759 120.229 29.9959 119.933 29.5959 119.549C29.1959 119.165 28.8839 118.717 28.6599 118.205C28.4359 117.693 28.3079 117.141 28.2759 116.549H29.7399ZM49.8999 113.357C49.8999 112.749 49.8119 112.181 49.6359 111.653C49.4759 111.109 49.2279 110.645 48.8919 110.261C48.5719 109.861 48.1639 109.549 47.6679 109.325C47.1719 109.085 46.6039 108.965 45.9639 108.965C45.3239 108.965 44.7559 109.085 44.2599 109.325C43.7799 109.565 43.3639 109.885 43.0119 110.285C42.6759 110.685 42.4039 111.149 42.1959 111.677C41.9879 112.205 41.8519 112.765 41.7879 113.357H49.8999ZM41.7879 114.557C41.7879 115.229 41.8759 115.869 42.0519 116.477C42.2279 117.069 42.4839 117.589 42.8199 118.037C43.1719 118.469 43.6119 118.821 44.1399 119.093C44.6679 119.349 45.2759 119.477 45.9639 119.477C46.9079 119.477 47.7159 119.229 48.3879 118.733C49.0599 118.237 49.5079 117.533 49.7319 116.621H51.3399C51.1639 117.213 50.9319 117.765 50.6439 118.277C50.3559 118.773 49.9959 119.213 49.5639 119.597C49.1319 119.965 48.6199 120.253 48.0279 120.461C47.4359 120.669 46.7479 120.773 45.9639 120.773C44.9719 120.773 44.1159 120.605 43.3959 120.269C42.6759 119.933 42.0839 119.477 41.6199 118.901C41.1559 118.309 40.8119 117.621 40.5879 116.837C40.3639 116.037 40.2519 115.181 40.2519 114.269C40.2519 113.357 40.3799 112.501 40.6359 111.701C40.9079 110.901 41.2839 110.205 41.7639 109.613C42.2599 109.005 42.8599 108.533 43.5639 108.197C44.2679 107.845 45.0679 107.669 45.9639 107.669C47.6759 107.669 49.0199 108.261 49.9959 109.445C50.9719 110.613 51.4519 112.317 51.4359 114.557H41.7879ZM61.7555 116.549C61.9795 117.621 62.3795 118.381 62.9555 118.829C63.5475 119.261 64.3875 119.477 65.4755 119.477C66.0035 119.477 66.4595 119.413 66.8435 119.285C67.2275 119.157 67.5395 118.989 67.7795 118.781C68.0355 118.557 68.2275 118.309 68.3555 118.037C68.4835 117.765 68.5475 117.477 68.5475 117.173C68.5475 116.565 68.3475 116.117 67.9475 115.829C67.5635 115.525 67.0755 115.293 66.4835 115.133C65.8915 114.957 65.2515 114.813 64.5635 114.701C63.8755 114.573 63.2355 114.389 62.6435 114.149C62.0515 113.909 61.5555 113.565 61.1555 113.117C60.7715 112.669 60.5795 112.037 60.5795 111.221C60.5795 110.181 60.9555 109.333 61.7075 108.677C62.4755 108.005 63.5555 107.669 64.9475 107.669C66.2915 107.669 67.3795 107.973 68.2115 108.581C69.0595 109.173 69.5715 110.173 69.7475 111.581H68.2835C68.1555 110.621 67.7875 109.949 67.1795 109.565C66.5875 109.165 65.8355 108.965 64.9235 108.965C64.0115 108.965 63.3155 109.165 62.8355 109.565C62.3555 109.949 62.1155 110.461 62.1155 111.101C62.1155 111.661 62.3075 112.093 62.6915 112.397C63.0915 112.685 63.5875 112.925 64.1795 113.117C64.7715 113.293 65.4115 113.453 66.0995 113.597C66.7875 113.741 67.4275 113.949 68.0195 114.221C68.6115 114.477 69.0995 114.829 69.4835 115.277C69.8835 115.725 70.0835 116.349 70.0835 117.149C70.0835 117.741 69.9555 118.269 69.6995 118.733C69.4435 119.181 69.0915 119.557 68.6435 119.861C68.1955 120.165 67.6595 120.389 67.0355 120.533C66.4275 120.693 65.7555 120.773 65.0195 120.773C64.2835 120.773 63.6275 120.661 63.0515 120.437C62.4915 120.229 62.0115 119.933 61.6115 119.549C61.2115 119.165 60.8995 118.717 60.6755 118.205C60.4515 117.693 60.3235 117.141 60.2915 116.549H61.7555ZM77.2835 120.485C77.1075 120.517 76.8755 120.573 76.5875 120.653C76.2995 120.733 75.9795 120.773 75.6275 120.773C74.9075 120.773 74.3555 120.597 73.9715 120.245C73.6035 119.877 73.4195 119.229 73.4195 118.301V109.205H71.6675V108.005H73.4195V104.549H74.8595V108.005H77.1875V109.205H74.8595V117.725C74.8595 118.029 74.8675 118.293 74.8835 118.517C74.8995 118.741 74.9475 118.925 75.0275 119.069C75.1075 119.213 75.2275 119.317 75.3875 119.381C75.5635 119.445 75.8035 119.477 76.1075 119.477C76.2995 119.477 76.4915 119.461 76.6835 119.429C76.8915 119.397 77.0915 119.357 77.2835 119.309V120.485ZM88.0192 108.005H89.4592V120.437H88.0192V118.709C87.8272 118.933 87.6112 119.165 87.3712 119.405C87.1312 119.645 86.8512 119.869 86.5312 120.077C86.2272 120.269 85.8672 120.429 85.4512 120.557C85.0352 120.701 84.5552 120.773 84.0112 120.773C83.1792 120.773 82.4832 120.661 81.9232 120.437C81.3632 120.197 80.9072 119.869 80.5552 119.453C80.2192 119.037 79.9712 118.557 79.8112 118.013C79.6672 117.453 79.5952 116.845 79.5952 116.189V108.005H81.0352V116.165C81.0352 117.237 81.2832 118.061 81.7792 118.637C82.2752 119.197 83.0912 119.477 84.2272 119.477C84.8192 119.477 85.3472 119.365 85.8112 119.141C86.2912 118.901 86.6912 118.573 87.0112 118.157C87.3312 117.741 87.5792 117.245 87.7552 116.669C87.9312 116.093 88.0192 115.461 88.0192 114.773V108.005ZM102.531 114.173C102.531 113.469 102.435 112.805 102.243 112.181C102.051 111.541 101.771 110.989 101.403 110.525C101.051 110.045 100.611 109.669 100.083 109.397C99.5711 109.109 98.9871 108.965 98.3311 108.965C97.5791 108.965 96.9311 109.117 96.3871 109.421C95.8431 109.709 95.3951 110.109 95.0431 110.621C94.6911 111.133 94.4351 111.733 94.2751 112.421C94.1151 113.093 94.0511 113.821 94.0831 114.605C94.0831 115.389 94.1871 116.085 94.3951 116.693C94.6191 117.285 94.9231 117.789 95.3071 118.205C95.6911 118.621 96.1391 118.941 96.6511 119.165C97.1631 119.373 97.7231 119.477 98.3311 119.477C99.0031 119.477 99.6031 119.341 100.131 119.069C100.659 118.797 101.099 118.429 101.451 117.965C101.803 117.485 102.067 116.925 102.243 116.285C102.435 115.629 102.531 114.925 102.531 114.173ZM102.531 103.157H103.971V120.437H102.531V118.253H102.483C102.275 118.669 102.003 119.037 101.667 119.357C101.347 119.661 100.987 119.917 100.587 120.125C100.203 120.333 99.8031 120.493 99.3871 120.605C98.9711 120.717 98.5631 120.773 98.1631 120.773C97.1551 120.773 96.2991 120.605 95.5951 120.269C94.8911 119.933 94.3071 119.477 93.8431 118.901C93.3951 118.309 93.0671 117.613 92.8591 116.813C92.6511 116.013 92.5471 115.157 92.5471 114.245C92.5471 113.381 92.6591 112.549 92.8831 111.749C93.1071 110.949 93.4431 110.253 93.8911 109.661C94.3551 109.053 94.9311 108.573 95.6191 108.221C96.3231 107.853 97.1471 107.669 98.0911 107.669C98.9711 107.669 99.8111 107.869 100.611 108.269C101.427 108.653 102.067 109.229 102.531 109.997V103.157ZM107.397 120.437V108.005H108.837V120.437H107.397ZM107.325 105.293V103.157H108.909V105.293H107.325ZM121.501 113.357C121.501 112.749 121.413 112.181 121.237 111.653C121.077 111.109 120.829 110.645 120.493 110.261C120.173 109.861 119.765 109.549 119.269 109.325C118.773 109.085 118.205 108.965 117.565 108.965C116.925 108.965 116.357 109.085 115.861 109.325C115.381 109.565 114.965 109.885 114.613 110.285C114.277 110.685 114.005 111.149 113.797 111.677C113.589 112.205 113.453 112.765 113.389 113.357H121.501ZM113.389 114.557C113.389 115.229 113.477 115.869 113.653 116.477C113.829 117.069 114.085 117.589 114.421 118.037C114.773 118.469 115.213 118.821 115.741 119.093C116.269 119.349 116.877 119.477 117.565 119.477C118.509 119.477 119.317 119.229 119.989 118.733C120.661 118.237 121.109 117.533 121.333 116.621H122.941C122.765 117.213 122.533 117.765 122.245 118.277C121.957 118.773 121.597 119.213 121.165 119.597C120.733 119.965 120.221 120.253 119.629 120.461C119.037 120.669 118.349 120.773 117.565 120.773C116.573 120.773 115.717 120.605 114.997 120.269C114.277 119.933 113.685 119.477 113.221 118.901C112.757 118.309 112.413 117.621 112.189 116.837C111.965 116.037 111.853 115.181 111.853 114.269C111.853 113.357 111.981 112.501 112.237 111.701C112.509 110.901 112.885 110.205 113.365 109.613C113.861 109.005 114.461 108.533 115.165 108.197C115.869 107.845 116.669 107.669 117.565 107.669C119.277 107.669 120.621 108.261 121.597 109.445C122.573 110.613 123.053 112.317 123.037 114.557H113.389ZM126.677 116.549C126.901 117.621 127.301 118.381 127.877 118.829C128.469 119.261 129.309 119.477 130.397 119.477C130.925 119.477 131.381 119.413 131.765 119.285C132.149 119.157 132.461 118.989 132.701 118.781C132.957 118.557 133.149 118.309 133.277 118.037C133.405 117.765 133.469 117.477 133.469 117.173C133.469 116.565 133.269 116.117 132.869 115.829C132.485 115.525 131.997 115.293 131.405 115.133C130.813 114.957 130.173 114.813 129.485 114.701C128.797 114.573 128.157 114.389 127.565 114.149C126.973 113.909 126.477 113.565 126.077 113.117C125.693 112.669 125.501 112.037 125.501 111.221C125.501 110.181 125.877 109.333 126.629 108.677C127.397 108.005 128.477 107.669 129.869 107.669C131.213 107.669 132.301 107.973 133.133 108.581C133.981 109.173 134.493 110.173 134.669 111.581H133.205C133.077 110.621 132.709 109.949 132.101 109.565C131.509 109.165 130.757 108.965 129.845 108.965C128.933 108.965 128.237 109.165 127.757 109.565C127.277 109.949 127.037 110.461 127.037 111.101C127.037 111.661 127.229 112.093 127.613 112.397C128.013 112.685 128.509 112.925 129.101 113.117C129.693 113.293 130.333 113.453 131.021 113.597C131.709 113.741 132.349 113.949 132.941 114.221C133.533 114.477 134.021 114.829 134.405 115.277C134.805 115.725 135.005 116.349 135.005 117.149C135.005 117.741 134.877 118.269 134.621 118.733C134.365 119.181 134.013 119.557 133.565 119.861C133.117 120.165 132.581 120.389 131.957 120.533C131.349 120.693 130.677 120.773 129.941 120.773C129.205 120.773 128.549 120.661 127.973 120.437C127.413 120.229 126.933 119.933 126.533 119.549C126.133 119.165 125.821 118.717 125.597 118.205C125.373 117.693 125.245 117.141 125.213 116.549H126.677ZM140.309 121.157C140.309 121.861 140.141 122.421 139.805 122.837C139.485 123.269 139.069 123.565 138.557 123.725V122.837C138.749 122.709 138.933 122.533 139.109 122.309C139.285 122.085 139.373 121.733 139.373 121.253V120.437H138.557V118.325H140.309V121.157ZM151.197 120.437V103.157H152.637V109.733C153.213 109.125 153.805 108.629 154.413 108.245C155.037 107.861 155.781 107.669 156.645 107.669C157.413 107.669 158.125 107.805 158.781 108.077C159.437 108.333 159.989 108.789 160.437 109.445C160.741 109.893 160.917 110.357 160.965 110.837C161.029 111.301 161.061 111.789 161.061 112.301V120.437H159.621V112.325C159.621 111.205 159.373 110.365 158.877 109.805C158.381 109.245 157.557 108.965 156.405 108.965C155.957 108.965 155.549 109.037 155.181 109.181C154.813 109.309 154.477 109.485 154.173 109.709C153.885 109.933 153.637 110.189 153.429 110.477C153.221 110.765 153.061 111.069 152.949 111.389C152.805 111.789 152.717 112.173 152.685 112.541C152.653 112.909 152.637 113.309 152.637 113.741V120.437H151.197ZM172.669 113.909C172.061 114.165 171.445 114.333 170.821 114.413C170.197 114.493 169.573 114.557 168.949 114.605C167.845 114.685 166.981 114.933 166.357 115.349C165.749 115.765 165.445 116.397 165.445 117.245C165.445 117.629 165.517 117.965 165.661 118.253C165.821 118.525 166.021 118.757 166.261 118.949C166.517 119.125 166.805 119.261 167.125 119.357C167.461 119.437 167.797 119.477 168.133 119.477C168.709 119.477 169.269 119.405 169.813 119.261C170.357 119.117 170.837 118.901 171.253 118.613C171.685 118.309 172.029 117.933 172.285 117.485C172.541 117.021 172.669 116.477 172.669 115.853V113.909ZM170.245 113.189C170.517 113.157 170.837 113.109 171.205 113.045C171.589 112.981 171.901 112.893 172.141 112.781C172.381 112.669 172.525 112.485 172.573 112.229C172.637 111.957 172.669 111.709 172.669 111.485C172.669 110.749 172.429 110.149 171.949 109.685C171.485 109.205 170.693 108.965 169.573 108.965C169.077 108.965 168.621 109.013 168.205 109.109C167.789 109.189 167.421 109.341 167.101 109.565C166.797 109.773 166.541 110.061 166.333 110.429C166.141 110.781 166.013 111.229 165.949 111.773H164.485C164.533 111.037 164.701 110.413 164.989 109.901C165.277 109.373 165.645 108.949 166.093 108.629C166.557 108.293 167.085 108.053 167.677 107.909C168.285 107.749 168.925 107.669 169.597 107.669C170.221 107.669 170.805 107.741 171.349 107.885C171.909 108.013 172.389 108.229 172.789 108.533C173.205 108.821 173.525 109.213 173.749 109.709C173.989 110.205 174.109 110.813 174.109 111.533V118.301C174.109 118.861 174.205 119.221 174.397 119.381C174.605 119.525 175.013 119.485 175.621 119.261V120.389C175.509 120.421 175.341 120.469 175.117 120.533C174.909 120.597 174.701 120.629 174.493 120.629C174.269 120.629 174.053 120.605 173.845 120.557C173.605 120.525 173.413 120.453 173.269 120.341C173.125 120.213 173.005 120.069 172.909 119.909C172.829 119.733 172.773 119.549 172.741 119.357C172.709 119.149 172.693 118.933 172.693 118.709C172.085 119.381 171.389 119.893 170.605 120.245C169.821 120.597 168.973 120.773 168.061 120.773C167.517 120.773 166.989 120.701 166.477 120.557C165.981 120.413 165.541 120.189 165.157 119.885C164.773 119.581 164.469 119.213 164.245 118.781C164.021 118.333 163.909 117.805 163.909 117.197C163.909 115.085 165.357 113.837 168.253 113.453L170.245 113.189ZM176.549 108.005H178.109L182.141 118.661L186.173 108.005H187.733L182.909 120.437H181.301L176.549 108.005ZM198.869 113.357C198.869 112.749 198.781 112.181 198.605 111.653C198.445 111.109 198.197 110.645 197.861 110.261C197.541 109.861 197.133 109.549 196.637 109.325C196.141 109.085 195.573 108.965 194.933 108.965C194.293 108.965 193.725 109.085 193.229 109.325C192.749 109.565 192.333 109.885 191.981 110.285C191.645 110.685 191.373 111.149 191.165 111.677C190.957 112.205 190.821 112.765 190.757 113.357H198.869ZM190.757 114.557C190.757 115.229 190.845 115.869 191.021 116.477C191.197 117.069 191.453 117.589 191.789 118.037C192.141 118.469 192.581 118.821 193.109 119.093C193.637 119.349 194.245 119.477 194.933 119.477C195.877 119.477 196.685 119.229 197.357 118.733C198.029 118.237 198.477 117.533 198.701 116.621H200.309C200.133 117.213 199.901 117.765 199.613 118.277C199.325 118.773 198.965 119.213 198.533 119.597C198.101 119.965 197.589 120.253 196.997 120.461C196.405 120.669 195.717 120.773 194.933 120.773C193.941 120.773 193.085 120.605 192.365 120.269C191.645 119.933 191.053 119.477 190.589 118.901C190.125 118.309 189.781 117.621 189.557 116.837C189.333 116.037 189.221 115.181 189.221 114.269C189.221 113.357 189.349 112.501 189.605 111.701C189.877 110.901 190.253 110.205 190.733 109.613C191.229 109.005 191.829 108.533 192.533 108.197C193.237 107.845 194.037 107.669 194.933 107.669C196.645 107.669 197.989 108.261 198.965 109.445C199.941 110.613 200.421 112.317 200.405 114.557H190.757ZM218.02 113.909C217.412 114.165 216.796 114.333 216.172 114.413C215.548 114.493 214.924 114.557 214.3 114.605C213.196 114.685 212.332 114.933 211.708 115.349C211.1 115.765 210.796 116.397 210.796 117.245C210.796 117.629 210.868 117.965 211.012 118.253C211.172 118.525 211.372 118.757 211.612 118.949C211.868 119.125 212.156 119.261 212.476 119.357C212.812 119.437 213.148 119.477 213.484 119.477C214.06 119.477 214.62 119.405 215.164 119.261C215.708 119.117 216.188 118.901 216.604 118.613C217.036 118.309 217.38 117.933 217.636 117.485C217.892 117.021 218.02 116.477 218.02 115.853V113.909ZM215.596 113.189C215.868 113.157 216.188 113.109 216.556 113.045C216.94 112.981 217.252 112.893 217.492 112.781C217.732 112.669 217.876 112.485 217.924 112.229C217.988 111.957 218.02 111.709 218.02 111.485C218.02 110.749 217.78 110.149 217.3 109.685C216.836 109.205 216.044 108.965 214.924 108.965C214.428 108.965 213.972 109.013 213.556 109.109C213.14 109.189 212.772 109.341 212.452 109.565C212.148 109.773 211.892 110.061 211.684 110.429C211.492 110.781 211.364 111.229 211.3 111.773H209.836C209.884 111.037 210.052 110.413 210.34 109.901C210.628 109.373 210.996 108.949 211.444 108.629C211.908 108.293 212.436 108.053 213.028 107.909C213.636 107.749 214.276 107.669 214.948 107.669C215.572 107.669 216.156 107.741 216.7 107.885C217.26 108.013 217.74 108.229 218.14 108.533C218.556 108.821 218.876 109.213 219.1 109.709C219.34 110.205 219.46 110.813 219.46 111.533V118.301C219.46 118.861 219.556 119.221 219.748 119.381C219.956 119.525 220.364 119.485 220.972 119.261V120.389C220.86 120.421 220.692 120.469 220.468 120.533C220.26 120.597 220.052 120.629 219.844 120.629C219.62 120.629 219.404 120.605 219.196 120.557C218.956 120.525 218.764 120.453 218.62 120.341C218.476 120.213 218.356 120.069 218.26 119.909C218.18 119.733 218.124 119.549 218.092 119.357C218.06 119.149 218.044 118.933 218.044 118.709C217.436 119.381 216.74 119.893 215.956 120.245C215.172 120.597 214.324 120.773 213.412 120.773C212.868 120.773 212.34 120.701 211.828 120.557C211.332 120.413 210.892 120.189 210.508 119.885C210.124 119.581 209.82 119.213 209.596 118.781C209.372 118.333 209.26 117.805 209.26 117.197C209.26 115.085 210.708 113.837 213.604 113.453L215.596 113.189ZM230.116 120.437V103.157H231.556V120.437H230.116ZM240.164 120.773C239.364 120.757 238.612 120.613 237.908 120.341C237.22 120.069 236.612 119.661 236.084 119.117C235.572 118.573 235.164 117.893 234.86 117.077C234.556 116.261 234.404 115.309 234.404 114.221C234.404 113.309 234.524 112.461 234.764 111.677C235.004 110.877 235.364 110.181 235.844 109.589C236.324 108.997 236.924 108.533 237.644 108.197C238.364 107.845 239.204 107.669 240.164 107.669C241.14 107.669 241.988 107.845 242.708 108.197C243.428 108.533 244.028 108.997 244.508 109.589C244.988 110.165 245.34 110.853 245.564 111.653C245.804 112.453 245.924 113.309 245.924 114.221C245.924 115.213 245.788 116.109 245.516 116.909C245.244 117.709 244.852 118.397 244.34 118.973C243.844 119.549 243.236 119.997 242.516 120.317C241.812 120.621 241.028 120.773 240.164 120.773ZM244.388 114.221C244.388 113.485 244.308 112.797 244.148 112.157C243.988 111.517 243.74 110.965 243.404 110.501C243.068 110.021 242.636 109.645 242.108 109.373C241.58 109.101 240.932 108.965 240.164 108.965C239.412 108.965 238.764 109.117 238.22 109.421C237.692 109.709 237.26 110.101 236.924 110.597C236.588 111.077 236.34 111.637 236.18 112.277C236.02 112.901 235.94 113.549 235.94 114.221C235.94 114.989 236.028 115.701 236.204 116.357C236.396 116.997 236.668 117.549 237.02 118.013C237.372 118.477 237.812 118.837 238.34 119.093C238.868 119.349 239.476 119.477 240.164 119.477C240.916 119.477 241.556 119.333 242.084 119.045C242.628 118.741 243.068 118.341 243.404 117.845C243.74 117.349 243.988 116.789 244.148 116.165C244.308 115.541 244.388 114.893 244.388 114.221ZM253.5 120.773C252.7 120.757 251.948 120.613 251.244 120.341C250.556 120.069 249.948 119.661 249.42 119.117C248.908 118.573 248.5 117.893 248.196 117.077C247.892 116.261 247.74 115.309 247.74 114.221C247.74 113.309 247.86 112.461 248.1 111.677C248.34 110.877 248.7 110.181 249.18 109.589C249.66 108.997 250.26 108.533 250.98 108.197C251.7 107.845 252.54 107.669 253.5 107.669C254.476 107.669 255.324 107.845 256.044 108.197C256.764 108.533 257.364 108.997 257.844 109.589C258.324 110.165 258.676 110.853 258.9 111.653C259.14 112.453 259.26 113.309 259.26 114.221C259.26 115.213 259.124 116.109 258.852 116.909C258.58 117.709 258.188 118.397 257.676 118.973C257.18 119.549 256.572 119.997 255.852 120.317C255.148 120.621 254.364 120.773 253.5 120.773ZM257.724 114.221C257.724 113.485 257.644 112.797 257.484 112.157C257.324 111.517 257.076 110.965 256.74 110.501C256.404 110.021 255.972 109.645 255.444 109.373C254.916 109.101 254.268 108.965 253.5 108.965C252.748 108.965 252.1 109.117 251.556 109.421C251.028 109.709 250.596 110.101 250.26 110.597C249.924 111.077 249.676 111.637 249.516 112.277C249.356 112.901 249.276 113.549 249.276 114.221C249.276 114.989 249.364 115.701 249.54 116.357C249.732 116.997 250.004 117.549 250.356 118.013C250.708 118.477 251.148 118.837 251.676 119.093C252.204 119.349 252.812 119.477 253.5 119.477C254.252 119.477 254.892 119.333 255.42 119.045C255.964 118.741 256.404 118.341 256.74 117.845C257.076 117.349 257.324 116.789 257.484 116.165C257.644 115.541 257.724 114.893 257.724 114.221ZM261.796 120.437V103.157H263.236V113.909L269.332 108.005H271.3L266.644 112.493L271.852 120.437H270.244L265.588 113.501L263.236 115.733V120.437H261.796ZM288.708 113.909C288.1 114.165 287.484 114.333 286.86 114.413C286.236 114.493 285.612 114.557 284.988 114.605C283.884 114.685 283.02 114.933 282.396 115.349C281.788 115.765 281.484 116.397 281.484 117.245C281.484 117.629 281.556 117.965 281.7 118.253C281.86 118.525 282.06 118.757 282.3 118.949C282.556 119.125 282.844 119.261 283.164 119.357C283.5 119.437 283.836 119.477 284.172 119.477C284.748 119.477 285.308 119.405 285.852 119.261C286.396 119.117 286.876 118.901 287.292 118.613C287.724 118.309 288.068 117.933 288.324 117.485C288.58 117.021 288.708 116.477 288.708 115.853V113.909ZM286.284 113.189C286.556 113.157 286.876 113.109 287.244 113.045C287.628 112.981 287.94 112.893 288.18 112.781C288.42 112.669 288.564 112.485 288.612 112.229C288.676 111.957 288.708 111.709 288.708 111.485C288.708 110.749 288.468 110.149 287.988 109.685C287.524 109.205 286.732 108.965 285.612 108.965C285.116 108.965 284.66 109.013 284.244 109.109C283.828 109.189 283.46 109.341 283.14 109.565C282.836 109.773 282.58 110.061 282.372 110.429C282.18 110.781 282.052 111.229 281.988 111.773H280.524C280.572 111.037 280.74 110.413 281.028 109.901C281.316 109.373 281.684 108.949 282.132 108.629C282.596 108.293 283.124 108.053 283.716 107.909C284.324 107.749 284.964 107.669 285.636 107.669C286.26 107.669 286.844 107.741 287.388 107.885C287.948 108.013 288.428 108.229 288.828 108.533C289.244 108.821 289.564 109.213 289.788 109.709C290.028 110.205 290.148 110.813 290.148 111.533V118.301C290.148 118.861 290.244 119.221 290.436 119.381C290.644 119.525 291.052 119.485 291.66 119.261V120.389C291.548 120.421 291.38 120.469 291.156 120.533C290.948 120.597 290.74 120.629 290.532 120.629C290.308 120.629 290.092 120.605 289.884 120.557C289.644 120.525 289.452 120.453 289.308 120.341C289.164 120.213 289.044 120.069 288.948 119.909C288.868 119.733 288.812 119.549 288.78 119.357C288.748 119.149 288.732 118.933 288.732 118.709C288.124 119.381 287.428 119.893 286.644 120.245C285.86 120.597 285.012 120.773 284.1 120.773C283.556 120.773 283.028 120.701 282.516 120.557C282.02 120.413 281.58 120.189 281.196 119.885C280.812 119.581 280.508 119.213 280.284 118.781C280.06 118.333 279.948 117.805 279.948 117.197C279.948 115.085 281.396 113.837 284.292 113.453L286.284 113.189ZM298.276 120.485C298.1 120.517 297.868 120.573 297.58 120.653C297.292 120.733 296.972 120.773 296.62 120.773C295.9 120.773 295.348 120.597 294.964 120.245C294.596 119.877 294.412 119.229 294.412 118.301V109.205H292.66V108.005H294.412V104.549H295.852V108.005H298.18V109.205H295.852V117.725C295.852 118.029 295.86 118.293 295.876 118.517C295.892 118.741 295.94 118.925 296.02 119.069C296.1 119.213 296.22 119.317 296.38 119.381C296.556 119.445 296.796 119.477 297.1 119.477C297.292 119.477 297.484 119.461 297.676 119.429C297.884 119.397 298.084 119.357 298.276 119.309V120.485ZM305.851 109.205V108.005H307.747V106.037C307.747 105.045 307.947 104.261 308.347 103.685C308.747 103.109 309.427 102.821 310.387 102.821C310.611 102.821 310.819 102.829 311.011 102.845C311.203 102.861 311.395 102.885 311.587 102.917V104.237C311.267 104.157 310.979 104.117 310.723 104.117C310.355 104.117 310.067 104.189 309.859 104.333C309.651 104.461 309.499 104.637 309.403 104.861C309.307 105.085 309.243 105.341 309.211 105.629C309.195 105.901 309.187 106.181 309.187 106.469V108.005H311.539V109.205H309.187V120.437H307.747V109.205H305.851ZM314.467 120.437V108.005H315.907V120.437H314.467ZM315.979 105.293H314.395V103.157H315.979V105.293ZM320.707 120.437H319.267V108.005H320.707V109.733C321.283 109.125 321.875 108.629 322.483 108.245C323.107 107.861 323.851 107.669 324.715 107.669C325.483 107.669 326.195 107.805 326.851 108.077C327.507 108.333 328.059 108.789 328.507 109.445C328.811 109.893 328.987 110.357 329.035 110.837C329.099 111.301 329.131 111.789 329.131 112.301V120.437H327.691V112.325C327.691 111.205 327.443 110.365 326.947 109.805C326.451 109.245 325.627 108.965 324.475 108.965C324.027 108.965 323.619 109.037 323.251 109.181C322.883 109.309 322.547 109.485 322.243 109.709C321.955 109.933 321.707 110.189 321.499 110.477C321.291 110.765 321.131 111.069 321.019 111.389C320.875 111.789 320.787 112.173 320.755 112.541C320.723 112.909 320.707 113.309 320.707 113.741V120.437ZM340.739 113.909C340.131 114.165 339.515 114.333 338.891 114.413C338.267 114.493 337.643 114.557 337.019 114.605C335.915 114.685 335.051 114.933 334.427 115.349C333.819 115.765 333.515 116.397 333.515 117.245C333.515 117.629 333.587 117.965 333.731 118.253C333.891 118.525 334.091 118.757 334.331 118.949C334.587 119.125 334.875 119.261 335.195 119.357C335.531 119.437 335.867 119.477 336.203 119.477C336.779 119.477 337.339 119.405 337.883 119.261C338.427 119.117 338.907 118.901 339.323 118.613C339.755 118.309 340.099 117.933 340.355 117.485C340.611 117.021 340.739 116.477 340.739 115.853V113.909ZM338.315 113.189C338.587 113.157 338.907 113.109 339.275 113.045C339.659 112.981 339.971 112.893 340.211 112.781C340.451 112.669 340.595 112.485 340.643 112.229C340.707 111.957 340.739 111.709 340.739 111.485C340.739 110.749 340.499 110.149 340.019 109.685C339.555 109.205 338.763 108.965 337.643 108.965C337.147 108.965 336.691 109.013 336.275 109.109C335.859 109.189 335.491 109.341 335.171 109.565C334.867 109.773 334.611 110.061 334.403 110.429C334.211 110.781 334.083 111.229 334.019 111.773H332.555C332.603 111.037 332.771 110.413 333.059 109.901C333.347 109.373 333.715 108.949 334.163 108.629C334.627 108.293 335.155 108.053 335.747 107.909C336.355 107.749 336.995 107.669 337.667 107.669C338.291 107.669 338.875 107.741 339.419 107.885C339.979 108.013 340.459 108.229 340.859 108.533C341.275 108.821 341.595 109.213 341.819 109.709C342.059 110.205 342.179 110.813 342.179 111.533V118.301C342.179 118.861 342.275 119.221 342.467 119.381C342.675 119.525 343.083 119.485 343.691 119.261V120.389C343.579 120.421 343.411 120.469 343.187 120.533C342.979 120.597 342.771 120.629 342.563 120.629C342.339 120.629 342.123 120.605 341.915 120.557C341.675 120.525 341.483 120.453 341.339 120.341C341.195 120.213 341.075 120.069 340.979 119.909C340.899 119.733 340.843 119.549 340.811 119.357C340.779 119.149 340.763 118.933 340.763 118.709C340.155 119.381 339.459 119.893 338.675 120.245C337.891 120.597 337.043 120.773 336.131 120.773C335.587 120.773 335.059 120.701 334.547 120.557C334.051 120.413 333.611 120.189 333.227 119.885C332.843 119.581 332.539 119.213 332.315 118.781C332.091 118.333 331.979 117.805 331.979 117.197C331.979 115.085 333.427 113.837 336.323 113.453L338.315 113.189ZM346.155 120.437V103.157H347.595V120.437H346.155ZM367.539 114.173C367.539 113.469 367.443 112.805 367.251 112.181C367.059 111.541 366.779 110.989 366.411 110.525C366.059 110.045 365.619 109.669 365.091 109.397C364.579 109.109 363.995 108.965 363.339 108.965C362.587 108.965 361.939 109.117 361.395 109.421C360.851 109.709 360.403 110.109 360.051 110.621C359.699 111.133 359.443 111.733 359.283 112.421C359.123 113.093 359.059 113.821 359.091 114.605C359.091 115.389 359.195 116.085 359.403 116.693C359.627 117.285 359.931 117.789 360.315 118.205C360.699 118.621 361.147 118.941 361.659 119.165C362.171 119.373 362.731 119.477 363.339 119.477C364.011 119.477 364.611 119.341 365.139 119.069C365.667 118.797 366.107 118.429 366.459 117.965C366.811 117.485 367.075 116.925 367.251 116.285C367.443 115.629 367.539 114.925 367.539 114.173ZM367.539 103.157H368.979V120.437H367.539V118.253H367.491C367.283 118.669 367.011 119.037 366.675 119.357C366.355 119.661 365.995 119.917 365.595 120.125C365.211 120.333 364.811 120.493 364.395 120.605C363.979 120.717 363.571 120.773 363.171 120.773C362.163 120.773 361.307 120.605 360.603 120.269C359.899 119.933 359.315 119.477 358.851 118.901C358.403 118.309 358.075 117.613 357.867 116.813C357.659 116.013 357.555 115.157 357.555 114.245C357.555 113.381 357.667 112.549 357.891 111.749C358.115 110.949 358.451 110.253 358.899 109.661C359.363 109.053 359.939 108.573 360.627 108.221C361.331 107.853 362.155 107.669 363.099 107.669C363.979 107.669 364.819 107.869 365.619 108.269C366.435 108.653 367.075 109.229 367.539 109.997V103.157ZM381.611 113.357C381.611 112.749 381.523 112.181 381.347 111.653C381.187 111.109 380.939 110.645 380.603 110.261C380.283 109.861 379.875 109.549 379.379 109.325C378.883 109.085 378.315 108.965 377.675 108.965C377.035 108.965 376.467 109.085 375.971 109.325C375.491 109.565 375.075 109.885 374.723 110.285C374.387 110.685 374.115 111.149 373.907 111.677C373.699 112.205 373.563 112.765 373.499 113.357H381.611ZM373.499 114.557C373.499 115.229 373.587 115.869 373.763 116.477C373.939 117.069 374.195 117.589 374.531 118.037C374.883 118.469 375.323 118.821 375.851 119.093C376.379 119.349 376.987 119.477 377.675 119.477C378.619 119.477 379.427 119.229 380.099 118.733C380.771 118.237 381.219 117.533 381.443 116.621H383.051C382.875 117.213 382.643 117.765 382.355 118.277C382.067 118.773 381.707 119.213 381.275 119.597C380.843 119.965 380.331 120.253 379.739 120.461C379.147 120.669 378.459 120.773 377.675 120.773C376.683 120.773 375.827 120.605 375.107 120.269C374.387 119.933 373.795 119.477 373.331 118.901C372.867 118.309 372.523 117.621 372.299 116.837C372.075 116.037 371.963 115.181 371.963 114.269C371.963 113.357 372.091 112.501 372.347 111.701C372.619 110.901 372.995 110.205 373.475 109.613C373.971 109.005 374.571 108.533 375.275 108.197C375.979 107.845 376.779 107.669 377.675 107.669C379.387 107.669 380.731 108.261 381.707 109.445C382.683 110.613 383.163 112.317 383.147 114.557H373.499ZM386.787 116.549C387.011 117.621 387.411 118.381 387.987 118.829C388.579 119.261 389.419 119.477 390.507 119.477C391.035 119.477 391.491 119.413 391.875 119.285C392.259 119.157 392.571 118.989 392.811 118.781C393.067 118.557 393.259 118.309 393.387 118.037C393.515 117.765 393.579 117.477 393.579 117.173C393.579 116.565 393.379 116.117 392.979 115.829C392.595 115.525 392.107 115.293 391.515 115.133C390.923 114.957 390.283 114.813 389.595 114.701C388.907 114.573 388.267 114.389 387.675 114.149C387.083 113.909 386.587 113.565 386.187 113.117C385.803 112.669 385.611 112.037 385.611 111.221C385.611 110.181 385.987 109.333 386.739 108.677C387.507 108.005 388.587 107.669 389.979 107.669C391.323 107.669 392.411 107.973 393.243 108.581C394.091 109.173 394.603 110.173 394.779 111.581H393.315C393.187 110.621 392.819 109.949 392.211 109.565C391.619 109.165 390.867 108.965 389.955 108.965C389.043 108.965 388.347 109.165 387.867 109.565C387.387 109.949 387.147 110.461 387.147 111.101C387.147 111.661 387.339 112.093 387.723 112.397C388.123 112.685 388.619 112.925 389.211 113.117C389.803 113.293 390.443 113.453 391.131 113.597C391.819 113.741 392.459 113.949 393.051 114.221C393.643 114.477 394.131 114.829 394.515 115.277C394.915 115.725 395.115 116.349 395.115 117.149C395.115 117.741 394.987 118.269 394.731 118.733C394.475 119.181 394.123 119.557 393.675 119.861C393.227 120.165 392.691 120.389 392.067 120.533C391.459 120.693 390.787 120.773 390.051 120.773C389.315 120.773 388.659 120.661 388.083 120.437C387.523 120.229 387.043 119.933 386.643 119.549C386.243 119.165 385.931 118.717 385.707 118.205C385.483 117.693 385.355 117.141 385.323 116.549H386.787ZM397.741 120.437V108.005H399.181V120.437H397.741ZM397.669 105.293V103.157H399.253V105.293H397.669ZM412.445 114.269C412.445 113.517 412.349 112.821 412.157 112.181C411.981 111.525 411.717 110.965 411.365 110.501C411.013 110.021 410.573 109.645 410.045 109.373C409.517 109.101 408.917 108.965 408.245 108.965C407.637 108.965 407.077 109.077 406.565 109.301C406.053 109.509 405.605 109.821 405.221 110.237C404.837 110.653 404.533 111.165 404.309 111.773C404.101 112.365 403.997 113.053 403.997 113.837C403.965 114.621 404.029 115.357 404.189 116.045C404.349 116.717 404.605 117.309 404.957 117.821C405.309 118.333 405.757 118.741 406.301 119.045C406.845 119.333 407.493 119.477 408.245 119.477C408.901 119.477 409.485 119.341 409.997 119.069C410.525 118.781 410.965 118.405 411.317 117.941C411.685 117.461 411.965 116.909 412.157 116.285C412.349 115.645 412.445 114.973 412.445 114.269ZM412.445 108.005H413.885V119.237C413.885 120.069 413.797 120.861 413.621 121.613C413.461 122.381 413.165 123.053 412.733 123.629C412.301 124.205 411.709 124.661 410.957 124.997C410.205 125.349 409.237 125.525 408.053 125.525C407.141 125.525 406.357 125.405 405.701 125.165C405.045 124.941 404.509 124.653 404.093 124.301C403.677 123.949 403.357 123.557 403.133 123.125C402.925 122.709 402.813 122.317 402.797 121.949H404.333C404.445 122.413 404.621 122.789 404.861 123.077C405.101 123.381 405.381 123.613 405.701 123.773C406.037 123.949 406.405 124.069 406.805 124.133C407.205 124.197 407.621 124.229 408.053 124.229C409.029 124.229 409.813 124.061 410.405 123.725C410.997 123.389 411.445 122.949 411.749 122.405C412.053 121.861 412.245 121.245 412.325 120.557C412.421 119.869 412.461 119.165 412.445 118.445C411.981 119.213 411.341 119.797 410.525 120.197C409.725 120.581 408.885 120.773 408.005 120.773C407.061 120.773 406.237 120.597 405.533 120.245C404.845 119.877 404.269 119.397 403.805 118.805C403.357 118.197 403.021 117.493 402.797 116.693C402.573 115.893 402.461 115.061 402.461 114.197C402.461 113.285 402.565 112.429 402.773 111.629C402.981 110.829 403.309 110.141 403.757 109.565C404.221 108.973 404.805 108.509 405.509 108.173C406.213 107.837 407.069 107.669 408.077 107.669C408.477 107.669 408.885 107.725 409.301 107.837C409.717 107.949 410.117 108.109 410.501 108.317C410.901 108.525 411.261 108.789 411.581 109.109C411.917 109.429 412.189 109.789 412.397 110.189H412.445V108.005ZM418.957 120.437H417.517V108.005H418.957V109.733C419.533 109.125 420.125 108.629 420.733 108.245C421.357 107.861 422.101 107.669 422.965 107.669C423.733 107.669 424.445 107.805 425.101 108.077C425.757 108.333 426.309 108.789 426.757 109.445C427.061 109.893 427.237 110.357 427.285 110.837C427.349 111.301 427.381 111.789 427.381 112.301V120.437H425.941V112.325C425.941 111.205 425.693 110.365 425.197 109.805C424.701 109.245 423.877 108.965 422.725 108.965C422.277 108.965 421.869 109.037 421.501 109.181C421.133 109.309 420.797 109.485 420.493 109.709C420.205 109.933 419.957 110.189 419.749 110.477C419.541 110.765 419.381 111.069 419.269 111.389C419.125 111.789 419.037 112.173 419.005 112.541C418.973 112.909 418.957 113.309 418.957 113.741V120.437ZM431.693 116.549C431.917 117.621 432.317 118.381 432.893 118.829C433.485 119.261 434.325 119.477 435.413 119.477C435.941 119.477 436.397 119.413 436.781 119.285C437.165 119.157 437.477 118.989 437.717 118.781C437.973 118.557 438.165 118.309 438.293 118.037C438.421 117.765 438.485 117.477 438.485 117.173C438.485 116.565 438.285 116.117 437.885 115.829C437.501 115.525 437.013 115.293 436.421 115.133C435.829 114.957 435.189 114.813 434.501 114.701C433.813 114.573 433.173 114.389 432.581 114.149C431.989 113.909 431.493 113.565 431.093 113.117C430.709 112.669 430.517 112.037 430.517 111.221C430.517 110.181 430.893 109.333 431.645 108.677C432.413 108.005 433.493 107.669 434.885 107.669C436.229 107.669 437.317 107.973 438.149 108.581C438.997 109.173 439.509 110.173 439.685 111.581H438.221C438.093 110.621 437.725 109.949 437.117 109.565C436.525 109.165 435.773 108.965 434.861 108.965C433.949 108.965 433.253 109.165 432.773 109.565C432.293 109.949 432.053 110.461 432.053 111.101C432.053 111.661 432.245 112.093 432.629 112.397C433.029 112.685 433.525 112.925 434.117 113.117C434.709 113.293 435.349 113.453 436.037 113.597C436.725 113.741 437.365 113.949 437.957 114.221C438.549 114.477 439.037 114.829 439.421 115.277C439.821 115.725 440.021 116.349 440.021 117.149C440.021 117.741 439.893 118.269 439.637 118.733C439.381 119.181 439.029 119.557 438.581 119.861C438.133 120.165 437.597 120.389 436.973 120.533C436.365 120.693 435.693 120.773 434.957 120.773C434.221 120.773 433.565 120.661 432.989 120.437C432.429 120.229 431.949 119.933 431.549 119.549C431.149 119.165 430.837 118.717 430.613 118.205C430.389 117.693 430.261 117.141 430.229 116.549H431.693ZM443.573 120.437V118.325H445.325V120.437H443.573Z" fill="#242424"/>
</svg>
