<svg width="674" height="127" viewBox="0 0 674 127" fill="none" xmlns="http://www.w3.org/2000/svg">
<rect x="190" y="38.437" width="124" height="18" fill="#0045F4"/>
<path d="M192.521 29.1211C192.521 37.5677 196.271 41.791 203.77 41.791C211.082 41.791 214.738 37.5677 214.738 29.1211C214.738 20.8099 211.082 16.6543 203.77 16.6543C196.271 16.6543 192.521 20.8099 192.521 29.1211ZM185.539 29.2734C185.539 16.9674 191.616 10.8145 203.77 10.8145C215.737 10.8145 221.721 16.9674 221.721 29.2734C221.721 41.5117 215.737 47.6309 203.77 47.6309C192.158 47.6309 186.081 41.5117 185.539 29.2734ZM227.078 16.4004H232.055L233.07 20.7168H239.773V26.0488H233.807V38.3125C233.807 40.8008 234.882 42.0449 237.031 42.0449H239.773V47.377H233.781C229.312 47.377 227.078 44.9818 227.078 40.1914V16.4004ZM244.369 47.377V11.0684H251.098V24.1191C253.197 21.8509 255.88 20.7168 259.146 20.7168C265.46 20.7168 268.617 24.0007 268.617 30.5684V47.377H261.889V30.5684C261.889 27.623 260.424 26.1504 257.496 26.1504C255.312 26.1504 253.18 27.0221 251.098 28.7656V47.377H244.369ZM286.238 20.7168C294.329 20.7168 298.375 24.847 298.375 33.1074C298.375 34.2077 298.299 35.3079 298.146 36.4082H280.449C280.449 40.166 283.208 42.0449 288.727 42.0449C291.418 42.0449 294.109 41.791 296.801 41.2832V46.6152C294.448 47.123 291.587 47.377 288.219 47.377C278.553 47.377 273.721 42.832 273.721 33.7422C273.721 25.0586 277.893 20.7168 286.238 20.7168ZM280.449 31.7363H291.824V31.5332C291.824 27.8431 289.962 25.998 286.238 25.998C282.684 25.998 280.754 27.9108 280.449 31.7363ZM303.428 47.377V20.7168H308.633L309.471 24.1191C311.807 21.8509 314.278 20.7168 316.885 20.7168V26.1504C314.38 26.1504 312.137 27.1914 310.156 29.2734V47.377H303.428ZM332.754 47.377V11.0684H349.004C356.418 11.0684 360.125 14.4792 360.125 21.3008C360.125 28.6979 355.055 33.1751 344.916 34.7324L343.951 28.7402C350.045 27.64 353.092 25.2279 353.092 21.5039C353.092 18.4909 351.585 16.9844 348.572 16.9844H339.482V47.377H332.754ZM363.959 47.377V20.7168H369.164L370.002 24.1191C372.338 21.8509 374.809 20.7168 377.416 20.7168V26.1504C374.911 26.1504 372.668 27.1914 370.688 29.2734V47.377H363.959ZM386.684 33.9453C386.684 39.5143 388.842 42.2988 393.158 42.2988C397.475 42.2988 399.633 39.5143 399.633 33.9453C399.633 28.5117 397.475 25.7949 393.158 25.7949C388.842 25.7949 386.684 28.5117 386.684 33.9453ZM379.955 34.0469C379.955 25.1094 384.356 20.6406 393.158 20.6406C401.96 20.6406 406.361 25.1094 406.361 34.0469C406.361 42.9674 401.96 47.4277 393.158 47.4277C384.39 47.4277 379.989 42.9674 379.955 34.0469ZM418.168 11.0684V16.4004H411.439V11.0684H418.168ZM418.168 20.7168V45.3457C418.168 50.7285 416.628 55.1126 413.547 58.498L408.266 54.8164C410.382 52.5312 411.439 49.3743 411.439 45.3457V20.7168H418.168ZM435.789 20.7168C443.88 20.7168 447.926 24.847 447.926 33.1074C447.926 34.2077 447.85 35.3079 447.697 36.4082H430C430 40.166 432.759 42.0449 438.277 42.0449C440.969 42.0449 443.66 41.791 446.352 41.2832V46.6152C443.999 47.123 441.138 47.377 437.77 47.377C428.104 47.377 423.271 42.832 423.271 33.7422C423.271 25.0586 427.444 20.7168 435.789 20.7168ZM430 31.7363H441.375V31.5332C441.375 27.8431 439.513 25.998 435.789 25.998C432.234 25.998 430.305 27.9108 430 31.7363ZM472.656 46.6152C470.456 47.123 468.171 47.377 465.801 47.377C456.322 47.377 451.582 42.7643 451.582 33.5391C451.582 24.9909 456.322 20.7168 465.801 20.7168C468.171 20.7168 470.456 20.9707 472.656 21.4785V26.8105C470.456 26.3027 468.34 26.0488 466.309 26.0488C460.977 26.0488 458.311 28.5456 458.311 33.5391C458.311 39.2096 460.977 42.0449 466.309 42.0449C468.34 42.0449 470.456 41.791 472.656 41.2832V46.6152ZM476.719 16.4004H481.695L482.711 20.7168H489.414V26.0488H483.447V38.3125C483.447 40.8008 484.522 42.0449 486.672 42.0449H489.414V47.377H483.422C478.953 47.377 476.719 44.9818 476.719 40.1914V16.4004Z" fill="#242424"/>
<path d="M2.276 92.377V75.097H13.412V76.489H3.908V82.729H12.548V84.121H3.908V92.377H2.276ZM15.3581 92.377V79.945H16.7981V92.377H15.3581ZM15.2861 77.233V75.097H16.8701V77.233H15.2861ZM21.9024 92.377H20.4624V79.945H21.9024V81.673C22.4784 81.065 23.0704 80.569 23.6784 80.185C24.3024 79.801 25.0464 79.609 25.9104 79.609C26.6784 79.609 27.3904 79.745 28.0464 80.017C28.7024 80.273 29.2544 80.729 29.7024 81.385C30.0064 81.833 30.1824 82.297 30.2304 82.777C30.2944 83.241 30.3264 83.729 30.3264 84.241V92.377H28.8864V84.265C28.8864 83.145 28.6384 82.305 28.1424 81.745C27.6464 81.185 26.8224 80.905 25.6704 80.905C25.2224 80.905 24.8144 80.977 24.4464 81.121C24.0784 81.249 23.7424 81.425 23.4384 81.649C23.1504 81.873 22.9024 82.129 22.6944 82.417C22.4864 82.705 22.3264 83.009 22.2144 83.329C22.0704 83.729 21.9824 84.113 21.9504 84.481C21.9184 84.849 21.9024 85.249 21.9024 85.681V92.377ZM43.3983 86.113C43.3983 85.409 43.3023 84.745 43.1103 84.121C42.9183 83.481 42.6383 82.929 42.2703 82.465C41.9183 81.985 41.4783 81.609 40.9503 81.337C40.4383 81.049 39.8543 80.905 39.1983 80.905C38.4463 80.905 37.7983 81.057 37.2543 81.361C36.7103 81.649 36.2623 82.049 35.9103 82.561C35.5583 83.073 35.3023 83.673 35.1423 84.361C34.9823 85.033 34.9183 85.761 34.9503 86.545C34.9503 87.329 35.0543 88.025 35.2623 88.633C35.4863 89.225 35.7903 89.729 36.1743 90.145C36.5583 90.561 37.0063 90.881 37.5183 91.105C38.0303 91.313 38.5903 91.417 39.1983 91.417C39.8703 91.417 40.4703 91.281 40.9983 91.009C41.5263 90.737 41.9663 90.369 42.3183 89.905C42.6703 89.425 42.9343 88.865 43.1103 88.225C43.3023 87.569 43.3983 86.865 43.3983 86.113ZM43.3983 75.097H44.8383V92.377H43.3983V90.193H43.3503C43.1423 90.609 42.8703 90.977 42.5343 91.297C42.2143 91.601 41.8543 91.857 41.4543 92.065C41.0703 92.273 40.6703 92.433 40.2543 92.545C39.8383 92.657 39.4303 92.713 39.0303 92.713C38.0223 92.713 37.1663 92.545 36.4623 92.209C35.7583 91.873 35.1743 91.417 34.7103 90.841C34.2623 90.249 33.9343 89.553 33.7263 88.753C33.5183 87.953 33.4143 87.097 33.4143 86.185C33.4143 85.321 33.5263 84.489 33.7503 83.689C33.9743 82.889 34.3103 82.193 34.7583 81.601C35.2223 80.993 35.7983 80.513 36.4863 80.161C37.1903 79.793 38.0143 79.609 38.9583 79.609C39.8383 79.609 40.6783 79.809 41.4783 80.209C42.2943 80.593 42.9343 81.169 43.3983 81.937V75.097ZM60.0939 92.713C59.2939 92.697 58.5419 92.553 57.8379 92.281C57.1499 92.009 56.5419 91.601 56.0139 91.057C55.5019 90.513 55.0939 89.833 54.7899 89.017C54.4859 88.201 54.3339 87.249 54.3339 86.161C54.3339 85.249 54.4539 84.401 54.6939 83.617C54.9339 82.817 55.2939 82.121 55.7739 81.529C56.2539 80.937 56.8539 80.473 57.5739 80.137C58.2939 79.785 59.1339 79.609 60.0939 79.609C61.0699 79.609 61.9179 79.785 62.6379 80.137C63.3579 80.473 63.9579 80.937 64.4379 81.529C64.9179 82.105 65.2699 82.793 65.4939 83.593C65.7339 84.393 65.8539 85.249 65.8539 86.161C65.8539 87.153 65.7179 88.049 65.4459 88.849C65.1739 89.649 64.7819 90.337 64.2699 90.913C63.7739 91.489 63.1659 91.937 62.4459 92.257C61.7419 92.561 60.9579 92.713 60.0939 92.713ZM64.3179 86.161C64.3179 85.425 64.2379 84.737 64.0779 84.097C63.9179 83.457 63.6699 82.905 63.3339 82.441C62.9979 81.961 62.5659 81.585 62.0379 81.313C61.5099 81.041 60.8619 80.905 60.0939 80.905C59.3419 80.905 58.6939 81.057 58.1499 81.361C57.6219 81.649 57.1899 82.041 56.8539 82.537C56.5179 83.017 56.2699 83.577 56.1099 84.217C55.9499 84.841 55.8699 85.489 55.8699 86.161C55.8699 86.929 55.9579 87.641 56.1339 88.297C56.3259 88.937 56.5979 89.489 56.9499 89.953C57.3019 90.417 57.7419 90.777 58.2699 91.033C58.7979 91.289 59.4059 91.417 60.0939 91.417C60.8459 91.417 61.4859 91.273 62.0139 90.985C62.5579 90.681 62.9979 90.281 63.3339 89.785C63.6699 89.289 63.9179 88.729 64.0779 88.105C64.2379 87.481 64.3179 86.833 64.3179 86.161ZM76.9098 79.945H78.3498V92.377H76.9098V90.649C76.7178 90.873 76.5018 91.105 76.2618 91.345C76.0218 91.585 75.7418 91.809 75.4218 92.017C75.1178 92.209 74.7578 92.369 74.3418 92.497C73.9258 92.641 73.4458 92.713 72.9018 92.713C72.0698 92.713 71.3738 92.601 70.8138 92.377C70.2538 92.137 69.7978 91.809 69.4458 91.393C69.1098 90.977 68.8618 90.497 68.7018 89.953C68.5578 89.393 68.4858 88.785 68.4858 88.129V79.945H69.9258V88.105C69.9258 89.177 70.1738 90.001 70.6698 90.577C71.1658 91.137 71.9818 91.417 73.1178 91.417C73.7098 91.417 74.2378 91.305 74.7018 91.081C75.1818 90.841 75.5818 90.513 75.9018 90.097C76.2218 89.681 76.4698 89.185 76.6458 88.609C76.8218 88.033 76.9098 87.401 76.9098 86.713V79.945ZM86.1898 92.425C86.0138 92.457 85.7818 92.513 85.4938 92.593C85.2058 92.673 84.8858 92.713 84.5338 92.713C83.8138 92.713 83.2618 92.537 82.8778 92.185C82.5098 91.817 82.3258 91.169 82.3258 90.241V81.145H80.5738V79.945H82.3258V76.489H83.7658V79.945H86.0938V81.145H83.7658V89.665C83.7658 89.969 83.7738 90.233 83.7898 90.457C83.8058 90.681 83.8538 90.865 83.9338 91.009C84.0138 91.153 84.1338 91.257 84.2938 91.321C84.4698 91.385 84.7098 91.417 85.0138 91.417C85.2058 91.417 85.3978 91.401 85.5898 91.369C85.7978 91.337 85.9978 91.297 86.1898 91.249V92.425ZM103.317 85.849C102.709 86.105 102.093 86.273 101.469 86.353C100.845 86.433 100.221 86.497 99.5971 86.545C98.4931 86.625 97.6291 86.873 97.0051 87.289C96.3971 87.705 96.0931 88.337 96.0931 89.185C96.0931 89.569 96.1651 89.905 96.3091 90.193C96.4691 90.465 96.6691 90.697 96.9091 90.889C97.1651 91.065 97.4531 91.201 97.7731 91.297C98.1091 91.377 98.4451 91.417 98.7811 91.417C99.3571 91.417 99.9171 91.345 100.461 91.201C101.005 91.057 101.485 90.841 101.901 90.553C102.333 90.249 102.677 89.873 102.933 89.425C103.189 88.961 103.317 88.417 103.317 87.793V85.849ZM100.893 85.129C101.165 85.097 101.485 85.049 101.853 84.985C102.237 84.921 102.549 84.833 102.789 84.721C103.029 84.609 103.173 84.425 103.221 84.169C103.285 83.897 103.317 83.649 103.317 83.425C103.317 82.689 103.077 82.089 102.597 81.625C102.133 81.145 101.341 80.905 100.221 80.905C99.7251 80.905 99.2691 80.953 98.8531 81.049C98.4371 81.129 98.0691 81.281 97.7491 81.505C97.4451 81.713 97.1891 82.001 96.9811 82.369C96.7891 82.721 96.6611 83.169 96.5971 83.713H95.1331C95.1811 82.977 95.3491 82.353 95.6371 81.841C95.9251 81.313 96.2931 80.889 96.7411 80.569C97.2051 80.233 97.7331 79.993 98.3251 79.849C98.9331 79.689 99.5731 79.609 100.245 79.609C100.869 79.609 101.453 79.681 101.997 79.825C102.557 79.953 103.037 80.169 103.437 80.473C103.853 80.761 104.173 81.153 104.397 81.649C104.637 82.145 104.757 82.753 104.757 83.473V90.241C104.757 90.801 104.853 91.161 105.045 91.321C105.253 91.465 105.661 91.425 106.269 91.201V92.329C106.157 92.361 105.989 92.409 105.765 92.473C105.557 92.537 105.349 92.569 105.141 92.569C104.917 92.569 104.701 92.545 104.493 92.497C104.253 92.465 104.061 92.393 103.917 92.281C103.773 92.153 103.653 92.009 103.557 91.849C103.477 91.673 103.421 91.489 103.389 91.297C103.357 91.089 103.341 90.873 103.341 90.649C102.733 91.321 102.037 91.833 101.253 92.185C100.469 92.537 99.6211 92.713 98.7091 92.713C98.1651 92.713 97.6371 92.641 97.1251 92.497C96.6291 92.353 96.1891 92.129 95.8051 91.825C95.4211 91.521 95.1171 91.153 94.8931 90.721C94.6691 90.273 94.5571 89.745 94.5571 89.137C94.5571 87.025 96.0051 85.777 98.9011 85.393L100.893 85.129ZM110.125 86.113C110.125 86.865 110.213 87.569 110.389 88.225C110.581 88.865 110.853 89.425 111.205 89.905C111.557 90.369 111.997 90.737 112.525 91.009C113.053 91.281 113.653 91.417 114.325 91.417C114.933 91.417 115.493 91.313 116.005 91.105C116.517 90.881 116.965 90.561 117.349 90.145C117.733 89.729 118.029 89.225 118.237 88.633C118.461 88.025 118.573 87.329 118.573 86.545C118.605 85.761 118.541 85.033 118.381 84.361C118.221 83.673 117.965 83.073 117.613 82.561C117.261 82.049 116.805 81.649 116.245 81.361C115.701 81.057 115.061 80.905 114.325 80.905C113.669 80.905 113.077 81.049 112.549 81.337C112.037 81.609 111.597 81.985 111.229 82.465C110.877 82.929 110.605 83.481 110.413 84.121C110.221 84.745 110.125 85.409 110.125 86.113ZM110.125 92.377H108.685V75.097H110.125V81.937C110.589 81.169 111.221 80.593 112.021 80.209C112.837 79.809 113.685 79.609 114.565 79.609C115.509 79.609 116.325 79.793 117.013 80.161C117.717 80.513 118.293 80.993 118.741 81.601C119.205 82.193 119.549 82.889 119.773 83.689C119.997 84.489 120.109 85.321 120.109 86.185C120.109 87.097 120.005 87.953 119.797 88.753C119.589 89.553 119.253 90.249 118.789 90.841C118.341 91.417 117.765 91.873 117.061 92.209C116.357 92.545 115.501 92.713 114.493 92.713C114.093 92.713 113.685 92.657 113.269 92.545C112.853 92.433 112.445 92.273 112.045 92.065C111.661 91.857 111.301 91.601 110.965 91.297C110.645 90.977 110.381 90.609 110.173 90.193H110.125V92.377ZM128.133 92.713C127.333 92.697 126.581 92.553 125.877 92.281C125.189 92.009 124.581 91.601 124.053 91.057C123.541 90.513 123.133 89.833 122.829 89.017C122.525 88.201 122.373 87.249 122.373 86.161C122.373 85.249 122.493 84.401 122.733 83.617C122.973 82.817 123.333 82.121 123.813 81.529C124.293 80.937 124.893 80.473 125.613 80.137C126.333 79.785 127.173 79.609 128.133 79.609C129.109 79.609 129.957 79.785 130.677 80.137C131.397 80.473 131.997 80.937 132.477 81.529C132.957 82.105 133.309 82.793 133.533 83.593C133.773 84.393 133.893 85.249 133.893 86.161C133.893 87.153 133.757 88.049 133.485 88.849C133.213 89.649 132.821 90.337 132.309 90.913C131.813 91.489 131.205 91.937 130.485 92.257C129.781 92.561 128.997 92.713 128.133 92.713ZM132.357 86.161C132.357 85.425 132.277 84.737 132.117 84.097C131.957 83.457 131.709 82.905 131.373 82.441C131.037 81.961 130.605 81.585 130.077 81.313C129.549 81.041 128.901 80.905 128.133 80.905C127.381 80.905 126.733 81.057 126.189 81.361C125.661 81.649 125.229 82.041 124.893 82.537C124.557 83.017 124.309 83.577 124.149 84.217C123.989 84.841 123.909 85.489 123.909 86.161C123.909 86.929 123.997 87.641 124.173 88.297C124.365 88.937 124.637 89.489 124.989 89.953C125.341 90.417 125.781 90.777 126.309 91.033C126.837 91.289 127.445 91.417 128.133 91.417C128.885 91.417 129.525 91.273 130.053 90.985C130.597 90.681 131.037 90.281 131.373 89.785C131.709 89.289 131.957 88.729 132.117 88.105C132.277 87.481 132.357 86.833 132.357 86.161ZM144.949 79.945H146.389V92.377H144.949V90.649C144.757 90.873 144.541 91.105 144.301 91.345C144.061 91.585 143.781 91.809 143.461 92.017C143.157 92.209 142.797 92.369 142.381 92.497C141.965 92.641 141.485 92.713 140.941 92.713C140.109 92.713 139.413 92.601 138.853 92.377C138.293 92.137 137.837 91.809 137.485 91.393C137.149 90.977 136.901 90.497 136.741 89.953C136.597 89.393 136.525 88.785 136.525 88.129V79.945H137.965V88.105C137.965 89.177 138.213 90.001 138.709 90.577C139.205 91.137 140.021 91.417 141.157 91.417C141.749 91.417 142.277 91.305 142.741 91.081C143.221 90.841 143.621 90.513 143.941 90.097C144.261 89.681 144.509 89.185 144.685 88.609C144.861 88.033 144.949 87.401 144.949 86.713V79.945ZM154.229 92.425C154.053 92.457 153.821 92.513 153.533 92.593C153.245 92.673 152.925 92.713 152.573 92.713C151.853 92.713 151.301 92.537 150.917 92.185C150.549 91.817 150.365 91.169 150.365 90.241V81.145H148.613V79.945H150.365V76.489H151.805V79.945H154.133V81.145H151.805V89.665C151.805 89.969 151.813 90.233 151.829 90.457C151.845 90.681 151.893 90.865 151.973 91.009C152.053 91.153 152.173 91.257 152.333 91.321C152.509 91.385 152.749 91.417 153.053 91.417C153.245 91.417 153.437 91.401 153.629 91.369C153.837 91.337 154.037 91.297 154.229 91.249V92.425ZM164.468 92.377H163.028V79.945H164.468V81.817H164.516C164.884 81.097 165.412 80.553 166.1 80.185C166.788 79.801 167.54 79.609 168.356 79.609C168.932 79.609 169.42 79.673 169.82 79.801C170.22 79.929 170.556 80.105 170.828 80.329C171.116 80.537 171.348 80.785 171.524 81.073C171.716 81.361 171.876 81.673 172.004 82.009C172.42 81.193 172.972 80.593 173.66 80.209C174.364 79.809 175.164 79.609 176.06 79.609C176.908 79.609 177.58 79.753 178.076 80.041C178.588 80.313 178.98 80.681 179.252 81.145C179.524 81.593 179.7 82.113 179.78 82.705C179.876 83.297 179.924 83.905 179.924 84.529V92.377H178.484V83.785C178.484 82.889 178.292 82.185 177.908 81.673C177.54 81.161 176.844 80.905 175.82 80.905C175.292 80.905 174.78 81.025 174.284 81.265C173.804 81.489 173.38 81.841 173.012 82.321C172.852 82.529 172.716 82.777 172.604 83.065C172.508 83.337 172.428 83.625 172.364 83.929C172.3 84.233 172.252 84.537 172.22 84.841C172.204 85.145 172.196 85.425 172.196 85.681V92.377H170.756V83.785C170.756 82.889 170.564 82.185 170.18 81.673C169.812 81.161 169.116 80.905 168.092 80.905C167.564 80.905 167.052 81.025 166.556 81.265C166.076 81.489 165.652 81.841 165.284 82.321C165.124 82.529 164.988 82.777 164.876 83.065C164.78 83.337 164.7 83.625 164.636 83.929C164.572 84.233 164.524 84.537 164.492 84.841C164.476 85.145 164.468 85.425 164.468 85.681V92.377ZM183.116 95.761C183.308 95.793 183.5 95.825 183.692 95.857C183.9 95.889 184.108 95.905 184.316 95.905C184.716 95.905 185.044 95.777 185.3 95.521C185.556 95.265 185.764 94.953 185.924 94.585C186.1 94.233 186.244 93.857 186.356 93.457C186.468 93.073 186.596 92.745 186.74 92.473L181.916 79.945H183.524L187.508 90.625L191.492 79.945H193.052L188.42 92.209C188.132 92.993 187.852 93.697 187.58 94.321C187.324 94.945 187.044 95.473 186.74 95.905C186.452 96.353 186.124 96.689 185.756 96.913C185.404 97.153 184.98 97.273 184.484 97.273C184.228 97.273 183.98 97.257 183.74 97.225C183.516 97.193 183.308 97.153 183.116 97.105V95.761ZM210.892 85.297C210.892 84.689 210.804 84.121 210.628 83.593C210.468 83.049 210.22 82.585 209.884 82.201C209.564 81.801 209.156 81.489 208.66 81.265C208.164 81.025 207.596 80.905 206.956 80.905C206.316 80.905 205.748 81.025 205.252 81.265C204.772 81.505 204.356 81.825 204.004 82.225C203.668 82.625 203.396 83.089 203.188 83.617C202.98 84.145 202.844 84.705 202.78 85.297H210.892ZM202.78 86.497C202.78 87.169 202.868 87.809 203.044 88.417C203.22 89.009 203.476 89.529 203.812 89.977C204.164 90.409 204.604 90.761 205.132 91.033C205.66 91.289 206.268 91.417 206.956 91.417C207.9 91.417 208.708 91.169 209.38 90.673C210.052 90.177 210.5 89.473 210.724 88.561H212.332C212.156 89.153 211.924 89.705 211.636 90.217C211.348 90.713 210.988 91.153 210.556 91.537C210.124 91.905 209.612 92.193 209.02 92.401C208.428 92.609 207.74 92.713 206.956 92.713C205.964 92.713 205.108 92.545 204.388 92.209C203.668 91.873 203.076 91.417 202.612 90.841C202.148 90.249 201.804 89.561 201.58 88.777C201.356 87.977 201.244 87.121 201.244 86.209C201.244 85.297 201.372 84.441 201.628 83.641C201.9 82.841 202.276 82.145 202.756 81.553C203.252 80.945 203.852 80.473 204.556 80.137C205.26 79.785 206.06 79.609 206.956 79.609C208.668 79.609 210.012 80.201 210.988 81.385C211.964 82.553 212.444 84.257 212.428 86.497H202.78ZM223.364 85.849C222.756 86.105 222.14 86.273 221.516 86.353C220.892 86.433 220.268 86.497 219.644 86.545C218.54 86.625 217.676 86.873 217.052 87.289C216.444 87.705 216.14 88.337 216.14 89.185C216.14 89.569 216.212 89.905 216.356 90.193C216.516 90.465 216.716 90.697 216.956 90.889C217.212 91.065 217.5 91.201 217.82 91.297C218.156 91.377 218.492 91.417 218.828 91.417C219.404 91.417 219.964 91.345 220.508 91.201C221.052 91.057 221.532 90.841 221.948 90.553C222.38 90.249 222.724 89.873 222.98 89.425C223.236 88.961 223.364 88.417 223.364 87.793V85.849ZM220.94 85.129C221.212 85.097 221.532 85.049 221.9 84.985C222.284 84.921 222.596 84.833 222.836 84.721C223.076 84.609 223.22 84.425 223.268 84.169C223.332 83.897 223.364 83.649 223.364 83.425C223.364 82.689 223.124 82.089 222.644 81.625C222.18 81.145 221.388 80.905 220.268 80.905C219.772 80.905 219.316 80.953 218.9 81.049C218.484 81.129 218.116 81.281 217.796 81.505C217.492 81.713 217.236 82.001 217.028 82.369C216.836 82.721 216.708 83.169 216.644 83.713H215.18C215.228 82.977 215.396 82.353 215.684 81.841C215.972 81.313 216.34 80.889 216.788 80.569C217.252 80.233 217.78 79.993 218.372 79.849C218.98 79.689 219.62 79.609 220.292 79.609C220.916 79.609 221.5 79.681 222.044 79.825C222.604 79.953 223.084 80.169 223.484 80.473C223.9 80.761 224.22 81.153 224.444 81.649C224.684 82.145 224.804 82.753 224.804 83.473V90.241C224.804 90.801 224.9 91.161 225.092 91.321C225.3 91.465 225.708 91.425 226.316 91.201V92.329C226.204 92.361 226.036 92.409 225.812 92.473C225.604 92.537 225.396 92.569 225.188 92.569C224.964 92.569 224.748 92.545 224.54 92.497C224.3 92.465 224.108 92.393 223.964 92.281C223.82 92.153 223.7 92.009 223.604 91.849C223.524 91.673 223.468 91.489 223.436 91.297C223.404 91.089 223.388 90.873 223.388 90.649C222.78 91.321 222.084 91.833 221.3 92.185C220.516 92.537 219.668 92.713 218.756 92.713C218.212 92.713 217.684 92.641 217.172 92.497C216.676 92.353 216.236 92.129 215.852 91.825C215.468 91.521 215.164 91.153 214.94 90.721C214.716 90.273 214.604 89.745 214.604 89.137C214.604 87.025 216.052 85.777 218.948 85.393L220.94 85.129ZM230.076 92.377H228.636V79.945H230.076V82.273H230.124C230.524 81.281 231.036 80.593 231.66 80.209C232.3 79.809 233.14 79.609 234.18 79.609V81.169C233.364 81.153 232.692 81.281 232.164 81.553C231.636 81.825 231.212 82.193 230.892 82.657C230.588 83.121 230.372 83.673 230.244 84.313C230.132 84.937 230.076 85.593 230.076 86.281V92.377ZM236.772 92.377V75.097H238.212V92.377H236.772ZM241.78 95.761C241.972 95.793 242.164 95.825 242.356 95.857C242.564 95.889 242.772 95.905 242.98 95.905C243.38 95.905 243.708 95.777 243.964 95.521C244.22 95.265 244.428 94.953 244.588 94.585C244.764 94.233 244.908 93.857 245.02 93.457C245.132 93.073 245.26 92.745 245.404 92.473L240.58 79.945H242.188L246.172 90.625L250.156 79.945H251.716L247.084 92.209C246.796 92.993 246.516 93.697 246.244 94.321C245.988 94.945 245.708 95.473 245.404 95.905C245.116 96.353 244.788 96.689 244.42 96.913C244.068 97.153 243.644 97.273 243.148 97.273C242.892 97.273 242.644 97.257 242.404 97.225C242.18 97.193 241.972 97.153 241.78 97.105V95.761ZM271.068 90.457L274.332 79.945H275.796L271.764 92.377H270.228L267.516 81.937H267.468L264.708 92.377H262.98L259.188 79.945H260.628L263.844 90.553L266.724 79.945H268.332L271.068 90.457ZM282.82 92.713C282.02 92.697 281.268 92.553 280.564 92.281C279.876 92.009 279.268 91.601 278.74 91.057C278.228 90.513 277.82 89.833 277.516 89.017C277.212 88.201 277.06 87.249 277.06 86.161C277.06 85.249 277.18 84.401 277.42 83.617C277.66 82.817 278.02 82.121 278.5 81.529C278.98 80.937 279.58 80.473 280.3 80.137C281.02 79.785 281.86 79.609 282.82 79.609C283.796 79.609 284.644 79.785 285.364 80.137C286.084 80.473 286.684 80.937 287.164 81.529C287.644 82.105 287.996 82.793 288.22 83.593C288.46 84.393 288.58 85.249 288.58 86.161C288.58 87.153 288.444 88.049 288.172 88.849C287.9 89.649 287.508 90.337 286.996 90.913C286.5 91.489 285.892 91.937 285.172 92.257C284.468 92.561 283.684 92.713 282.82 92.713ZM287.044 86.161C287.044 85.425 286.964 84.737 286.804 84.097C286.644 83.457 286.396 82.905 286.06 82.441C285.724 81.961 285.292 81.585 284.764 81.313C284.236 81.041 283.588 80.905 282.82 80.905C282.068 80.905 281.42 81.057 280.876 81.361C280.348 81.649 279.916 82.041 279.58 82.537C279.244 83.017 278.996 83.577 278.836 84.217C278.676 84.841 278.596 85.489 278.596 86.161C278.596 86.929 278.684 87.641 278.86 88.297C279.052 88.937 279.324 89.489 279.676 89.953C280.028 90.417 280.468 90.777 280.996 91.033C281.524 91.289 282.132 91.417 282.82 91.417C283.572 91.417 284.212 91.273 284.74 90.985C285.284 90.681 285.724 90.281 286.06 89.785C286.396 89.289 286.644 88.729 286.804 88.105C286.964 87.481 287.044 86.833 287.044 86.161ZM292.724 92.377H291.284V79.945H292.724V82.273H292.772C293.172 81.281 293.684 80.593 294.308 80.209C294.948 79.809 295.788 79.609 296.828 79.609V81.169C296.012 81.153 295.34 81.281 294.812 81.553C294.284 81.825 293.86 82.193 293.54 82.657C293.236 83.121 293.02 83.673 292.892 84.313C292.78 84.937 292.724 85.593 292.724 86.281V92.377ZM299.109 92.377V75.097H300.549V85.849L306.645 79.945H308.613L303.957 84.433L309.165 92.377H307.557L302.901 85.441L300.549 87.673V92.377H299.109ZM312.045 88.489C312.269 89.561 312.669 90.321 313.245 90.769C313.837 91.201 314.677 91.417 315.765 91.417C316.293 91.417 316.749 91.353 317.133 91.225C317.517 91.097 317.829 90.929 318.069 90.721C318.325 90.497 318.517 90.249 318.645 89.977C318.773 89.705 318.837 89.417 318.837 89.113C318.837 88.505 318.637 88.057 318.237 87.769C317.853 87.465 317.365 87.233 316.773 87.073C316.181 86.897 315.541 86.753 314.853 86.641C314.165 86.513 313.525 86.329 312.933 86.089C312.341 85.849 311.845 85.505 311.445 85.057C311.061 84.609 310.869 83.977 310.869 83.161C310.869 82.121 311.245 81.273 311.997 80.617C312.765 79.945 313.845 79.609 315.237 79.609C316.581 79.609 317.669 79.913 318.501 80.521C319.349 81.113 319.861 82.113 320.037 83.521H318.573C318.445 82.561 318.077 81.889 317.469 81.505C316.877 81.105 316.125 80.905 315.213 80.905C314.301 80.905 313.605 81.105 313.125 81.505C312.645 81.889 312.405 82.401 312.405 83.041C312.405 83.601 312.597 84.033 312.981 84.337C313.381 84.625 313.877 84.865 314.469 85.057C315.061 85.233 315.701 85.393 316.389 85.537C317.077 85.681 317.717 85.889 318.309 86.161C318.901 86.417 319.389 86.769 319.773 87.217C320.173 87.665 320.373 88.289 320.373 89.089C320.373 89.681 320.245 90.209 319.989 90.673C319.733 91.121 319.381 91.497 318.933 91.801C318.485 92.105 317.949 92.329 317.325 92.473C316.717 92.633 316.045 92.713 315.309 92.713C314.573 92.713 313.917 92.601 313.341 92.377C312.781 92.169 312.301 91.873 311.901 91.489C311.501 91.105 311.189 90.657 310.965 90.145C310.741 89.633 310.613 89.081 310.581 88.489H312.045ZM338.02 85.849C337.412 86.105 336.796 86.273 336.172 86.353C335.548 86.433 334.924 86.497 334.3 86.545C333.196 86.625 332.332 86.873 331.708 87.289C331.1 87.705 330.796 88.337 330.796 89.185C330.796 89.569 330.868 89.905 331.012 90.193C331.172 90.465 331.372 90.697 331.612 90.889C331.868 91.065 332.156 91.201 332.476 91.297C332.812 91.377 333.148 91.417 333.484 91.417C334.06 91.417 334.62 91.345 335.164 91.201C335.708 91.057 336.188 90.841 336.604 90.553C337.036 90.249 337.38 89.873 337.636 89.425C337.892 88.961 338.02 88.417 338.02 87.793V85.849ZM335.596 85.129C335.868 85.097 336.188 85.049 336.556 84.985C336.94 84.921 337.252 84.833 337.492 84.721C337.732 84.609 337.876 84.425 337.924 84.169C337.988 83.897 338.02 83.649 338.02 83.425C338.02 82.689 337.78 82.089 337.3 81.625C336.836 81.145 336.044 80.905 334.924 80.905C334.428 80.905 333.972 80.953 333.556 81.049C333.14 81.129 332.772 81.281 332.452 81.505C332.148 81.713 331.892 82.001 331.684 82.369C331.492 82.721 331.364 83.169 331.3 83.713H329.836C329.884 82.977 330.052 82.353 330.34 81.841C330.628 81.313 330.996 80.889 331.444 80.569C331.908 80.233 332.436 79.993 333.028 79.849C333.636 79.689 334.276 79.609 334.948 79.609C335.572 79.609 336.156 79.681 336.7 79.825C337.26 79.953 337.74 80.169 338.14 80.473C338.556 80.761 338.876 81.153 339.1 81.649C339.34 82.145 339.46 82.753 339.46 83.473V90.241C339.46 90.801 339.556 91.161 339.748 91.321C339.956 91.465 340.364 91.425 340.972 91.201V92.329C340.86 92.361 340.692 92.409 340.468 92.473C340.26 92.537 340.052 92.569 339.844 92.569C339.62 92.569 339.404 92.545 339.196 92.497C338.956 92.465 338.764 92.393 338.62 92.281C338.476 92.153 338.356 92.009 338.26 91.849C338.18 91.673 338.124 91.489 338.092 91.297C338.06 91.089 338.044 90.873 338.044 90.649C337.436 91.321 336.74 91.833 335.956 92.185C335.172 92.537 334.324 92.713 333.412 92.713C332.868 92.713 332.34 92.641 331.828 92.497C331.332 92.353 330.892 92.129 330.508 91.825C330.124 91.521 329.82 91.153 329.596 90.721C329.372 90.273 329.26 89.745 329.26 89.137C329.26 87.025 330.708 85.777 333.604 85.393L335.596 85.129ZM344.06 88.489C344.284 89.561 344.684 90.321 345.26 90.769C345.852 91.201 346.692 91.417 347.78 91.417C348.308 91.417 348.764 91.353 349.148 91.225C349.532 91.097 349.844 90.929 350.084 90.721C350.34 90.497 350.532 90.249 350.66 89.977C350.788 89.705 350.852 89.417 350.852 89.113C350.852 88.505 350.652 88.057 350.252 87.769C349.868 87.465 349.38 87.233 348.788 87.073C348.196 86.897 347.556 86.753 346.868 86.641C346.18 86.513 345.54 86.329 344.948 86.089C344.356 85.849 343.86 85.505 343.46 85.057C343.076 84.609 342.884 83.977 342.884 83.161C342.884 82.121 343.26 81.273 344.012 80.617C344.78 79.945 345.86 79.609 347.252 79.609C348.596 79.609 349.684 79.913 350.516 80.521C351.364 81.113 351.876 82.113 352.052 83.521H350.588C350.46 82.561 350.092 81.889 349.484 81.505C348.892 81.105 348.14 80.905 347.228 80.905C346.316 80.905 345.62 81.105 345.14 81.505C344.66 81.889 344.42 82.401 344.42 83.041C344.42 83.601 344.612 84.033 344.996 84.337C345.396 84.625 345.892 84.865 346.484 85.057C347.076 85.233 347.716 85.393 348.404 85.537C349.092 85.681 349.732 85.889 350.324 86.161C350.916 86.417 351.404 86.769 351.788 87.217C352.188 87.665 352.388 88.289 352.388 89.089C352.388 89.681 352.26 90.209 352.004 90.673C351.748 91.121 351.396 91.497 350.948 91.801C350.5 92.105 349.964 92.329 349.34 92.473C348.732 92.633 348.06 92.713 347.324 92.713C346.588 92.713 345.932 92.601 345.356 92.377C344.796 92.169 344.316 91.873 343.916 91.489C343.516 91.105 343.204 90.657 342.98 90.145C342.756 89.633 342.628 89.081 342.596 88.489H344.06ZM370.036 85.849C369.428 86.105 368.812 86.273 368.188 86.353C367.564 86.433 366.94 86.497 366.316 86.545C365.212 86.625 364.348 86.873 363.724 87.289C363.116 87.705 362.812 88.337 362.812 89.185C362.812 89.569 362.884 89.905 363.028 90.193C363.188 90.465 363.388 90.697 363.628 90.889C363.884 91.065 364.172 91.201 364.492 91.297C364.828 91.377 365.164 91.417 365.5 91.417C366.076 91.417 366.636 91.345 367.18 91.201C367.724 91.057 368.204 90.841 368.62 90.553C369.052 90.249 369.396 89.873 369.652 89.425C369.908 88.961 370.036 88.417 370.036 87.793V85.849ZM367.612 85.129C367.884 85.097 368.204 85.049 368.572 84.985C368.956 84.921 369.268 84.833 369.508 84.721C369.748 84.609 369.892 84.425 369.94 84.169C370.004 83.897 370.036 83.649 370.036 83.425C370.036 82.689 369.796 82.089 369.316 81.625C368.852 81.145 368.06 80.905 366.94 80.905C366.444 80.905 365.988 80.953 365.572 81.049C365.156 81.129 364.788 81.281 364.468 81.505C364.164 81.713 363.908 82.001 363.7 82.369C363.508 82.721 363.38 83.169 363.316 83.713H361.852C361.9 82.977 362.068 82.353 362.356 81.841C362.644 81.313 363.012 80.889 363.46 80.569C363.924 80.233 364.452 79.993 365.044 79.849C365.652 79.689 366.292 79.609 366.964 79.609C367.588 79.609 368.172 79.681 368.716 79.825C369.276 79.953 369.756 80.169 370.156 80.473C370.572 80.761 370.892 81.153 371.116 81.649C371.356 82.145 371.476 82.753 371.476 83.473V90.241C371.476 90.801 371.572 91.161 371.764 91.321C371.972 91.465 372.38 91.425 372.988 91.201V92.329C372.876 92.361 372.708 92.409 372.484 92.473C372.276 92.537 372.068 92.569 371.86 92.569C371.636 92.569 371.42 92.545 371.212 92.497C370.972 92.465 370.78 92.393 370.636 92.281C370.492 92.153 370.372 92.009 370.276 91.849C370.196 91.673 370.14 91.489 370.108 91.297C370.076 91.089 370.06 90.873 370.06 90.649C369.452 91.321 368.756 91.833 367.972 92.185C367.188 92.537 366.34 92.713 365.428 92.713C364.884 92.713 364.356 92.641 363.844 92.497C363.348 92.353 362.908 92.129 362.524 91.825C362.14 91.521 361.836 91.153 361.612 90.721C361.388 90.273 361.276 89.745 361.276 89.137C361.276 87.025 362.724 85.777 365.62 85.393L367.612 85.129ZM383.524 86.209C383.524 86.913 383.62 87.585 383.812 88.225C384.004 88.849 384.276 89.401 384.628 89.881C384.996 90.345 385.436 90.721 385.948 91.009C386.476 91.281 387.068 91.417 387.724 91.417C388.46 91.417 389.1 91.273 389.644 90.985C390.204 90.681 390.66 90.273 391.012 89.761C391.364 89.249 391.62 88.657 391.78 87.985C391.94 87.297 392.004 86.561 391.972 85.777C391.972 84.993 391.86 84.305 391.636 83.713C391.428 83.105 391.132 82.593 390.748 82.177C390.364 81.761 389.916 81.449 389.404 81.241C388.892 81.017 388.332 80.905 387.724 80.905C387.052 80.905 386.452 81.041 385.924 81.313C385.396 81.585 384.956 81.961 384.604 82.441C384.252 82.905 383.98 83.465 383.788 84.121C383.612 84.761 383.524 85.457 383.524 86.209ZM383.524 97.273H382.084V79.945H383.524V82.129H383.572C383.78 81.729 384.044 81.369 384.364 81.049C384.7 80.729 385.06 80.465 385.444 80.257C385.844 80.049 386.252 79.889 386.668 79.777C387.084 79.665 387.492 79.609 387.892 79.609C388.9 79.609 389.756 79.777 390.46 80.113C391.164 80.449 391.74 80.913 392.188 81.505C392.652 82.081 392.988 82.769 393.196 83.569C393.404 84.369 393.508 85.225 393.508 86.137C393.508 87.001 393.396 87.833 393.172 88.633C392.948 89.433 392.604 90.137 392.14 90.745C391.692 91.337 391.116 91.817 390.412 92.185C389.724 92.537 388.908 92.713 387.964 92.713C387.084 92.713 386.236 92.521 385.42 92.137C384.62 91.737 383.988 91.153 383.524 90.385V97.273ZM398.099 92.377H396.659V79.945H398.099V82.273H398.147C398.547 81.281 399.059 80.593 399.683 80.209C400.323 79.809 401.163 79.609 402.203 79.609V81.169C401.387 81.153 400.715 81.281 400.187 81.553C399.659 81.825 399.235 82.193 398.915 82.657C398.611 83.121 398.395 83.673 398.267 84.313C398.155 84.937 398.099 85.593 398.099 86.281V92.377ZM409.102 92.713C408.302 92.697 407.55 92.553 406.846 92.281C406.158 92.009 405.55 91.601 405.022 91.057C404.51 90.513 404.102 89.833 403.798 89.017C403.494 88.201 403.342 87.249 403.342 86.161C403.342 85.249 403.462 84.401 403.702 83.617C403.942 82.817 404.302 82.121 404.782 81.529C405.262 80.937 405.862 80.473 406.582 80.137C407.302 79.785 408.142 79.609 409.102 79.609C410.078 79.609 410.926 79.785 411.646 80.137C412.366 80.473 412.966 80.937 413.446 81.529C413.926 82.105 414.278 82.793 414.502 83.593C414.742 84.393 414.862 85.249 414.862 86.161C414.862 87.153 414.726 88.049 414.454 88.849C414.182 89.649 413.79 90.337 413.278 90.913C412.782 91.489 412.174 91.937 411.454 92.257C410.75 92.561 409.966 92.713 409.102 92.713ZM413.326 86.161C413.326 85.425 413.246 84.737 413.086 84.097C412.926 83.457 412.678 82.905 412.342 82.441C412.006 81.961 411.574 81.585 411.046 81.313C410.518 81.041 409.87 80.905 409.102 80.905C408.35 80.905 407.702 81.057 407.158 81.361C406.63 81.649 406.198 82.041 405.862 82.537C405.526 83.017 405.278 83.577 405.118 84.217C404.958 84.841 404.878 85.489 404.878 86.161C404.878 86.929 404.966 87.641 405.142 88.297C405.334 88.937 405.606 89.489 405.958 89.953C406.31 90.417 406.75 90.777 407.278 91.033C407.806 91.289 408.414 91.417 409.102 91.417C409.854 91.417 410.494 91.273 411.022 90.985C411.566 90.681 412.006 90.281 412.342 89.785C412.678 89.289 412.926 88.729 413.086 88.105C413.246 87.481 413.326 86.833 413.326 86.161ZM427.094 86.113C427.094 85.409 426.998 84.745 426.806 84.121C426.614 83.481 426.334 82.929 425.966 82.465C425.614 81.985 425.174 81.609 424.646 81.337C424.134 81.049 423.55 80.905 422.894 80.905C422.142 80.905 421.494 81.057 420.95 81.361C420.406 81.649 419.958 82.049 419.606 82.561C419.254 83.073 418.998 83.673 418.838 84.361C418.678 85.033 418.614 85.761 418.646 86.545C418.646 87.329 418.75 88.025 418.958 88.633C419.182 89.225 419.486 89.729 419.87 90.145C420.254 90.561 420.702 90.881 421.214 91.105C421.726 91.313 422.286 91.417 422.894 91.417C423.566 91.417 424.166 91.281 424.694 91.009C425.222 90.737 425.662 90.369 426.014 89.905C426.366 89.425 426.63 88.865 426.806 88.225C426.998 87.569 427.094 86.865 427.094 86.113ZM427.094 75.097H428.534V92.377H427.094V90.193H427.046C426.838 90.609 426.566 90.977 426.23 91.297C425.91 91.601 425.55 91.857 425.15 92.065C424.766 92.273 424.366 92.433 423.95 92.545C423.534 92.657 423.126 92.713 422.726 92.713C421.718 92.713 420.862 92.545 420.158 92.209C419.454 91.873 418.87 91.417 418.406 90.841C417.958 90.249 417.63 89.553 417.422 88.753C417.214 87.953 417.11 87.097 417.11 86.185C417.11 85.321 417.222 84.489 417.446 83.689C417.67 82.889 418.006 82.193 418.454 81.601C418.918 80.993 419.494 80.513 420.182 80.161C420.886 79.793 421.71 79.609 422.654 79.609C423.534 79.609 424.374 79.809 425.174 80.209C425.99 80.593 426.63 81.169 427.094 81.937V75.097ZM440.59 79.945H442.03V92.377H440.59V90.649C440.398 90.873 440.182 91.105 439.942 91.345C439.702 91.585 439.422 91.809 439.102 92.017C438.798 92.209 438.438 92.369 438.022 92.497C437.606 92.641 437.126 92.713 436.582 92.713C435.75 92.713 435.054 92.601 434.494 92.377C433.934 92.137 433.478 91.809 433.126 91.393C432.79 90.977 432.542 90.497 432.382 89.953C432.238 89.393 432.166 88.785 432.166 88.129V79.945H433.605V88.105C433.605 89.177 433.854 90.001 434.35 90.577C434.846 91.137 435.662 91.417 436.798 91.417C437.39 91.417 437.918 91.305 438.382 91.081C438.862 90.841 439.262 90.513 439.582 90.097C439.902 89.681 440.15 89.185 440.326 88.609C440.502 88.033 440.59 87.401 440.59 86.713V79.945ZM454.309 83.857C454.053 82.929 453.613 82.209 452.989 81.697C452.365 81.169 451.573 80.905 450.613 80.905C449.877 80.905 449.245 81.057 448.717 81.361C448.189 81.665 447.757 82.073 447.421 82.585C447.085 83.081 446.837 83.649 446.677 84.289C446.517 84.913 446.437 85.545 446.437 86.185C446.437 86.841 446.509 87.481 446.653 88.105C446.813 88.729 447.061 89.289 447.397 89.785C447.733 90.281 448.165 90.681 448.693 90.985C449.221 91.273 449.861 91.417 450.613 91.417C451.685 91.417 452.541 91.121 453.181 90.529C453.837 89.937 454.253 89.121 454.429 88.081H455.965C455.837 88.769 455.629 89.401 455.341 89.977C455.069 90.537 454.709 91.025 454.261 91.441C453.829 91.841 453.309 92.153 452.701 92.377C452.093 92.601 451.397 92.713 450.613 92.713C449.621 92.713 448.765 92.545 448.045 92.209C447.325 91.873 446.733 91.417 446.269 90.841C445.805 90.249 445.461 89.553 445.237 88.753C445.013 87.953 444.901 87.097 444.901 86.185C444.901 85.321 445.021 84.497 445.261 83.713C445.517 82.913 445.885 82.209 446.365 81.601C446.845 80.993 447.437 80.513 448.141 80.161C448.861 79.793 449.685 79.609 450.613 79.609C452.053 79.609 453.213 79.953 454.093 80.641C454.989 81.329 455.549 82.401 455.773 83.857H454.309ZM463.205 92.425C463.029 92.457 462.797 92.513 462.509 92.593C462.221 92.673 461.901 92.713 461.549 92.713C460.829 92.713 460.277 92.537 459.893 92.185C459.525 91.817 459.341 91.169 459.341 90.241V81.145H457.589V79.945H459.341V76.489H460.781V79.945H463.109V81.145H460.781V89.665C460.781 89.969 460.789 90.233 460.805 90.457C460.821 90.681 460.869 90.865 460.949 91.009C461.029 91.153 461.149 91.257 461.309 91.321C461.485 91.385 461.725 91.417 462.029 91.417C462.221 91.417 462.413 91.401 462.605 91.369C462.813 91.337 463.013 91.297 463.205 91.249V92.425ZM471.991 92.377V79.945H473.431V92.377H471.991ZM471.919 77.233V75.097H473.503V77.233H471.919ZM478.535 92.377H477.095V79.945H478.535V81.673C479.111 81.065 479.703 80.569 480.311 80.185C480.935 79.801 481.679 79.609 482.543 79.609C483.311 79.609 484.023 79.745 484.679 80.017C485.335 80.273 485.887 80.729 486.335 81.385C486.639 81.833 486.815 82.297 486.863 82.777C486.927 83.241 486.959 83.729 486.959 84.241V92.377H485.519V84.265C485.519 83.145 485.271 82.305 484.775 81.745C484.279 81.185 483.455 80.905 482.303 80.905C481.855 80.905 481.447 80.977 481.079 81.121C480.711 81.249 480.375 81.425 480.071 81.649C479.783 81.873 479.535 82.129 479.327 82.417C479.119 82.705 478.959 83.009 478.847 83.329C478.703 83.729 478.615 84.113 478.583 84.481C478.551 84.849 478.535 85.249 478.535 85.681V92.377ZM490.225 92.377V79.945H491.665V92.377H490.225ZM490.153 77.233V75.097H491.737V77.233H490.153ZM499.698 92.425C499.522 92.457 499.29 92.513 499.002 92.593C498.714 92.673 498.394 92.713 498.042 92.713C497.322 92.713 496.77 92.537 496.386 92.185C496.018 91.817 495.834 91.169 495.834 90.241V81.145H494.082V79.945H495.834V76.489H497.274V79.945H499.602V81.145H497.274V89.665C497.274 89.969 497.282 90.233 497.298 90.457C497.314 90.681 497.362 90.865 497.442 91.009C497.522 91.153 497.642 91.257 497.802 91.321C497.978 91.385 498.218 91.417 498.522 91.417C498.714 91.417 498.906 91.401 499.098 91.369C499.306 91.337 499.506 91.297 499.698 91.249V92.425ZM501.803 92.377V79.945H503.243V92.377H501.803ZM501.731 77.233V75.097H503.315V77.233H501.731ZM515.044 85.849C514.436 86.105 513.82 86.273 513.196 86.353C512.572 86.433 511.948 86.497 511.324 86.545C510.22 86.625 509.356 86.873 508.732 87.289C508.124 87.705 507.82 88.337 507.82 89.185C507.82 89.569 507.892 89.905 508.036 90.193C508.196 90.465 508.396 90.697 508.636 90.889C508.892 91.065 509.18 91.201 509.5 91.297C509.836 91.377 510.172 91.417 510.508 91.417C511.084 91.417 511.644 91.345 512.188 91.201C512.732 91.057 513.212 90.841 513.628 90.553C514.06 90.249 514.404 89.873 514.66 89.425C514.916 88.961 515.044 88.417 515.044 87.793V85.849ZM512.62 85.129C512.892 85.097 513.212 85.049 513.58 84.985C513.964 84.921 514.276 84.833 514.516 84.721C514.756 84.609 514.9 84.425 514.948 84.169C515.012 83.897 515.044 83.649 515.044 83.425C515.044 82.689 514.804 82.089 514.324 81.625C513.86 81.145 513.068 80.905 511.948 80.905C511.452 80.905 510.996 80.953 510.58 81.049C510.164 81.129 509.796 81.281 509.476 81.505C509.172 81.713 508.916 82.001 508.708 82.369C508.516 82.721 508.388 83.169 508.324 83.713H506.86C506.908 82.977 507.076 82.353 507.364 81.841C507.652 81.313 508.02 80.889 508.468 80.569C508.932 80.233 509.46 79.993 510.052 79.849C510.66 79.689 511.3 79.609 511.972 79.609C512.596 79.609 513.18 79.681 513.724 79.825C514.284 79.953 514.764 80.169 515.164 80.473C515.58 80.761 515.9 81.153 516.124 81.649C516.364 82.145 516.484 82.753 516.484 83.473V90.241C516.484 90.801 516.58 91.161 516.772 91.321C516.98 91.465 517.388 91.425 517.996 91.201V92.329C517.884 92.361 517.716 92.409 517.492 92.473C517.284 92.537 517.076 92.569 516.868 92.569C516.644 92.569 516.428 92.545 516.22 92.497C515.98 92.465 515.788 92.393 515.644 92.281C515.5 92.153 515.38 92.009 515.284 91.849C515.204 91.673 515.148 91.489 515.116 91.297C515.084 91.089 515.068 90.873 515.068 90.649C514.46 91.321 513.764 91.833 512.98 92.185C512.196 92.537 511.348 92.713 510.436 92.713C509.892 92.713 509.364 92.641 508.852 92.497C508.356 92.353 507.916 92.129 507.532 91.825C507.148 91.521 506.844 91.153 506.62 90.721C506.396 90.273 506.284 89.745 506.284 89.137C506.284 87.025 507.732 85.777 510.628 85.393L512.62 85.129ZM524.612 92.425C524.436 92.457 524.204 92.513 523.916 92.593C523.628 92.673 523.308 92.713 522.956 92.713C522.236 92.713 521.684 92.537 521.3 92.185C520.932 91.817 520.748 91.169 520.748 90.241V81.145H518.996V79.945H520.748V76.489H522.188V79.945H524.516V81.145H522.188V89.665C522.188 89.969 522.196 90.233 522.212 90.457C522.228 90.681 522.276 90.865 522.356 91.009C522.436 91.153 522.556 91.257 522.716 91.321C522.892 91.385 523.132 91.417 523.436 91.417C523.628 91.417 523.82 91.401 524.012 91.369C524.22 91.337 524.42 91.297 524.612 91.249V92.425ZM531.867 92.713C531.067 92.697 530.315 92.553 529.611 92.281C528.923 92.009 528.315 91.601 527.787 91.057C527.275 90.513 526.867 89.833 526.563 89.017C526.259 88.201 526.107 87.249 526.107 86.161C526.107 85.249 526.227 84.401 526.467 83.617C526.707 82.817 527.067 82.121 527.547 81.529C528.027 80.937 528.627 80.473 529.347 80.137C530.067 79.785 530.907 79.609 531.867 79.609C532.843 79.609 533.691 79.785 534.411 80.137C535.131 80.473 535.731 80.937 536.211 81.529C536.691 82.105 537.043 82.793 537.267 83.593C537.507 84.393 537.627 85.249 537.627 86.161C537.627 87.153 537.491 88.049 537.219 88.849C536.947 89.649 536.555 90.337 536.043 90.913C535.547 91.489 534.939 91.937 534.219 92.257C533.515 92.561 532.731 92.713 531.867 92.713ZM536.091 86.161C536.091 85.425 536.011 84.737 535.851 84.097C535.691 83.457 535.443 82.905 535.107 82.441C534.771 81.961 534.339 81.585 533.811 81.313C533.283 81.041 532.635 80.905 531.867 80.905C531.115 80.905 530.467 81.057 529.923 81.361C529.395 81.649 528.963 82.041 528.627 82.537C528.291 83.017 528.043 83.577 527.883 84.217C527.723 84.841 527.643 85.489 527.643 86.161C527.643 86.929 527.731 87.641 527.907 88.297C528.099 88.937 528.371 89.489 528.723 89.953C529.075 90.417 529.515 90.777 530.043 91.033C530.571 91.289 531.179 91.417 531.867 91.417C532.619 91.417 533.259 91.273 533.787 90.985C534.331 90.681 534.771 90.281 535.107 89.785C535.443 89.289 535.691 88.729 535.851 88.105C536.011 87.481 536.091 86.833 536.091 86.161ZM541.771 92.377H540.331V79.945H541.771V82.273H541.819C542.219 81.281 542.731 80.593 543.355 80.209C543.995 79.809 544.835 79.609 545.875 79.609V81.169C545.059 81.153 544.387 81.281 543.859 81.553C543.331 81.825 542.907 82.193 542.587 82.657C542.283 83.121 542.067 83.673 541.939 84.313C541.827 84.937 541.771 85.593 541.771 86.281V92.377ZM548.52 93.097C548.52 93.801 548.352 94.361 548.016 94.777C547.696 95.209 547.28 95.505 546.768 95.665V94.777C546.96 94.649 547.144 94.473 547.32 94.249C547.496 94.025 547.584 93.673 547.584 93.193V92.377H546.768V90.265H548.52V93.097ZM560.92 92.377H559.48V79.945H560.92V82.273H560.968C561.368 81.281 561.88 80.593 562.504 80.209C563.144 79.809 563.984 79.609 565.024 79.609V81.169C564.208 81.153 563.536 81.281 563.008 81.553C562.48 81.825 562.056 82.193 561.736 82.657C561.432 83.121 561.216 83.673 561.088 84.313C560.976 84.937 560.92 85.593 560.92 86.281V92.377ZM575.978 85.297C575.978 84.689 575.89 84.121 575.714 83.593C575.554 83.049 575.306 82.585 574.97 82.201C574.65 81.801 574.242 81.489 573.746 81.265C573.25 81.025 572.682 80.905 572.042 80.905C571.402 80.905 570.834 81.025 570.338 81.265C569.858 81.505 569.442 81.825 569.09 82.225C568.754 82.625 568.482 83.089 568.274 83.617C568.066 84.145 567.93 84.705 567.866 85.297H575.978ZM567.866 86.497C567.866 87.169 567.954 87.809 568.13 88.417C568.306 89.009 568.562 89.529 568.898 89.977C569.25 90.409 569.69 90.761 570.218 91.033C570.746 91.289 571.354 91.417 572.042 91.417C572.986 91.417 573.794 91.169 574.466 90.673C575.138 90.177 575.586 89.473 575.81 88.561H577.418C577.242 89.153 577.01 89.705 576.722 90.217C576.434 90.713 576.074 91.153 575.642 91.537C575.21 91.905 574.698 92.193 574.106 92.401C573.514 92.609 572.826 92.713 572.042 92.713C571.05 92.713 570.194 92.545 569.474 92.209C568.754 91.873 568.162 91.417 567.698 90.841C567.234 90.249 566.89 89.561 566.666 88.777C566.442 87.977 566.33 87.121 566.33 86.209C566.33 85.297 566.458 84.441 566.714 83.641C566.986 82.841 567.362 82.145 567.842 81.553C568.338 80.945 568.938 80.473 569.642 80.137C570.346 79.785 571.146 79.609 572.042 79.609C573.754 79.609 575.098 80.201 576.074 81.385C577.05 82.553 577.53 84.257 577.514 86.497H567.866ZM588.45 85.849C587.842 86.105 587.226 86.273 586.602 86.353C585.978 86.433 585.354 86.497 584.73 86.545C583.626 86.625 582.762 86.873 582.138 87.289C581.53 87.705 581.226 88.337 581.226 89.185C581.226 89.569 581.298 89.905 581.442 90.193C581.602 90.465 581.802 90.697 582.042 90.889C582.298 91.065 582.586 91.201 582.906 91.297C583.242 91.377 583.578 91.417 583.914 91.417C584.49 91.417 585.05 91.345 585.594 91.201C586.138 91.057 586.618 90.841 587.034 90.553C587.466 90.249 587.81 89.873 588.066 89.425C588.322 88.961 588.45 88.417 588.45 87.793V85.849ZM586.026 85.129C586.298 85.097 586.618 85.049 586.986 84.985C587.37 84.921 587.682 84.833 587.922 84.721C588.162 84.609 588.306 84.425 588.354 84.169C588.418 83.897 588.45 83.649 588.45 83.425C588.45 82.689 588.21 82.089 587.73 81.625C587.266 81.145 586.474 80.905 585.354 80.905C584.858 80.905 584.402 80.953 583.986 81.049C583.57 81.129 583.202 81.281 582.882 81.505C582.578 81.713 582.322 82.001 582.114 82.369C581.922 82.721 581.794 83.169 581.73 83.713H580.266C580.314 82.977 580.482 82.353 580.77 81.841C581.058 81.313 581.426 80.889 581.874 80.569C582.338 80.233 582.866 79.993 583.458 79.849C584.066 79.689 584.706 79.609 585.378 79.609C586.002 79.609 586.586 79.681 587.13 79.825C587.69 79.953 588.17 80.169 588.57 80.473C588.986 80.761 589.306 81.153 589.53 81.649C589.77 82.145 589.89 82.753 589.89 83.473V90.241C589.89 90.801 589.986 91.161 590.178 91.321C590.386 91.465 590.794 91.425 591.402 91.201V92.329C591.29 92.361 591.122 92.409 590.898 92.473C590.69 92.537 590.482 92.569 590.274 92.569C590.05 92.569 589.834 92.545 589.626 92.497C589.386 92.465 589.194 92.393 589.05 92.281C588.906 92.153 588.786 92.009 588.69 91.849C588.61 91.673 588.554 91.489 588.522 91.297C588.49 91.089 588.474 90.873 588.474 90.649C587.866 91.321 587.17 91.833 586.386 92.185C585.602 92.537 584.754 92.713 583.842 92.713C583.298 92.713 582.77 92.641 582.258 92.497C581.762 92.353 581.322 92.129 580.938 91.825C580.554 91.521 580.25 91.153 580.026 90.721C579.802 90.273 579.69 89.745 579.69 89.137C579.69 87.025 581.138 85.777 584.034 85.393L586.026 85.129ZM603.25 86.113C603.25 85.409 603.154 84.745 602.962 84.121C602.77 83.481 602.49 82.929 602.122 82.465C601.77 81.985 601.33 81.609 600.802 81.337C600.29 81.049 599.706 80.905 599.05 80.905C598.298 80.905 597.65 81.057 597.106 81.361C596.562 81.649 596.114 82.049 595.762 82.561C595.41 83.073 595.154 83.673 594.994 84.361C594.834 85.033 594.77 85.761 594.802 86.545C594.802 87.329 594.906 88.025 595.114 88.633C595.338 89.225 595.642 89.729 596.026 90.145C596.41 90.561 596.858 90.881 597.37 91.105C597.882 91.313 598.442 91.417 599.05 91.417C599.722 91.417 600.322 91.281 600.85 91.009C601.378 90.737 601.818 90.369 602.17 89.905C602.522 89.425 602.786 88.865 602.962 88.225C603.154 87.569 603.25 86.865 603.25 86.113ZM603.25 75.097H604.69V92.377H603.25V90.193H603.202C602.994 90.609 602.722 90.977 602.386 91.297C602.066 91.601 601.706 91.857 601.306 92.065C600.922 92.273 600.522 92.433 600.106 92.545C599.69 92.657 599.282 92.713 598.882 92.713C597.874 92.713 597.018 92.545 596.314 92.209C595.61 91.873 595.026 91.417 594.562 90.841C594.114 90.249 593.786 89.553 593.578 88.753C593.37 87.953 593.266 87.097 593.266 86.185C593.266 85.321 593.378 84.489 593.602 83.689C593.826 82.889 594.162 82.193 594.61 81.601C595.074 80.993 595.65 80.513 596.338 80.161C597.042 79.793 597.866 79.609 598.81 79.609C599.69 79.609 600.53 79.809 601.33 80.209C602.146 80.593 602.786 81.169 603.25 81.937V75.097ZM616.249 92.377H614.809V79.945H616.249V81.817H616.297C616.665 81.097 617.193 80.553 617.881 80.185C618.569 79.801 619.321 79.609 620.137 79.609C620.713 79.609 621.201 79.673 621.601 79.801C622.001 79.929 622.337 80.105 622.609 80.329C622.897 80.537 623.129 80.785 623.305 81.073C623.497 81.361 623.657 81.673 623.785 82.009C624.201 81.193 624.753 80.593 625.441 80.209C626.145 79.809 626.945 79.609 627.841 79.609C628.689 79.609 629.361 79.753 629.857 80.041C630.369 80.313 630.761 80.681 631.033 81.145C631.305 81.593 631.481 82.113 631.561 82.705C631.657 83.297 631.705 83.905 631.705 84.529V92.377H630.265V83.785C630.265 82.889 630.073 82.185 629.689 81.673C629.321 81.161 628.625 80.905 627.601 80.905C627.073 80.905 626.561 81.025 626.065 81.265C625.585 81.489 625.161 81.841 624.793 82.321C624.633 82.529 624.497 82.777 624.385 83.065C624.289 83.337 624.209 83.625 624.145 83.929C624.081 84.233 624.033 84.537 624.001 84.841C623.985 85.145 623.977 85.425 623.977 85.681V92.377H622.537V83.785C622.537 82.889 622.345 82.185 621.961 81.673C621.593 81.161 620.897 80.905 619.873 80.905C619.345 80.905 618.833 81.025 618.337 81.265C617.857 81.489 617.433 81.841 617.065 82.321C616.905 82.529 616.769 82.777 616.657 83.065C616.561 83.337 616.481 83.625 616.417 83.929C616.353 84.233 616.305 84.537 616.273 84.841C616.257 85.145 616.249 85.425 616.249 85.681V92.377ZM634.898 95.761C635.09 95.793 635.282 95.825 635.474 95.857C635.682 95.889 635.89 95.905 636.098 95.905C636.498 95.905 636.826 95.777 637.082 95.521C637.338 95.265 637.546 94.953 637.706 94.585C637.882 94.233 638.026 93.857 638.138 93.457C638.25 93.073 638.378 92.745 638.522 92.473L633.698 79.945H635.306L639.29 90.625L643.274 79.945H644.834L640.202 92.209C639.914 92.993 639.634 93.697 639.362 94.321C639.106 94.945 638.826 95.473 638.522 95.905C638.234 96.353 637.906 96.689 637.538 96.913C637.186 97.153 636.762 97.273 636.266 97.273C636.01 97.273 635.762 97.257 635.522 97.225C635.298 97.193 635.09 97.153 634.898 97.105V95.761ZM11.828 114.113C11.828 113.409 11.732 112.745 11.54 112.121C11.348 111.481 11.068 110.929 10.7 110.465C10.348 109.985 9.908 109.609 9.38 109.337C8.868 109.049 8.284 108.905 7.628 108.905C6.876 108.905 6.228 109.057 5.684 109.361C5.14 109.649 4.692 110.049 4.34 110.561C3.988 111.073 3.732 111.673 3.572 112.361C3.412 113.033 3.348 113.761 3.38 114.545C3.38 115.329 3.484 116.025 3.692 116.633C3.916 117.225 4.22 117.729 4.604 118.145C4.988 118.561 5.436 118.881 5.948 119.105C6.46 119.313 7.02 119.417 7.628 119.417C8.3 119.417 8.9 119.281 9.428 119.009C9.956 118.737 10.396 118.369 10.748 117.905C11.1 117.425 11.364 116.865 11.54 116.225C11.732 115.569 11.828 114.865 11.828 114.113ZM11.828 103.097H13.268V120.377H11.828V118.193H11.78C11.572 118.609 11.3 118.977 10.964 119.297C10.644 119.601 10.284 119.857 9.884 120.065C9.5 120.273 9.1 120.433 8.684 120.545C8.268 120.657 7.86 120.713 7.46 120.713C6.452 120.713 5.596 120.545 4.892 120.209C4.188 119.873 3.604 119.417 3.14 118.841C2.692 118.249 2.364 117.553 2.156 116.753C1.948 115.953 1.844 115.097 1.844 114.185C1.844 113.321 1.956 112.489 2.18 111.689C2.404 110.889 2.74 110.193 3.188 109.601C3.652 108.993 4.228 108.513 4.916 108.161C5.62 107.793 6.444 107.609 7.388 107.609C8.268 107.609 9.108 107.809 9.908 108.209C10.724 108.593 11.364 109.169 11.828 109.937V103.097ZM25.8999 113.297C25.8999 112.689 25.8119 112.121 25.6359 111.593C25.4759 111.049 25.2279 110.585 24.8919 110.201C24.5719 109.801 24.1639 109.489 23.6679 109.265C23.1719 109.025 22.6039 108.905 21.9639 108.905C21.3239 108.905 20.7559 109.025 20.2599 109.265C19.7799 109.505 19.3639 109.825 19.0119 110.225C18.6759 110.625 18.4039 111.089 18.1959 111.617C17.9879 112.145 17.8519 112.705 17.7879 113.297H25.8999ZM17.7879 114.497C17.7879 115.169 17.8759 115.809 18.0519 116.417C18.2279 117.009 18.4839 117.529 18.8199 117.977C19.1719 118.409 19.6119 118.761 20.1399 119.033C20.6679 119.289 21.2759 119.417 21.9639 119.417C22.9079 119.417 23.7159 119.169 24.3879 118.673C25.0599 118.177 25.5079 117.473 25.7319 116.561H27.3399C27.1639 117.153 26.9319 117.705 26.6439 118.217C26.3559 118.713 25.9959 119.153 25.5639 119.537C25.1319 119.905 24.6199 120.193 24.0279 120.401C23.4359 120.609 22.7479 120.713 21.9639 120.713C20.9719 120.713 20.1159 120.545 19.3959 120.209C18.6759 119.873 18.0839 119.417 17.6199 118.841C17.1559 118.249 16.8119 117.561 16.5879 116.777C16.3639 115.977 16.2519 115.121 16.2519 114.209C16.2519 113.297 16.3799 112.441 16.6359 111.641C16.9079 110.841 17.2839 110.145 17.7639 109.553C18.2599 108.945 18.8599 108.473 19.5639 108.137C20.2679 107.785 21.0679 107.609 21.9639 107.609C23.6759 107.609 25.0199 108.201 25.9959 109.385C26.9719 110.553 27.4519 112.257 27.4359 114.497H17.7879ZM31.4838 120.377H30.0438V107.945H31.4838V109.817H31.5318C31.8998 109.097 32.4278 108.553 33.1158 108.185C33.8038 107.801 34.5558 107.609 35.3718 107.609C35.9478 107.609 36.4358 107.673 36.8358 107.801C37.2358 107.929 37.5718 108.105 37.8438 108.329C38.1318 108.537 38.3638 108.785 38.5398 109.073C38.7318 109.361 38.8918 109.673 39.0198 110.009C39.4358 109.193 39.9878 108.593 40.6758 108.209C41.3798 107.809 42.1798 107.609 43.0758 107.609C43.9238 107.609 44.5958 107.753 45.0918 108.041C45.6038 108.313 45.9958 108.681 46.2678 109.145C46.5398 109.593 46.7158 110.113 46.7958 110.705C46.8918 111.297 46.9398 111.905 46.9398 112.529V120.377H45.4998V111.785C45.4998 110.889 45.3078 110.185 44.9238 109.673C44.5558 109.161 43.8598 108.905 42.8358 108.905C42.3078 108.905 41.7958 109.025 41.2998 109.265C40.8198 109.489 40.3958 109.841 40.0278 110.321C39.8678 110.529 39.7318 110.777 39.6198 111.065C39.5238 111.337 39.4438 111.625 39.3798 111.929C39.3158 112.233 39.2678 112.537 39.2358 112.841C39.2198 113.145 39.2118 113.425 39.2118 113.681V120.377H37.7718V111.785C37.7718 110.889 37.5798 110.185 37.1958 109.673C36.8278 109.161 36.1318 108.905 35.1078 108.905C34.5798 108.905 34.0678 109.025 33.5718 109.265C33.0918 109.489 32.6678 109.841 32.2998 110.321C32.1398 110.529 32.0038 110.777 31.8918 111.065C31.7958 111.337 31.7158 111.625 31.6518 111.929C31.5878 112.233 31.5398 112.537 31.5078 112.841C31.4918 113.145 31.4838 113.425 31.4838 113.681V120.377ZM55.172 120.713C54.372 120.697 53.62 120.553 52.916 120.281C52.228 120.009 51.62 119.601 51.092 119.057C50.58 118.513 50.172 117.833 49.868 117.017C49.564 116.201 49.412 115.249 49.412 114.161C49.412 113.249 49.532 112.401 49.772 111.617C50.012 110.817 50.372 110.121 50.852 109.529C51.332 108.937 51.932 108.473 52.652 108.137C53.372 107.785 54.212 107.609 55.172 107.609C56.148 107.609 56.996 107.785 57.716 108.137C58.436 108.473 59.036 108.937 59.516 109.529C59.996 110.105 60.348 110.793 60.572 111.593C60.812 112.393 60.932 113.249 60.932 114.161C60.932 115.153 60.796 116.049 60.524 116.849C60.252 117.649 59.86 118.337 59.348 118.913C58.852 119.489 58.244 119.937 57.524 120.257C56.82 120.561 56.036 120.713 55.172 120.713ZM59.396 114.161C59.396 113.425 59.316 112.737 59.156 112.097C58.996 111.457 58.748 110.905 58.412 110.441C58.076 109.961 57.644 109.585 57.116 109.313C56.588 109.041 55.94 108.905 55.172 108.905C54.42 108.905 53.772 109.057 53.228 109.361C52.7 109.649 52.268 110.041 51.932 110.537C51.596 111.017 51.348 111.577 51.188 112.217C51.028 112.841 50.948 113.489 50.948 114.161C50.948 114.929 51.036 115.641 51.212 116.297C51.404 116.937 51.676 117.489 52.028 117.953C52.38 118.417 52.82 118.777 53.348 119.033C53.876 119.289 54.484 119.417 55.172 119.417C55.924 119.417 56.564 119.273 57.092 118.985C57.636 118.681 58.076 118.281 58.412 117.785C58.748 117.289 58.996 116.729 59.156 116.105C59.316 115.481 59.396 114.833 59.396 114.161ZM65.0039 120.377H63.5639V107.945H65.0039V109.673C65.5799 109.065 66.1719 108.569 66.7799 108.185C67.4039 107.801 68.1479 107.609 69.0119 107.609C69.7799 107.609 70.4919 107.745 71.1479 108.017C71.8039 108.273 72.3559 108.729 72.8039 109.385C73.1079 109.833 73.2839 110.297 73.3319 110.777C73.3959 111.241 73.4279 111.729 73.4279 112.241V120.377H71.9879V112.265C71.9879 111.145 71.7399 110.305 71.2439 109.745C70.7479 109.185 69.9239 108.905 68.7719 108.905C68.3239 108.905 67.9159 108.977 67.5479 109.121C67.1799 109.249 66.8439 109.425 66.5399 109.649C66.2519 109.873 66.0039 110.129 65.7959 110.417C65.5879 110.705 65.4279 111.009 65.3159 111.329C65.1719 111.729 65.0839 112.113 65.0519 112.481C65.0199 112.849 65.0039 113.249 65.0039 113.681V120.377ZM77.7399 116.489C77.9639 117.561 78.3639 118.321 78.9399 118.769C79.5319 119.201 80.3719 119.417 81.4599 119.417C81.9879 119.417 82.4439 119.353 82.8279 119.225C83.2119 119.097 83.5239 118.929 83.7639 118.721C84.0199 118.497 84.2119 118.249 84.3399 117.977C84.4679 117.705 84.5319 117.417 84.5319 117.113C84.5319 116.505 84.3319 116.057 83.9319 115.769C83.5479 115.465 83.0599 115.233 82.4679 115.073C81.8759 114.897 81.2359 114.753 80.5479 114.641C79.8599 114.513 79.2199 114.329 78.6279 114.089C78.0359 113.849 77.5399 113.505 77.1399 113.057C76.7559 112.609 76.5639 111.977 76.5639 111.161C76.5639 110.121 76.9399 109.273 77.6919 108.617C78.4599 107.945 79.5399 107.609 80.9319 107.609C82.2759 107.609 83.3639 107.913 84.1959 108.521C85.0439 109.113 85.5559 110.113 85.7319 111.521H84.2679C84.1399 110.561 83.7719 109.889 83.1639 109.505C82.5719 109.105 81.8199 108.905 80.9079 108.905C79.9959 108.905 79.2999 109.105 78.8199 109.505C78.3399 109.889 78.0999 110.401 78.0999 111.041C78.0999 111.601 78.2919 112.033 78.6759 112.337C79.0759 112.625 79.5719 112.865 80.1639 113.057C80.7559 113.233 81.3959 113.393 82.0839 113.537C82.7719 113.681 83.4119 113.889 84.0039 114.161C84.5959 114.417 85.0839 114.769 85.4679 115.217C85.8679 115.665 86.0679 116.289 86.0679 117.089C86.0679 117.681 85.9399 118.209 85.6839 118.673C85.4279 119.121 85.0759 119.497 84.6279 119.801C84.1799 120.105 83.6439 120.329 83.0199 120.473C82.4119 120.633 81.7399 120.713 81.0039 120.713C80.2679 120.713 79.6119 120.601 79.0359 120.377C78.4759 120.169 77.9959 119.873 77.5959 119.489C77.1959 119.105 76.8839 118.657 76.6599 118.145C76.4359 117.633 76.3079 117.081 76.2759 116.489H77.7399ZM93.2679 120.425C93.0919 120.457 92.8599 120.513 92.5719 120.593C92.2839 120.673 91.9639 120.713 91.6119 120.713C90.8919 120.713 90.3399 120.537 89.9559 120.185C89.5879 119.817 89.4039 119.169 89.4039 118.241V109.145H87.6519V107.945H89.4039V104.489H90.8439V107.945H93.1719V109.145H90.8439V117.665C90.8439 117.969 90.8519 118.233 90.8679 118.457C90.8839 118.681 90.9319 118.865 91.0119 119.009C91.0919 119.153 91.2119 119.257 91.3719 119.321C91.5479 119.385 91.7879 119.417 92.0919 119.417C92.2839 119.417 92.4759 119.401 92.6679 119.369C92.8759 119.337 93.0759 119.297 93.2679 119.249V120.425ZM97.0916 120.377H95.6516V107.945H97.0916V110.273H97.1396C97.5396 109.281 98.0516 108.593 98.6756 108.209C99.3156 107.809 100.156 107.609 101.196 107.609V109.169C100.38 109.153 99.7076 109.281 99.1796 109.553C98.6516 109.825 98.2276 110.193 97.9076 110.657C97.6036 111.121 97.3876 111.673 97.2596 112.313C97.1476 112.937 97.0916 113.593 97.0916 114.281V120.377ZM111.708 113.849C111.1 114.105 110.484 114.273 109.86 114.353C109.236 114.433 108.612 114.497 107.988 114.545C106.884 114.625 106.02 114.873 105.396 115.289C104.788 115.705 104.484 116.337 104.484 117.185C104.484 117.569 104.556 117.905 104.7 118.193C104.86 118.465 105.06 118.697 105.3 118.889C105.556 119.065 105.844 119.201 106.164 119.297C106.5 119.377 106.836 119.417 107.172 119.417C107.748 119.417 108.308 119.345 108.852 119.201C109.396 119.057 109.876 118.841 110.292 118.553C110.724 118.249 111.068 117.873 111.324 117.425C111.58 116.961 111.708 116.417 111.708 115.793V113.849ZM109.284 113.129C109.556 113.097 109.876 113.049 110.244 112.985C110.628 112.921 110.94 112.833 111.18 112.721C111.42 112.609 111.564 112.425 111.612 112.169C111.676 111.897 111.708 111.649 111.708 111.425C111.708 110.689 111.468 110.089 110.988 109.625C110.524 109.145 109.732 108.905 108.612 108.905C108.116 108.905 107.66 108.953 107.244 109.049C106.828 109.129 106.46 109.281 106.14 109.505C105.836 109.713 105.58 110.001 105.372 110.369C105.18 110.721 105.052 111.169 104.988 111.713H103.524C103.572 110.977 103.74 110.353 104.028 109.841C104.316 109.313 104.684 108.889 105.132 108.569C105.596 108.233 106.124 107.993 106.716 107.849C107.324 107.689 107.964 107.609 108.636 107.609C109.26 107.609 109.844 107.681 110.388 107.825C110.948 107.953 111.428 108.169 111.828 108.473C112.244 108.761 112.564 109.153 112.788 109.649C113.028 110.145 113.148 110.753 113.148 111.473V118.241C113.148 118.801 113.244 119.161 113.436 119.321C113.644 119.465 114.052 119.425 114.66 119.201V120.329C114.548 120.361 114.38 120.409 114.156 120.473C113.948 120.537 113.74 120.569 113.532 120.569C113.308 120.569 113.092 120.545 112.884 120.497C112.644 120.465 112.452 120.393 112.308 120.281C112.164 120.153 112.044 120.009 111.948 119.849C111.868 119.673 111.812 119.489 111.78 119.297C111.748 119.089 111.732 118.873 111.732 118.649C111.124 119.321 110.428 119.833 109.644 120.185C108.86 120.537 108.012 120.713 107.1 120.713C106.556 120.713 106.028 120.641 105.516 120.497C105.02 120.353 104.58 120.129 104.196 119.825C103.812 119.521 103.508 119.153 103.284 118.721C103.06 118.273 102.948 117.745 102.948 117.137C102.948 115.025 104.396 113.777 107.292 113.393L109.284 113.129ZM121.276 120.425C121.1 120.457 120.868 120.513 120.58 120.593C120.292 120.673 119.972 120.713 119.62 120.713C118.9 120.713 118.348 120.537 117.964 120.185C117.596 119.817 117.412 119.169 117.412 118.241V109.145H115.66V107.945H117.412V104.489H118.852V107.945H121.18V109.145H118.852V117.665C118.852 117.969 118.86 118.233 118.876 118.457C118.892 118.681 118.94 118.865 119.02 119.009C119.1 119.153 119.22 119.257 119.38 119.321C119.556 119.385 119.796 119.417 120.1 119.417C120.292 119.417 120.484 119.401 120.676 119.369C120.884 119.337 121.084 119.297 121.276 119.249V120.425ZM123.382 120.377V107.945H124.822V120.377H123.382ZM123.31 105.233V103.097H124.894V105.233H123.31ZM133.43 120.713C132.63 120.697 131.878 120.553 131.174 120.281C130.486 120.009 129.878 119.601 129.35 119.057C128.838 118.513 128.43 117.833 128.126 117.017C127.822 116.201 127.67 115.249 127.67 114.161C127.67 113.249 127.79 112.401 128.03 111.617C128.27 110.817 128.63 110.121 129.11 109.529C129.59 108.937 130.19 108.473 130.91 108.137C131.63 107.785 132.47 107.609 133.43 107.609C134.406 107.609 135.254 107.785 135.974 108.137C136.694 108.473 137.294 108.937 137.774 109.529C138.254 110.105 138.606 110.793 138.83 111.593C139.07 112.393 139.19 113.249 139.19 114.161C139.19 115.153 139.054 116.049 138.782 116.849C138.51 117.649 138.118 118.337 137.606 118.913C137.11 119.489 136.502 119.937 135.782 120.257C135.078 120.561 134.294 120.713 133.43 120.713ZM137.654 114.161C137.654 113.425 137.574 112.737 137.414 112.097C137.254 111.457 137.006 110.905 136.67 110.441C136.334 109.961 135.902 109.585 135.374 109.313C134.846 109.041 134.198 108.905 133.43 108.905C132.678 108.905 132.03 109.057 131.486 109.361C130.958 109.649 130.526 110.041 130.19 110.537C129.854 111.017 129.606 111.577 129.446 112.217C129.286 112.841 129.206 113.489 129.206 114.161C129.206 114.929 129.294 115.641 129.47 116.297C129.662 116.937 129.934 117.489 130.286 117.953C130.638 118.417 131.078 118.777 131.606 119.033C132.134 119.289 132.742 119.417 133.43 119.417C134.182 119.417 134.822 119.273 135.35 118.985C135.894 118.681 136.334 118.281 136.67 117.785C137.006 117.289 137.254 116.729 137.414 116.105C137.574 115.481 137.654 114.833 137.654 114.161ZM143.262 120.377H141.822V107.945H143.262V109.673C143.838 109.065 144.43 108.569 145.038 108.185C145.662 107.801 146.406 107.609 147.27 107.609C148.038 107.609 148.75 107.745 149.406 108.017C150.062 108.273 150.614 108.729 151.062 109.385C151.366 109.833 151.542 110.297 151.59 110.777C151.654 111.241 151.686 111.729 151.686 112.241V120.377H150.246V112.265C150.246 111.145 149.998 110.305 149.502 109.745C149.006 109.185 148.182 108.905 147.03 108.905C146.582 108.905 146.174 108.977 145.806 109.121C145.438 109.249 145.102 109.425 144.798 109.649C144.51 109.873 144.262 110.129 144.054 110.417C143.846 110.705 143.686 111.009 143.574 111.329C143.43 111.729 143.342 112.113 143.31 112.481C143.278 112.849 143.262 113.249 143.262 113.681V120.377ZM163.445 114.209C163.445 114.913 163.541 115.585 163.733 116.225C163.925 116.849 164.197 117.401 164.549 117.881C164.917 118.345 165.357 118.721 165.869 119.009C166.397 119.281 166.989 119.417 167.645 119.417C168.381 119.417 169.021 119.273 169.565 118.985C170.125 118.681 170.581 118.273 170.933 117.761C171.285 117.249 171.541 116.657 171.701 115.985C171.861 115.297 171.925 114.561 171.893 113.777C171.893 112.993 171.781 112.305 171.557 111.713C171.349 111.105 171.053 110.593 170.669 110.177C170.285 109.761 169.837 109.449 169.325 109.241C168.813 109.017 168.253 108.905 167.645 108.905C166.973 108.905 166.373 109.041 165.845 109.313C165.317 109.585 164.877 109.961 164.525 110.441C164.173 110.905 163.901 111.465 163.709 112.121C163.533 112.761 163.445 113.457 163.445 114.209ZM163.445 125.273H162.005V107.945H163.445V110.129H163.493C163.701 109.729 163.965 109.369 164.285 109.049C164.621 108.729 164.981 108.465 165.365 108.257C165.765 108.049 166.173 107.889 166.589 107.777C167.005 107.665 167.413 107.609 167.813 107.609C168.821 107.609 169.677 107.777 170.381 108.113C171.085 108.449 171.661 108.913 172.109 109.505C172.573 110.081 172.909 110.769 173.117 111.569C173.325 112.369 173.429 113.225 173.429 114.137C173.429 115.001 173.317 115.833 173.093 116.633C172.869 117.433 172.525 118.137 172.061 118.745C171.613 119.337 171.037 119.817 170.333 120.185C169.645 120.537 168.829 120.713 167.885 120.713C167.005 120.713 166.157 120.521 165.341 120.137C164.541 119.737 163.909 119.153 163.445 118.385V125.273ZM178.021 120.377H176.581V107.945H178.021V110.273H178.069C178.469 109.281 178.981 108.593 179.605 108.209C180.245 107.809 181.085 107.609 182.125 107.609V109.169C181.309 109.153 180.637 109.281 180.109 109.553C179.581 109.825 179.157 110.193 178.837 110.657C178.533 111.121 178.317 111.673 178.189 112.313C178.077 112.937 178.021 113.593 178.021 114.281V120.377ZM189.024 120.713C188.224 120.697 187.472 120.553 186.768 120.281C186.08 120.009 185.472 119.601 184.944 119.057C184.432 118.513 184.024 117.833 183.72 117.017C183.416 116.201 183.264 115.249 183.264 114.161C183.264 113.249 183.384 112.401 183.624 111.617C183.864 110.817 184.224 110.121 184.704 109.529C185.184 108.937 185.784 108.473 186.504 108.137C187.224 107.785 188.064 107.609 189.024 107.609C190 107.609 190.848 107.785 191.568 108.137C192.288 108.473 192.888 108.937 193.368 109.529C193.848 110.105 194.2 110.793 194.424 111.593C194.664 112.393 194.784 113.249 194.784 114.161C194.784 115.153 194.648 116.049 194.376 116.849C194.104 117.649 193.712 118.337 193.2 118.913C192.704 119.489 192.096 119.937 191.376 120.257C190.672 120.561 189.888 120.713 189.024 120.713ZM193.248 114.161C193.248 113.425 193.168 112.737 193.008 112.097C192.848 111.457 192.6 110.905 192.264 110.441C191.928 109.961 191.496 109.585 190.968 109.313C190.44 109.041 189.792 108.905 189.024 108.905C188.272 108.905 187.624 109.057 187.08 109.361C186.552 109.649 186.12 110.041 185.784 110.537C185.448 111.017 185.2 111.577 185.04 112.217C184.88 112.841 184.8 113.489 184.8 114.161C184.8 114.929 184.888 115.641 185.064 116.297C185.256 116.937 185.528 117.489 185.88 117.953C186.232 118.417 186.672 118.777 187.2 119.033C187.728 119.289 188.336 119.417 189.024 119.417C189.776 119.417 190.416 119.273 190.944 118.985C191.488 118.681 191.928 118.281 192.264 117.785C192.6 117.289 192.848 116.729 193.008 116.105C193.168 115.481 193.248 114.833 193.248 114.161ZM206.224 111.857C205.968 110.929 205.528 110.209 204.904 109.697C204.28 109.169 203.488 108.905 202.528 108.905C201.792 108.905 201.16 109.057 200.632 109.361C200.104 109.665 199.672 110.073 199.336 110.585C199 111.081 198.752 111.649 198.592 112.289C198.432 112.913 198.352 113.545 198.352 114.185C198.352 114.841 198.424 115.481 198.568 116.105C198.728 116.729 198.976 117.289 199.312 117.785C199.648 118.281 200.08 118.681 200.608 118.985C201.136 119.273 201.776 119.417 202.528 119.417C203.6 119.417 204.456 119.121 205.096 118.529C205.752 117.937 206.168 117.121 206.344 116.081H207.88C207.752 116.769 207.544 117.401 207.256 117.977C206.984 118.537 206.624 119.025 206.176 119.441C205.744 119.841 205.224 120.153 204.616 120.377C204.008 120.601 203.312 120.713 202.528 120.713C201.536 120.713 200.68 120.545 199.96 120.209C199.24 119.873 198.648 119.417 198.184 118.841C197.72 118.249 197.376 117.553 197.152 116.753C196.928 115.953 196.816 115.097 196.816 114.185C196.816 113.321 196.936 112.497 197.176 111.713C197.432 110.913 197.8 110.209 198.28 109.601C198.76 108.993 199.352 108.513 200.056 108.161C200.776 107.793 201.6 107.609 202.528 107.609C203.968 107.609 205.128 107.953 206.008 108.641C206.904 109.329 207.464 110.401 207.688 111.857H206.224ZM219.751 113.297C219.751 112.689 219.663 112.121 219.487 111.593C219.327 111.049 219.079 110.585 218.743 110.201C218.423 109.801 218.015 109.489 217.519 109.265C217.023 109.025 216.455 108.905 215.815 108.905C215.175 108.905 214.607 109.025 214.111 109.265C213.631 109.505 213.215 109.825 212.863 110.225C212.527 110.625 212.255 111.089 212.047 111.617C211.839 112.145 211.703 112.705 211.639 113.297H219.751ZM211.639 114.497C211.639 115.169 211.727 115.809 211.903 116.417C212.079 117.009 212.335 117.529 212.671 117.977C213.023 118.409 213.463 118.761 213.991 119.033C214.519 119.289 215.127 119.417 215.815 119.417C216.759 119.417 217.567 119.169 218.239 118.673C218.911 118.177 219.359 117.473 219.583 116.561H221.191C221.015 117.153 220.783 117.705 220.495 118.217C220.207 118.713 219.847 119.153 219.415 119.537C218.983 119.905 218.471 120.193 217.879 120.401C217.287 120.609 216.599 120.713 215.815 120.713C214.823 120.713 213.967 120.545 213.247 120.209C212.527 119.873 211.935 119.417 211.471 118.841C211.007 118.249 210.663 117.561 210.439 116.777C210.215 115.977 210.103 115.121 210.103 114.209C210.103 113.297 210.231 112.441 210.487 111.641C210.759 110.841 211.135 110.145 211.615 109.553C212.111 108.945 212.711 108.473 213.415 108.137C214.119 107.785 214.919 107.609 215.815 107.609C217.527 107.609 218.871 108.201 219.847 109.385C220.823 110.553 221.303 112.257 221.287 114.497H211.639ZM224.927 116.489C225.151 117.561 225.551 118.321 226.127 118.769C226.719 119.201 227.559 119.417 228.647 119.417C229.175 119.417 229.631 119.353 230.015 119.225C230.399 119.097 230.711 118.929 230.951 118.721C231.207 118.497 231.399 118.249 231.527 117.977C231.655 117.705 231.719 117.417 231.719 117.113C231.719 116.505 231.519 116.057 231.119 115.769C230.735 115.465 230.247 115.233 229.655 115.073C229.063 114.897 228.423 114.753 227.735 114.641C227.047 114.513 226.407 114.329 225.815 114.089C225.223 113.849 224.727 113.505 224.327 113.057C223.943 112.609 223.751 111.977 223.751 111.161C223.751 110.121 224.127 109.273 224.879 108.617C225.647 107.945 226.727 107.609 228.119 107.609C229.463 107.609 230.551 107.913 231.383 108.521C232.231 109.113 232.743 110.113 232.919 111.521H231.455C231.327 110.561 230.959 109.889 230.351 109.505C229.759 109.105 229.007 108.905 228.095 108.905C227.183 108.905 226.487 109.105 226.007 109.505C225.527 109.889 225.287 110.401 225.287 111.041C225.287 111.601 225.479 112.033 225.863 112.337C226.263 112.625 226.759 112.865 227.351 113.057C227.943 113.233 228.583 113.393 229.271 113.537C229.959 113.681 230.599 113.889 231.191 114.161C231.783 114.417 232.271 114.769 232.655 115.217C233.055 115.665 233.255 116.289 233.255 117.089C233.255 117.681 233.127 118.209 232.871 118.673C232.615 119.121 232.263 119.497 231.815 119.801C231.367 120.105 230.831 120.329 230.207 120.473C229.599 120.633 228.927 120.713 228.191 120.713C227.455 120.713 226.799 120.601 226.223 120.377C225.663 120.169 225.183 119.873 224.783 119.489C224.383 119.105 224.071 118.657 223.847 118.145C223.623 117.633 223.495 117.081 223.463 116.489H224.927ZM236.927 116.489C237.151 117.561 237.551 118.321 238.127 118.769C238.719 119.201 239.559 119.417 240.647 119.417C241.175 119.417 241.631 119.353 242.015 119.225C242.399 119.097 242.711 118.929 242.951 118.721C243.207 118.497 243.399 118.249 243.527 117.977C243.655 117.705 243.719 117.417 243.719 117.113C243.719 116.505 243.519 116.057 243.119 115.769C242.735 115.465 242.247 115.233 241.655 115.073C241.063 114.897 240.423 114.753 239.735 114.641C239.047 114.513 238.407 114.329 237.815 114.089C237.223 113.849 236.727 113.505 236.327 113.057C235.943 112.609 235.751 111.977 235.751 111.161C235.751 110.121 236.127 109.273 236.879 108.617C237.647 107.945 238.727 107.609 240.119 107.609C241.463 107.609 242.551 107.913 243.383 108.521C244.231 109.113 244.743 110.113 244.919 111.521H243.455C243.327 110.561 242.959 109.889 242.351 109.505C241.759 109.105 241.007 108.905 240.095 108.905C239.183 108.905 238.487 109.105 238.007 109.505C237.527 109.889 237.287 110.401 237.287 111.041C237.287 111.601 237.479 112.033 237.863 112.337C238.263 112.625 238.759 112.865 239.351 113.057C239.943 113.233 240.583 113.393 241.271 113.537C241.959 113.681 242.599 113.889 243.191 114.161C243.783 114.417 244.271 114.769 244.655 115.217C245.055 115.665 245.255 116.289 245.255 117.089C245.255 117.681 245.127 118.209 244.871 118.673C244.615 119.121 244.263 119.497 243.815 119.801C243.367 120.105 242.831 120.329 242.207 120.473C241.599 120.633 240.927 120.713 240.191 120.713C239.455 120.713 238.799 120.601 238.223 120.377C237.663 120.169 237.183 119.873 236.783 119.489C236.383 119.105 236.071 118.657 235.847 118.145C235.623 117.633 235.495 117.081 235.463 116.489H236.927ZM262.903 113.849C262.295 114.105 261.679 114.273 261.055 114.353C260.431 114.433 259.807 114.497 259.183 114.545C258.079 114.625 257.215 114.873 256.591 115.289C255.983 115.705 255.679 116.337 255.679 117.185C255.679 117.569 255.751 117.905 255.895 118.193C256.055 118.465 256.255 118.697 256.495 118.889C256.751 119.065 257.039 119.201 257.359 119.297C257.695 119.377 258.031 119.417 258.367 119.417C258.943 119.417 259.503 119.345 260.047 119.201C260.591 119.057 261.071 118.841 261.487 118.553C261.919 118.249 262.263 117.873 262.519 117.425C262.775 116.961 262.903 116.417 262.903 115.793V113.849ZM260.479 113.129C260.751 113.097 261.071 113.049 261.439 112.985C261.823 112.921 262.135 112.833 262.375 112.721C262.615 112.609 262.759 112.425 262.807 112.169C262.871 111.897 262.903 111.649 262.903 111.425C262.903 110.689 262.663 110.089 262.183 109.625C261.719 109.145 260.927 108.905 259.807 108.905C259.311 108.905 258.855 108.953 258.439 109.049C258.023 109.129 257.655 109.281 257.335 109.505C257.031 109.713 256.775 110.001 256.567 110.369C256.375 110.721 256.247 111.169 256.183 111.713H254.719C254.767 110.977 254.935 110.353 255.223 109.841C255.511 109.313 255.879 108.889 256.327 108.569C256.791 108.233 257.319 107.993 257.911 107.849C258.519 107.689 259.159 107.609 259.831 107.609C260.455 107.609 261.039 107.681 261.583 107.825C262.143 107.953 262.623 108.169 263.023 108.473C263.439 108.761 263.759 109.153 263.983 109.649C264.223 110.145 264.343 110.753 264.343 111.473V118.241C264.343 118.801 264.439 119.161 264.631 119.321C264.839 119.465 265.247 119.425 265.855 119.201V120.329C265.743 120.361 265.575 120.409 265.351 120.473C265.143 120.537 264.935 120.569 264.727 120.569C264.503 120.569 264.287 120.545 264.079 120.497C263.839 120.465 263.647 120.393 263.503 120.281C263.359 120.153 263.239 120.009 263.143 119.849C263.063 119.673 263.007 119.489 262.975 119.297C262.943 119.089 262.927 118.873 262.927 118.649C262.319 119.321 261.623 119.833 260.839 120.185C260.055 120.537 259.207 120.713 258.295 120.713C257.751 120.713 257.223 120.641 256.711 120.497C256.215 120.353 255.775 120.129 255.391 119.825C255.007 119.521 254.703 119.153 254.479 118.721C254.255 118.273 254.143 117.745 254.143 117.137C254.143 115.025 255.591 113.777 258.487 113.393L260.479 113.129ZM269.543 120.377H268.103V107.945H269.543V109.673C270.119 109.065 270.711 108.569 271.319 108.185C271.943 107.801 272.687 107.609 273.551 107.609C274.319 107.609 275.031 107.745 275.687 108.017C276.343 108.273 276.895 108.729 277.343 109.385C277.647 109.833 277.823 110.297 277.871 110.777C277.935 111.241 277.967 111.729 277.967 112.241V120.377H276.527V112.265C276.527 111.145 276.279 110.305 275.783 109.745C275.287 109.185 274.463 108.905 273.311 108.905C272.863 108.905 272.455 108.977 272.087 109.121C271.719 109.249 271.383 109.425 271.079 109.649C270.791 109.873 270.543 110.129 270.335 110.417C270.127 110.705 269.967 111.009 269.855 111.329C269.711 111.729 269.623 112.113 269.591 112.481C269.559 112.849 269.543 113.249 269.543 113.681V120.377ZM291.039 114.113C291.039 113.409 290.943 112.745 290.751 112.121C290.559 111.481 290.279 110.929 289.911 110.465C289.559 109.985 289.119 109.609 288.591 109.337C288.079 109.049 287.495 108.905 286.839 108.905C286.087 108.905 285.439 109.057 284.895 109.361C284.351 109.649 283.903 110.049 283.551 110.561C283.199 111.073 282.943 111.673 282.783 112.361C282.623 113.033 282.559 113.761 282.591 114.545C282.591 115.329 282.695 116.025 282.903 116.633C283.127 117.225 283.431 117.729 283.815 118.145C284.199 118.561 284.647 118.881 285.159 119.105C285.671 119.313 286.231 119.417 286.839 119.417C287.511 119.417 288.111 119.281 288.639 119.009C289.167 118.737 289.607 118.369 289.959 117.905C290.311 117.425 290.575 116.865 290.751 116.225C290.943 115.569 291.039 114.865 291.039 114.113ZM291.039 103.097H292.479V120.377H291.039V118.193H290.991C290.783 118.609 290.511 118.977 290.175 119.297C289.855 119.601 289.495 119.857 289.095 120.065C288.711 120.273 288.311 120.433 287.895 120.545C287.479 120.657 287.071 120.713 286.671 120.713C285.663 120.713 284.807 120.545 284.103 120.209C283.399 119.873 282.815 119.417 282.351 118.841C281.903 118.249 281.575 117.553 281.367 116.753C281.159 115.953 281.055 115.097 281.055 114.185C281.055 113.321 281.167 112.489 281.391 111.689C281.615 110.889 281.951 110.193 282.399 109.601C282.863 108.993 283.439 108.513 284.127 108.161C284.831 107.793 285.655 107.609 286.599 107.609C287.479 107.609 288.319 107.809 289.119 108.209C289.935 108.593 290.575 109.169 291.039 109.937V103.097ZM310.927 113.849C310.319 114.105 309.703 114.273 309.079 114.353C308.455 114.433 307.831 114.497 307.207 114.545C306.103 114.625 305.239 114.873 304.615 115.289C304.007 115.705 303.703 116.337 303.703 117.185C303.703 117.569 303.775 117.905 303.919 118.193C304.079 118.465 304.279 118.697 304.519 118.889C304.775 119.065 305.063 119.201 305.383 119.297C305.719 119.377 306.055 119.417 306.391 119.417C306.967 119.417 307.527 119.345 308.071 119.201C308.615 119.057 309.095 118.841 309.511 118.553C309.943 118.249 310.287 117.873 310.543 117.425C310.799 116.961 310.927 116.417 310.927 115.793V113.849ZM308.503 113.129C308.775 113.097 309.095 113.049 309.463 112.985C309.847 112.921 310.159 112.833 310.399 112.721C310.639 112.609 310.783 112.425 310.831 112.169C310.895 111.897 310.927 111.649 310.927 111.425C310.927 110.689 310.687 110.089 310.207 109.625C309.743 109.145 308.951 108.905 307.831 108.905C307.335 108.905 306.879 108.953 306.463 109.049C306.047 109.129 305.679 109.281 305.359 109.505C305.055 109.713 304.799 110.001 304.59 110.369C304.399 110.721 304.271 111.169 304.207 111.713H302.743C302.791 110.977 302.959 110.353 303.247 109.841C303.535 109.313 303.903 108.889 304.351 108.569C304.815 108.233 305.343 107.993 305.935 107.849C306.543 107.689 307.183 107.609 307.855 107.609C308.479 107.609 309.063 107.681 309.607 107.825C310.167 107.953 310.647 108.169 311.047 108.473C311.463 108.761 311.783 109.153 312.007 109.649C312.247 110.145 312.367 110.753 312.367 111.473V118.241C312.367 118.801 312.463 119.161 312.655 119.321C312.863 119.465 313.271 119.425 313.879 119.201V120.329C313.767 120.361 313.599 120.409 313.375 120.473C313.167 120.537 312.959 120.569 312.751 120.569C312.527 120.569 312.311 120.545 312.103 120.497C311.863 120.465 311.671 120.393 311.527 120.281C311.383 120.153 311.263 120.009 311.167 119.849C311.087 119.673 311.031 119.489 310.999 119.297C310.967 119.089 310.951 118.873 310.951 118.649C310.343 119.321 309.647 119.833 308.863 120.185C308.079 120.537 307.231 120.713 306.319 120.713C305.775 120.713 305.247 120.641 304.735 120.497C304.239 120.353 303.799 120.129 303.415 119.825C303.031 119.521 302.727 119.153 302.503 118.721C302.279 118.273 302.167 117.745 302.167 117.137C302.167 115.025 303.615 113.777 306.511 113.393L308.503 113.129ZM324.934 111.857C324.678 110.929 324.238 110.209 323.614 109.697C322.99 109.169 322.198 108.905 321.238 108.905C320.502 108.905 319.87 109.057 319.342 109.361C318.814 109.665 318.382 110.073 318.046 110.585C317.71 111.081 317.462 111.649 317.302 112.289C317.142 112.913 317.062 113.545 317.062 114.185C317.062 114.841 317.134 115.481 317.278 116.105C317.438 116.729 317.686 117.289 318.022 117.785C318.358 118.281 318.79 118.681 319.318 118.985C319.846 119.273 320.486 119.417 321.238 119.417C322.31 119.417 323.166 119.121 323.806 118.529C324.462 117.937 324.878 117.121 325.054 116.081H326.59C326.462 116.769 326.254 117.401 325.966 117.977C325.694 118.537 325.334 119.025 324.886 119.441C324.454 119.841 323.934 120.153 323.326 120.377C322.718 120.601 322.022 120.713 321.238 120.713C320.246 120.713 319.39 120.545 318.67 120.209C317.95 119.873 317.358 119.417 316.894 118.841C316.43 118.249 316.086 117.553 315.862 116.753C315.638 115.953 315.526 115.097 315.526 114.185C315.526 113.321 315.646 112.497 315.886 111.713C316.142 110.913 316.51 110.209 316.99 109.601C317.47 108.993 318.062 108.513 318.766 108.161C319.486 107.793 320.31 107.609 321.238 107.609C322.678 107.609 323.838 107.953 324.718 108.641C325.614 109.329 326.174 110.401 326.398 111.857H324.934ZM333.83 120.425C333.654 120.457 333.422 120.513 333.134 120.593C332.846 120.673 332.526 120.713 332.174 120.713C331.454 120.713 330.902 120.537 330.518 120.185C330.15 119.817 329.966 119.169 329.966 118.241V109.145H328.214V107.945H329.966V104.489H331.406V107.945H333.734V109.145H331.406V117.665C331.406 117.969 331.414 118.233 331.43 118.457C331.446 118.681 331.494 118.865 331.574 119.009C331.654 119.153 331.774 119.257 331.934 119.321C332.11 119.385 332.35 119.417 332.654 119.417C332.846 119.417 333.038 119.401 333.23 119.369C333.438 119.337 333.638 119.297 333.83 119.249V120.425ZM344.566 107.945H346.006V120.377H344.566V118.649C344.374 118.873 344.158 119.105 343.918 119.345C343.678 119.585 343.398 119.809 343.078 120.017C342.774 120.209 342.414 120.369 341.998 120.497C341.582 120.641 341.102 120.713 340.558 120.713C339.726 120.713 339.03 120.601 338.47 120.377C337.91 120.137 337.454 119.809 337.102 119.393C336.766 118.977 336.518 118.497 336.358 117.953C336.214 117.393 336.142 116.785 336.142 116.129V107.945H337.582V116.105C337.582 117.177 337.83 118.001 338.326 118.577C338.822 119.137 339.638 119.417 340.774 119.417C341.366 119.417 341.894 119.305 342.358 119.081C342.838 118.841 343.238 118.513 343.558 118.097C343.878 117.681 344.126 117.185 344.302 116.609C344.478 116.033 344.566 115.401 344.566 114.713V107.945ZM357.614 113.849C357.006 114.105 356.39 114.273 355.766 114.353C355.142 114.433 354.518 114.497 353.894 114.545C352.79 114.625 351.926 114.873 351.302 115.289C350.694 115.705 350.39 116.337 350.39 117.185C350.39 117.569 350.462 117.905 350.606 118.193C350.766 118.465 350.966 118.697 351.206 118.889C351.462 119.065 351.75 119.201 352.07 119.297C352.406 119.377 352.742 119.417 353.078 119.417C353.654 119.417 354.214 119.345 354.758 119.201C355.302 119.057 355.782 118.841 356.198 118.553C356.63 118.249 356.974 117.873 357.23 117.425C357.486 116.961 357.614 116.417 357.614 115.793V113.849ZM355.19 113.129C355.462 113.097 355.782 113.049 356.15 112.985C356.534 112.921 356.846 112.833 357.086 112.721C357.326 112.609 357.47 112.425 357.518 112.169C357.582 111.897 357.614 111.649 357.614 111.425C357.614 110.689 357.374 110.089 356.894 109.625C356.43 109.145 355.638 108.905 354.518 108.905C354.022 108.905 353.566 108.953 353.15 109.049C352.734 109.129 352.366 109.281 352.046 109.505C351.742 109.713 351.486 110.001 351.278 110.369C351.086 110.721 350.958 111.169 350.894 111.713H349.43C349.478 110.977 349.646 110.353 349.934 109.841C350.222 109.313 350.59 108.889 351.038 108.569C351.502 108.233 352.03 107.993 352.622 107.849C353.23 107.689 353.87 107.609 354.542 107.609C355.166 107.609 355.75 107.681 356.294 107.825C356.854 107.953 357.334 108.169 357.734 108.473C358.15 108.761 358.47 109.153 358.694 109.649C358.934 110.145 359.054 110.753 359.054 111.473V118.241C359.054 118.801 359.15 119.161 359.342 119.321C359.55 119.465 359.958 119.425 360.566 119.201V120.329C360.454 120.361 360.286 120.409 360.062 120.473C359.854 120.537 359.646 120.569 359.438 120.569C359.214 120.569 358.998 120.545 358.79 120.497C358.55 120.465 358.358 120.393 358.214 120.281C358.07 120.153 357.95 120.009 357.854 119.849C357.774 119.673 357.718 119.489 357.686 119.297C357.654 119.089 357.638 118.873 357.638 118.649C357.03 119.321 356.334 119.833 355.55 120.185C354.766 120.537 353.918 120.713 353.006 120.713C352.462 120.713 351.934 120.641 351.422 120.497C350.926 120.353 350.486 120.129 350.102 119.825C349.718 119.521 349.414 119.153 349.19 118.721C348.966 118.273 348.854 117.745 348.854 117.137C348.854 115.025 350.302 113.777 353.198 113.393L355.19 113.129ZM363.03 120.377V103.097H364.47V120.377H363.03ZM376.326 120.377H374.886V107.945H376.326V110.273H376.374C376.774 109.281 377.286 108.593 377.91 108.209C378.55 107.809 379.39 107.609 380.43 107.609V109.169C379.614 109.153 378.942 109.281 378.414 109.553C377.886 109.825 377.462 110.193 377.142 110.657C376.838 111.121 376.622 111.673 376.494 112.313C376.382 112.937 376.326 113.593 376.326 114.281V120.377ZM391.384 113.297C391.384 112.689 391.296 112.121 391.12 111.593C390.96 111.049 390.712 110.585 390.376 110.201C390.056 109.801 389.648 109.489 389.152 109.265C388.656 109.025 388.088 108.905 387.448 108.905C386.808 108.905 386.24 109.025 385.744 109.265C385.264 109.505 384.848 109.825 384.496 110.225C384.16 110.625 383.888 111.089 383.68 111.617C383.472 112.145 383.336 112.705 383.272 113.297H391.384ZM383.272 114.497C383.272 115.169 383.36 115.809 383.536 116.417C383.712 117.009 383.968 117.529 384.304 117.977C384.656 118.409 385.096 118.761 385.624 119.033C386.152 119.289 386.76 119.417 387.448 119.417C388.392 119.417 389.2 119.169 389.872 118.673C390.544 118.177 390.992 117.473 391.216 116.561H392.824C392.648 117.153 392.416 117.705 392.128 118.217C391.84 118.713 391.48 119.153 391.048 119.537C390.616 119.905 390.104 120.193 389.512 120.401C388.92 120.609 388.232 120.713 387.448 120.713C386.456 120.713 385.6 120.545 384.88 120.209C384.16 119.873 383.568 119.417 383.104 118.841C382.64 118.249 382.296 117.561 382.072 116.777C381.848 115.977 381.736 115.121 381.736 114.209C381.736 113.297 381.864 112.441 382.12 111.641C382.392 110.841 382.768 110.145 383.248 109.553C383.744 108.945 384.344 108.473 385.048 108.137C385.752 107.785 386.552 107.609 387.448 107.609C389.16 107.609 390.504 108.201 391.48 109.385C392.456 110.553 392.936 112.257 392.92 114.497H383.272ZM396.56 116.489C396.784 117.561 397.184 118.321 397.76 118.769C398.352 119.201 399.192 119.417 400.28 119.417C400.808 119.417 401.264 119.353 401.648 119.225C402.032 119.097 402.344 118.929 402.584 118.721C402.84 118.497 403.032 118.249 403.16 117.977C403.288 117.705 403.352 117.417 403.352 117.113C403.352 116.505 403.152 116.057 402.752 115.769C402.368 115.465 401.88 115.233 401.288 115.073C400.696 114.897 400.056 114.753 399.368 114.641C398.68 114.513 398.04 114.329 397.448 114.089C396.856 113.849 396.36 113.505 395.96 113.057C395.576 112.609 395.384 111.977 395.384 111.161C395.384 110.121 395.76 109.273 396.512 108.617C397.28 107.945 398.36 107.609 399.752 107.609C401.096 107.609 402.184 107.913 403.016 108.521C403.864 109.113 404.376 110.113 404.552 111.521H403.088C402.96 110.561 402.592 109.889 401.984 109.505C401.392 109.105 400.64 108.905 399.728 108.905C398.816 108.905 398.12 109.105 397.64 109.505C397.16 109.889 396.92 110.401 396.92 111.041C396.92 111.601 397.112 112.033 397.496 112.337C397.896 112.625 398.392 112.865 398.984 113.057C399.576 113.233 400.216 113.393 400.904 113.537C401.592 113.681 402.232 113.889 402.824 114.161C403.416 114.417 403.904 114.769 404.288 115.217C404.688 115.665 404.888 116.289 404.888 117.089C404.888 117.681 404.76 118.209 404.504 118.673C404.248 119.121 403.896 119.497 403.448 119.801C403 120.105 402.464 120.329 401.84 120.473C401.232 120.633 400.56 120.713 399.824 120.713C399.088 120.713 398.432 120.601 397.856 120.377C397.296 120.169 396.816 119.873 396.416 119.489C396.016 119.105 395.704 118.657 395.48 118.145C395.256 117.633 395.128 117.081 395.096 116.489H396.56ZM416.144 107.945H417.584V120.377H416.144V118.649C415.952 118.873 415.736 119.105 415.496 119.345C415.256 119.585 414.976 119.809 414.656 120.017C414.352 120.209 413.992 120.369 413.576 120.497C413.16 120.641 412.68 120.713 412.136 120.713C411.304 120.713 410.608 120.601 410.048 120.377C409.488 120.137 409.032 119.809 408.68 119.393C408.344 118.977 408.096 118.497 407.936 117.953C407.792 117.393 407.72 116.785 407.72 116.129V107.945H409.16V116.105C409.16 117.177 409.408 118.001 409.904 118.577C410.4 119.137 411.216 119.417 412.352 119.417C412.944 119.417 413.472 119.305 413.936 119.081C414.416 118.841 414.816 118.513 415.136 118.097C415.456 117.681 415.704 117.185 415.88 116.609C416.056 116.033 416.144 115.401 416.144 114.713V107.945ZM421.272 120.377V103.097H422.712V120.377H421.272ZM430.744 120.425C430.568 120.457 430.336 120.513 430.048 120.593C429.76 120.673 429.44 120.713 429.088 120.713C428.368 120.713 427.816 120.537 427.432 120.185C427.064 119.817 426.88 119.169 426.88 118.241V109.145H425.128V107.945H426.88V104.489H428.32V107.945H430.648V109.145H428.32V117.665C428.32 117.969 428.328 118.233 428.344 118.457C428.36 118.681 428.408 118.865 428.488 119.009C428.568 119.153 428.688 119.257 428.848 119.321C429.024 119.385 429.264 119.417 429.568 119.417C429.76 119.417 429.952 119.401 430.144 119.369C430.352 119.337 430.552 119.297 430.744 119.249V120.425ZM433.896 116.489C434.12 117.561 434.52 118.321 435.096 118.769C435.688 119.201 436.528 119.417 437.616 119.417C438.144 119.417 438.6 119.353 438.984 119.225C439.368 119.097 439.68 118.929 439.92 118.721C440.176 118.497 440.368 118.249 440.496 117.977C440.624 117.705 440.688 117.417 440.688 117.113C440.688 116.505 440.488 116.057 440.088 115.769C439.704 115.465 439.216 115.233 438.624 115.073C438.032 114.897 437.392 114.753 436.704 114.641C436.016 114.513 435.376 114.329 434.784 114.089C434.192 113.849 433.696 113.505 433.296 113.057C432.912 112.609 432.72 111.977 432.72 111.161C432.72 110.121 433.096 109.273 433.848 108.617C434.616 107.945 435.696 107.609 437.088 107.609C438.432 107.609 439.52 107.913 440.352 108.521C441.2 109.113 441.712 110.113 441.888 111.521H440.424C440.296 110.561 439.928 109.889 439.32 109.505C438.728 109.105 437.976 108.905 437.064 108.905C436.152 108.905 435.456 109.105 434.976 109.505C434.496 109.889 434.256 110.401 434.256 111.041C434.256 111.601 434.448 112.033 434.832 112.337C435.232 112.625 435.728 112.865 436.32 113.057C436.912 113.233 437.552 113.393 438.24 113.537C438.928 113.681 439.568 113.889 440.16 114.161C440.752 114.417 441.24 114.769 441.624 115.217C442.024 115.665 442.224 116.289 442.224 117.089C442.224 117.681 442.096 118.209 441.84 118.673C441.584 119.121 441.232 119.497 440.784 119.801C440.336 120.105 439.8 120.329 439.176 120.473C438.568 120.633 437.896 120.713 437.16 120.713C436.424 120.713 435.768 120.601 435.192 120.377C434.632 120.169 434.152 119.873 433.752 119.489C433.352 119.105 433.04 118.657 432.816 118.145C432.592 117.633 432.464 117.081 432.432 116.489H433.896ZM445.776 120.377V118.265H447.528V120.377H445.776Z" fill="#242424"/>
</svg>
