<svg width="984" height="880" viewBox="0 0 984 880" fill="none" xmlns="http://www.w3.org/2000/svg">
  <path opacity="0.3" fill-rule="evenodd" clip-rule="evenodd"
    d="M1.5 982V0H0.5V982H1.5ZM982.5 0V487H981.991C980.377 217.761 761.619 0 492 0C490.665 0 489.332 0.00533547 488 0.0159863V0H487V0.0249825C218.683 2.70733 2 221.049 2 490C2 758.951 218.683 977.293 487 979.975V980H488V979.984C489.332 979.995 490.665 980 492 980C762.62 980 982 760.62 982 490C982 489.333 981.999 488.666 981.996 488H982.5V982H983.5V0H982.5ZM488 978.984C489.332 978.995 490.665 979 492 979C762.067 979 981 760.067 981 490C981 489.601 981 489.201 980.999 488.802C980.998 488.535 980.997 488.267 980.996 488H488L488 978.984ZM487 487H3.00901C4.61316 219.98 220.234 3.69734 487 1.02503V487ZM488 487V1.01602C489.332 1.00535 490.665 1 492 1C761.067 1 979.377 218.313 980.991 487H488ZM487 488L487 978.975C219.236 976.293 3 758.399 3 490C3 489.333 3.00134 488.666 3.004 488H487Z"
    fill="white" />
</svg>