<svg width="62" height="58" viewBox="0 0 62 58" fill="none" xmlns="http://www.w3.org/2000/svg">
<path fill-rule="evenodd" clip-rule="evenodd" d="M37.5659 0.00251989C37.74 0.00277493 37.914 0.00238844 38.0881 0.00139636C39.0481 -0.00401653 39.9895 -0.00288258 40.9355 0.184169L41.1395 0.222302C41.3122 0.25653 41.4833 0.294319 41.6545 0.334828L41.8353 0.377335C42.7008 0.58821 43.4943 0.914106 44.2774 1.33466L44.4014 1.40044C44.9155 1.67411 45.4112 1.9542 45.8661 2.32079L45.9541 2.3913C47.2972 3.47643 48.2186 4.8647 49.0822 6.34193C49.4575 6.98258 49.8472 7.61524 50.2626 8.23073C50.7629 8.97254 51.1921 9.75258 51.6186 10.5386C51.7799 10.4599 51.9211 10.3726 52.0671 10.268C52.745 9.81093 53.6917 9.7693 54.4796 9.91858C55.1736 10.0916 55.7422 10.3931 56.2753 10.8673L56.3874 10.9638C57.5865 12.0694 58.0575 13.8456 58.4733 15.4142L58.4735 15.4148C58.5197 15.5891 58.5652 15.7609 58.611 15.9288C58.9725 17.2523 59.4122 18.531 60.0692 19.739C60.7671 21.024 61.3648 22.421 61.7264 23.8376L61.7668 23.9956C62.2604 26.055 61.9037 28.4314 61.3155 30.4255L61.2667 30.5925C60.9413 31.6837 60.4812 32.718 59.8363 33.6579L59.7678 33.7579C59.6122 33.9833 59.4519 34.205 59.2885 34.4249L59.2209 34.5157C58.5598 35.3994 57.8435 36.2978 56.9875 36.9997C56.871 37.0978 56.7545 37.1959 56.6382 37.2942L56.5453 37.3728C55.7041 38.0854 54.8357 38.8362 54.7266 40.0065C54.7216 40.1709 54.7213 40.3345 54.7233 40.4989L54.7236 40.679C54.724 40.8035 54.7248 40.9279 54.7259 41.0523C54.7276 41.243 54.7281 41.4336 54.7285 41.6243L54.7302 41.9884L54.7309 42.1608L54.7325 42.3211L54.7336 42.4615C54.7411 42.584 54.7657 42.6886 54.7961 42.807C54.8014 42.8811 54.8042 42.9555 54.8049 43.0298L54.8065 43.1615L54.8072 43.3032L54.8082 43.4525C54.8087 43.5573 54.809 43.662 54.8092 43.7668C54.8098 43.9228 54.8115 44.0789 54.8132 44.2349C54.8248 46.2404 54.2818 47.9242 52.8786 49.3812L52.7331 49.5333C52.4168 49.8572 52.093 50.1541 51.7281 50.4221L51.5593 50.5477C48.1534 52.9921 42.8793 53.3951 38.8633 52.7565C36.2466 52.3199 33.5245 51.553 31.4576 49.8195L31.3436 49.724C30.9703 49.4045 30.6007 49.0646 30.3072 48.669L30.2444 48.7734C29.8718 49.3529 29.3813 49.6952 28.7184 49.8742C28.1991 49.9809 27.6858 50.0039 27.157 50.0009L27.0411 50.0006C23.9975 49.9856 21.4872 48.358 19.1455 46.5587C18.9304 46.3936 18.707 46.2409 18.4833 46.0879L18.4829 46.0877L18.444 46.0611C18.2045 45.8963 17.9694 45.7253 17.7342 45.5542L17.6483 45.4918C17.4439 45.3434 17.2388 45.1963 17.031 45.0527C15.8815 44.258 14.7934 43.3608 13.9264 42.2591L13.8297 42.1384C13.2986 41.4684 12.8424 40.7666 12.4117 40.0288C12.3485 39.9218 12.2839 39.8162 12.2178 39.711C11.8628 39.129 11.6251 38.4957 11.3864 37.8596L11.3515 37.7667L11.3033 37.6396C10.9261 36.6335 10.6999 35.4747 11.136 34.4522C11.4034 33.9298 11.786 33.6226 12.3376 33.4387C12.4148 33.4343 12.4921 33.4328 12.5694 33.4334L12.7026 33.4339L12.841 33.4353L12.9813 33.436C13.0954 33.4367 13.2096 33.4377 13.3238 33.4387L13.2721 33.3146C12.9243 32.4782 12.5798 31.6407 12.2454 30.7988C12.1636 30.5928 12.0808 30.3874 11.9967 30.1824C11.7714 29.6315 11.5616 29.083 11.4063 28.5081L11.3737 28.3947C10.7985 26.335 11.2194 23.9393 12.2373 22.0916C12.8942 20.9532 13.8676 19.5217 15.197 19.1621C15.5508 19.0828 15.8933 19.0684 16.2548 19.0713L16.4187 19.07L16.5749 19.0705L16.7156 19.0708C16.7652 19.077 16.7933 19.0805 16.8181 19.0914C16.8506 19.1056 16.8775 19.1325 16.9396 19.1946L16.9396 19.1946C16.9687 19.4566 16.9158 19.6032 16.7787 19.8246L16.6723 19.9982C16.5335 20.2162 16.3942 20.4339 16.2536 20.6508C15.8581 21.2622 15.492 21.8918 15.1411 22.5297C15.0977 22.6083 15.054 22.6867 15.0099 22.7649C14.1272 24.3337 13.4767 26.1395 13.9462 27.9474C14.1373 28.6162 14.3902 29.265 14.6523 29.9085C15.1173 31.0626 15.2895 32.1883 14.7944 33.3709C14.7466 33.4687 14.6935 33.5638 14.6386 33.6579L14.8064 33.6716C16.0733 33.8392 17.3429 34.3955 18.5155 34.9093L18.7167 34.9974C18.9268 35.0888 19.1374 35.1788 19.3482 35.2685C20.2141 35.6371 21.0772 36.0115 21.9387 36.3903L22.2245 36.5158L22.2246 36.5159C22.9756 36.8458 22.9759 36.846 23.3431 37.0086L23.3435 37.0088C24.4928 37.5179 25.6488 38.0041 26.8181 38.4659C27.3783 38.6872 27.9358 38.9136 28.4901 39.1493C28.9627 39.3499 29.4356 39.5434 29.9245 39.7011C30.3134 39.8288 30.6942 39.9742 31.074 40.1265C31.2434 40.1943 31.413 40.2614 31.5826 40.3285L31.665 40.3611L31.7903 40.4107C33.1919 40.9657 34.6019 41.4934 36.0216 42.0002C36.5773 42.1988 37.1321 42.3994 37.6841 42.6082L37.8364 42.6657C38.071 42.7546 38.3054 42.8439 38.5395 42.934C39.7811 43.4086 41.0634 43.6407 42.3365 43.1106L42.5242 43.0261L42.6318 42.9777C43.5624 42.5522 44.2805 42.0008 44.6676 41.0197C44.8331 40.5713 44.9787 40.1154 45.1241 39.6601L45.1242 39.6599L45.1562 39.5597C45.2018 39.4299 45.2533 39.3121 45.3183 39.1912L45.2266 39.2362C43.9444 39.8638 42.6721 40.3089 41.2642 40.5608L41.1533 40.5807C39.9588 40.7819 38.5522 40.7949 37.3744 40.506L37.1643 40.4578C36.3266 40.2514 35.5601 39.9211 34.7995 39.5199L34.6131 39.4221C34.177 39.19 33.7478 38.9458 33.3203 38.6981L33.2063 38.6323C32.7652 38.3775 32.3315 38.1177 31.91 37.8312C31.6888 37.6834 31.4638 37.5419 31.2385 37.4004C29.9197 36.5707 28.6153 35.716 27.3488 34.8083L27.1482 34.6654C26.8895 34.481 26.6312 34.2961 26.3733 34.1105L26.2689 34.0355C26.2034 33.9884 26.1379 33.9413 26.0725 33.894C25.945 33.8025 25.8175 33.7143 25.6827 33.6338C25.5493 33.5534 25.4226 33.4681 25.2956 33.3779L25.1578 33.2806L25.0135 33.1785C24.6726 32.9382 24.3306 32.7044 23.9765 32.484C23.7414 32.3327 23.5174 32.166 23.2933 31.9992L23.2399 31.9595L23.1297 31.8799C22.5403 31.45 22.0136 30.9631 21.497 30.4495L21.3472 30.3012L21.2083 30.1617L21.083 30.0359C21.0339 29.9791 21.0118 29.9535 21.0019 29.9238C20.9937 29.8994 20.9937 29.8723 20.9937 29.8229H20.8841C20.7942 29.713 20.7119 29.6035 20.6307 29.4873L20.5568 29.3822C19.939 28.4902 19.5128 27.5129 19.1858 26.481L19.1289 26.3057C18.8697 25.3407 18.9247 24.1931 19.2406 23.2487L19.3007 23.0638C19.4633 22.6229 19.7172 22.1944 20.1548 21.9818L20.1548 21.9818C20.3202 21.9381 20.388 21.9202 20.4518 21.9295C20.496 21.9359 20.5384 21.9555 20.6102 21.9886C21.0038 22.3166 21.1436 22.8129 21.2128 23.3035C21.2189 23.4409 21.2225 23.5785 21.2244 23.7161L21.2291 23.957C21.2313 24.0815 21.2334 24.206 21.2348 24.3305C21.2584 26.1909 22.0048 27.5124 23.3036 28.7956C24.4371 29.8771 25.7822 30.697 27.1135 31.5086L27.2437 31.5879C27.8162 31.9377 28.3814 32.2962 28.9375 32.6717C29.9135 33.3272 30.8889 33.9708 31.9507 34.4796V34.3701C31.9947 34.3329 32.0195 34.312 32.045 34.2921C32.0779 34.2666 32.1122 34.2429 32.1904 34.1886L32.3252 34.0934C32.7428 33.8361 33.1652 33.6605 33.6353 33.5243L33.8009 33.475C34.1169 33.3816 34.4341 33.2943 34.7526 33.2103C36.476 32.7545 38.0388 32.043 39.5963 31.1866C39.778 31.0868 39.9602 30.9878 40.1424 30.8889C40.9254 30.4604 41.6746 29.9928 42.4147 29.4942L42.5751 29.3868C43.1757 28.9847 43.7704 28.5798 44.3321 28.1246L44.4172 28.0563C45.93 26.8378 47.4769 25.0857 47.7136 23.0788C47.8399 21.3034 47.3491 20.0586 46.3732 18.6129L46.3732 18.6128C45.9733 18.0188 45.841 17.8222 45.7915 17.6066C45.767 17.5 45.7628 17.3887 45.7565 17.2223C46.0927 17.0028 46.3036 16.9671 46.7099 17.0338C47.9061 17.3312 48.9943 18.1402 49.66 19.1809C50.1055 19.98 50.385 20.9085 50.4133 21.8243L50.4184 21.9422C50.5196 24.4552 49.2664 26.718 47.6192 28.5457L47.5013 28.6724C47.4162 28.7646 47.3374 28.8582 47.2597 28.9566C47.1218 29.1158 46.9761 29.247 46.8159 29.3831C46.6808 29.5003 46.5514 29.6226 46.4215 29.7452L46.4214 29.7453L46.39 29.775C45.9843 30.1514 45.5429 30.4793 45.0991 30.809L44.9708 30.9048C44.1727 31.4996 43.3723 32.0948 42.5242 32.6169L42.3697 32.7143C42.1849 32.8299 41.9989 32.9432 41.812 33.0552L41.6874 33.13C40.9649 33.5606 40.2288 33.9286 39.4563 34.2605L39.2937 34.3311C37.6155 35.0586 35.4163 35.9887 33.5628 35.4469L33.5628 35.4469C33.4985 35.4266 33.4645 35.4159 33.4297 35.4109C33.3907 35.4054 33.3506 35.4072 33.2655 35.411C34.0024 35.8807 34.7321 36.3442 35.5182 36.7286C35.6723 36.8048 35.8236 36.8852 35.9744 36.9679C37.2606 37.6711 38.5257 38.0331 40.0041 37.9859L40.0589 37.9311C40.174 37.9156 40.2893 37.9024 40.4047 37.89C41.6694 37.7329 42.8311 37.268 43.9486 36.671L44.059 36.6126C44.601 36.324 45.1015 35.9989 45.5922 35.6301L45.7225 35.5334C45.8455 35.4401 45.9656 35.3441 46.0853 35.2466L46.2473 35.1154C47.8453 33.7964 48.9657 32.3568 49.5573 30.3605C49.8915 29.2567 50.3134 28.2972 50.9748 27.3473L51.0591 27.2259C51.2371 26.9758 51.295 26.8944 51.371 26.8372C51.4076 26.8096 51.4485 26.7876 51.509 26.7549C51.7183 26.8048 51.771 26.8466 51.8925 27.0289C52.0104 27.4522 52.0374 27.8755 52.0637 28.3129L52.0705 28.4253C52.2452 31.3275 51.6865 33.8719 49.7559 36.1232C49.5296 36.3681 49.2895 36.5996 49.0496 36.8311L49.0026 36.8765C48.2196 37.6325 47.6986 38.3191 47.4549 39.4034C46.9749 41.4117 45.6582 42.6121 43.9494 43.6699C43.8701 43.7191 43.791 43.7686 43.7121 43.8182C41.5839 45.1549 39.0108 45.4357 36.5655 44.8982C35.7581 44.7114 34.9784 44.4498 34.1969 44.1766L33.8909 44.0707C33.69 44.0011 33.4893 43.931 33.2887 43.8607C33.0157 43.7654 32.7422 43.6716 32.4686 43.5782C31.4052 43.2154 31.0962 43.11 30.7895 42.9979C30.6638 42.952 30.5386 42.9049 30.362 42.8386C29.9853 42.6979 29.6051 42.5676 29.2247 42.4372L29.2046 42.4303C28.5412 42.2028 27.8801 41.97 27.2212 41.7297C27.0745 41.6763 26.9277 41.623 26.7808 41.57C24.768 40.8422 22.8284 39.9848 20.8872 39.0865C18.9611 38.1953 17.0209 37.3334 15.0221 36.6163L14.8997 36.572C14.4175 36.3992 13.9362 36.2733 13.4333 36.178C13.4301 36.3925 13.4282 36.6071 13.4265 36.8217L13.4237 37.003C13.4203 37.5738 13.4817 38.1139 13.6936 38.6467L13.7373 38.759C14.5254 40.7357 16.4638 41.7467 18.2689 42.6883C18.4241 42.7692 18.5784 42.8497 18.7309 42.9302L18.731 42.9303C20.5773 43.9085 21.1638 44.2193 21.7036 44.5968C21.9549 44.7726 22.1961 44.9628 22.5496 45.2416C22.7891 45.4299 23.0379 45.5989 23.2929 45.7654C23.4388 45.8616 23.5822 45.9607 23.725 46.0615C24.9617 46.9319 26.1082 47.3607 27.6227 47.3678L27.805 47.3713C28.3453 47.3738 28.832 47.3092 29.2637 46.9646C29.5194 46.8534 29.8327 46.9756 30.097 47.0787C30.1351 47.0935 30.1721 47.108 30.2079 47.1213L30.3422 47.1709C30.7497 47.3262 31.1424 47.51 31.5364 47.6965C32.3002 48.0572 33.0754 48.3765 33.8682 48.669L34.0431 48.734C34.8505 49.0298 35.6703 49.2527 36.5047 49.4565L36.6479 49.4916C37.5941 49.722 38.539 49.8924 39.5076 49.9941L39.644 50.0085C42.0534 50.2552 44.5238 50.1321 46.8523 49.436L47.0579 49.3752C47.8725 49.1186 48.6965 48.7844 49.4272 48.3403L49.6084 48.2318C50.6955 47.5664 51.5913 46.6998 51.9473 45.4367C52.0052 45.1158 52.0081 44.8052 52.0048 44.4797L52.0037 44.3086C52.003 44.1864 52.0021 44.0641 52.0011 43.9419C51.9997 43.7473 51.9987 43.5527 51.9979 43.3581C51.9956 42.805 51.993 42.2518 51.9885 41.6986C51.9858 41.3597 51.9843 41.0207 51.9834 40.6817C51.9829 40.5536 51.9819 40.4255 51.9806 40.2974C51.9703 39.3171 51.9855 38.2635 52.4506 37.373L52.5148 37.2439C52.6966 36.8929 52.9243 36.6175 53.2073 36.3423C53.2684 36.271 53.329 36.1991 53.3888 36.1266C53.7782 35.6805 54.2414 35.3023 54.7013 34.932C54.913 34.7569 55.1146 34.5715 55.3165 34.3853C55.4285 34.2833 55.5421 34.1855 55.659 34.0893C55.8696 33.9093 56.0438 33.7064 56.2205 33.4935L56.298 33.4014C58.0151 31.3587 59.0804 28.8615 59.083 26.1728L59.0832 26.0546C59.0826 25.4847 59.0519 24.9538 58.905 24.3992L58.8587 24.1912C58.6091 23.0787 58.1492 22.0746 57.6449 21.0573C56.9502 19.6501 56.4917 18.3027 56.1994 16.7617C56.0191 15.8113 55.8334 14.8832 55.4535 13.99L55.3769 13.8092C55.0703 13.1426 54.5905 12.6498 53.9195 12.3465C53.5957 12.2861 53.2758 12.2833 52.9471 12.2848L52.8082 12.2842L52.674 12.2844L52.5538 12.2846C52.437 12.2919 52.3336 12.3146 52.2212 12.3465L52.2146 12.4465C52.1165 13.8739 51.9094 15.3962 50.7983 16.4215C50.49 16.6674 50.1993 16.8066 49.8077 16.8579C49.7582 16.849 49.7317 16.8443 49.7087 16.8326C49.6822 16.8191 49.6604 16.7963 49.6134 16.7472L49.6134 16.7472C49.5191 16.5904 49.517 16.4957 49.5187 16.3137L49.5195 16.1329L49.523 15.9417L49.5248 15.7459C49.5297 15.3649 49.5464 14.9879 49.5789 14.6083C49.6207 14.012 49.616 13.4244 49.4819 12.8395L49.4535 12.7083C49.1972 11.7113 48.5324 10.8536 47.9079 10.0479L47.7808 9.8837C47.3859 9.3666 47.0348 8.83318 46.7016 8.27524C46.389 7.75198 46.072 7.24326 45.7018 6.75838L45.5644 6.57412C45.3171 6.24469 45.0582 5.92953 44.7788 5.62651C44.6626 5.50028 44.5505 5.37122 44.4383 5.24152C42.9092 3.53025 40.6888 2.92667 38.5078 2.56047L38.1531 2.49927C37.684 2.41841 37.2146 2.33929 36.7448 2.26249C35.9978 2.14017 35.749 2.09942 35.5026 2.04686C35.3795 2.02059 35.2571 1.99138 35.0735 1.94756L34.8968 1.90605C34.0836 1.71104 33.2831 1.47084 32.4883 1.21139L32.368 1.17255C32.1578 1.10213 31.9668 1.02672 31.7863 0.896375V0.786805C33.5504 -0.00423288 35.5783 -0.000821243 37.4823 0.00238187L37.5659 0.00251989ZM23.2672 3.02552C23.09 3.02587 22.9128 3.02616 22.7357 3.02586C21.1312 3.02273 19.5117 3.17915 18.036 3.85823L17.9257 3.90957C17.0738 4.29855 16.2911 4.7907 15.5586 5.37421L15.4056 5.49834C15.1079 5.73894 14.8477 6.00089 14.5952 6.28865L14.4743 6.42968C14.3651 6.55611 14.2595 6.68374 14.1569 6.81553L14.036 6.97753C13.2742 7.99738 12.7542 9.15698 12.3 10.34C11.8477 11.5211 11.3758 12.6479 10.448 13.5351L10.3106 13.6613C10.0584 13.8936 9.80181 14.1206 9.5436 14.3461C9.37773 14.4906 9.21382 14.637 9.05053 14.7844C8.92179 14.9008 8.79299 15.0168 8.66168 15.1302C8.14917 15.5704 7.69946 16.058 7.26844 16.5768L7.18784 16.6745C6.48705 17.5237 6.01953 18.406 5.75555 19.4785L5.71891 19.6329C5.53911 20.3731 5.53316 21.1375 5.53076 21.8959L5.53059 22.0126C5.5288 22.5739 5.54743 23.1199 5.62646 23.6767C5.68878 24.1128 5.72119 24.5399 5.72555 24.9808L5.72576 25.1936C5.72965 26.1083 5.55046 26.8922 4.89542 27.5724L4.77729 27.6863C4.46664 27.9866 4.14091 28.2536 3.78881 28.5038C3.61431 28.6264 3.44075 28.7504 3.26728 28.8744L3.25177 28.8855L3.25142 28.8858L3.2512 28.886C3.08078 29.0079 2.91037 29.1299 2.73906 29.2506L2.71759 29.2657C2.26289 29.5859 1.81242 29.9032 1.40908 30.2879L1.27105 30.4256C1.13761 30.5557 1.00629 30.6861 0.879862 30.8231C0.271268 31.5191 0.067718 32.3689 0.120561 33.2744C0.311895 34.7103 1.43621 35.6823 2.47225 36.5745L2.58589 36.671L2.68747 36.7578C2.94091 36.9743 3.19435 37.1908 3.45475 37.3989C4.8232 38.4885 5.36094 39.7813 5.74631 41.4545C5.8006 41.7013 5.85374 41.9371 5.9479 42.1722C5.99758 42.2813 6.04633 42.3909 6.09119 42.5021C6.58422 43.7507 7.21289 44.8726 7.95547 45.9869L7.97897 46.0219L7.97986 46.0233C8.07359 46.1632 8.16731 46.3031 8.26013 46.4437C8.70914 47.1271 9.1786 47.7926 9.68077 48.4381C9.7493 48.5261 9.81755 48.6142 9.88512 48.703C10.1857 49.0998 10.495 49.4862 10.818 49.8651L10.968 50.0386C11.1863 50.2955 11.4092 50.5405 11.6551 50.7714L11.7624 50.8707C13.0493 52.0661 14.4188 53.1528 16.0508 53.8407C16.2027 53.9039 16.3546 53.9673 16.5059 54.0319C17.2017 54.3305 17.9048 54.6047 18.614 54.87C18.6925 54.8993 18.7711 54.9283 18.8498 54.9573L18.8498 54.9573C19.2966 55.122 19.7436 55.2868 20.1651 55.51C20.2469 55.5536 20.3298 55.5952 20.4134 55.6354C20.8922 55.8591 21.3697 56.0835 21.8366 56.3314C22.9333 56.917 24.0791 57.4929 25.3071 57.7385L25.4313 57.7633C26.2842 57.9505 27.112 58.0002 27.9825 58L28.15 57.9996C28.3122 57.9992 28.4744 57.9985 28.6366 57.9971L28.789 57.9955C30.8919 57.977 33.111 57.156 34.8989 56.0827L35.0187 56.0102C35.768 55.5608 36.4963 55.0938 37.1113 54.4677L37.2101 54.3666C37.3119 54.2648 37.4134 54.1628 37.5137 54.0595L37.6141 53.9557L37.7183 53.852C37.9287 53.6325 38.0358 53.4804 38.0318 53.1614C37.9776 53.1071 37.9502 53.0797 37.9172 53.0639C37.8837 53.0477 37.8444 53.0436 37.765 53.0353L37.5696 53.0347C37.0075 53.0265 36.5244 53.216 36.0211 53.4532C35.9241 53.4998 35.827 53.5463 35.7297 53.5923C35.4924 53.7037 35.2555 53.8159 35.0187 53.9283C33.8263 54.4957 32.6139 54.9884 31.3317 55.3155L31.1837 55.3528C28.7309 55.9917 26.5891 55.4404 24.371 54.31C24.0632 54.1522 23.7549 53.9958 23.446 53.8403L23.2559 53.7447C21.6933 52.9584 20.1048 52.2581 18.4736 51.6274C17.3289 51.1862 16.2262 50.7131 15.2239 49.9954L15.1317 49.929C12.4846 48.0627 10.8142 44.9753 9.76172 41.9914C8.9642 39.7301 8.0766 37.5317 6.14007 35.9999C5.94463 35.8518 5.75795 35.697 5.57314 35.536L5.52841 35.4968C5.31571 35.3106 5.10325 35.1246 4.88387 34.9462C4.53257 34.6655 4.20342 34.3746 3.90073 34.0414C3.54456 33.624 3.26687 33.1858 3.29467 32.617C3.76362 31.6368 3.76362 31.6368 4.69169 31.0213C5.57956 30.4164 6.40621 29.7938 7.13995 29.0038L7.24262 28.8916C7.34669 28.7784 7.44554 28.6642 7.54394 28.5457C8.35884 27.4268 8.77854 26.0548 8.59021 24.6761L8.56734 24.5594C8.34886 23.4449 8.11787 22.2667 8.25229 21.1326C8.55947 19.3123 9.9903 17.7645 11.4405 16.7224C11.645 16.5769 11.8422 16.4262 12.0363 16.267C12.1366 16.1835 12.237 16.1002 12.3376 16.0171C13.0703 15.4511 13.7138 14.8169 14.1443 13.9901L14.2003 13.8805C14.3294 13.6326 14.4156 13.4672 14.4931 13.2978C14.6485 12.9581 14.7692 12.6025 15.1319 11.5335C15.281 11.0925 15.4297 10.6529 15.6126 10.2246L15.6622 10.111C15.9057 9.55208 16.2251 9.05043 16.6145 8.58128L16.7204 8.45673C17.6035 7.3893 18.906 6.49208 20.2308 6.07839L20.3363 6.04619C21.7202 5.60931 23.4132 5.54882 24.8479 5.69886L24.993 5.71748C25.1634 5.73929 25.3328 5.7638 25.5023 5.79152L25.7052 5.82705C26.32 5.93423 26.9198 6.07312 27.52 6.24478C27.8854 6.35164 28.247 6.45102 28.6214 6.52178L28.7184 6.53925V6.64882C28.6918 6.64882 28.6695 6.64882 28.6474 6.65137C28.5317 6.66477 28.4242 6.7485 27.7519 7.27178L27.7519 7.27179L27.5679 7.41581C27.2563 7.6565 26.9632 7.90619 26.6863 8.18607C25.8703 9.01653 24.9531 9.72486 24.0069 10.4016C23.7058 10.6168 23.4083 10.8356 23.1153 11.0617L22.9865 11.1617C21.9421 11.9702 21.0967 12.8876 20.5496 14.0983L20.5006 14.2092C19.9874 15.3678 19.9727 16.4693 20.0733 17.7155L20.0878 17.8823C20.0957 17.973 20.105 18.0635 20.1171 18.1537C20.1458 18.2052 20.1615 18.2335 20.1721 18.2636C20.1849 18.3003 20.1901 18.3397 20.2016 18.4272C20.3514 19.3291 20.6341 20.1848 20.9575 21.0383L21.0485 21.2764C21.1934 21.6643 21.3425 22.0474 21.5173 22.4229C21.5602 22.5143 21.6029 22.6057 21.6449 22.6975C21.85 23.1468 22.0585 23.5887 22.3145 24.0118C22.369 24.1003 22.4234 24.1889 22.4766 24.2781C22.6336 24.5417 22.7944 24.8022 22.9659 25.0566C24.631 27.4116 26.8857 28.7311 29.7022 29.2678C29.8651 29.298 30.0277 29.3287 30.1899 29.3626C31.1112 29.5563 32.0147 29.5729 32.952 29.5637L33.0828 29.562C34.3765 29.5488 35.5744 29.0727 36.717 28.5081C37.5649 28.0855 38.3948 27.6719 39.3063 27.4015C40.9612 26.9173 42.5303 26.394 43.7034 25.057C45.1157 23.3417 45.3765 21.3667 45.2273 19.2065C45.1598 18.2399 45.1347 17.274 45.1204 16.3052L45.1179 16.1279L45.1126 15.7879C45.0993 14.5938 44.9028 13.4058 44.2268 12.3944L44.113 12.2369C43.8635 11.8888 43.5839 11.5823 43.2638 11.2987C41.6561 9.93836 39.4363 9.88174 37.4374 10.0364L37.3196 10.0455C35.3753 10.1761 33.3049 10.7829 31.6036 11.7372C31.4963 11.7993 31.389 11.8612 31.281 11.9221C30.1387 12.5641 29.1193 13.2935 28.135 14.1574C28.029 14.2507 27.9227 14.3434 27.8157 14.4356C27.6169 14.6067 27.4245 14.7819 27.2411 14.9695L27.1296 15.0857C26.3755 15.8634 25.7451 16.6694 25.421 17.7212L25.3765 17.8798C25.2769 18.2312 25.2605 18.5749 25.257 18.9384C25.2538 20.3577 25.6643 21.6775 26.6776 22.7077C28.3344 24.34 30.7448 24.5902 32.9622 24.5807C33.1723 24.5789 33.3824 24.5772 33.5926 24.5767C33.7332 24.5765 33.8739 24.5761 34.0146 24.5756L34.2159 24.5747C34.4471 24.5738 34.678 24.5722 34.9091 24.5635C36.3941 24.4436 38.1953 23.9046 39.2363 22.7743L39.3467 22.6461L39.4742 22.5025C40.1307 21.7363 40.4622 20.9169 40.3972 19.9071C40.2783 18.5511 39.3931 17.2685 38.3841 16.4025L38.251 16.291C37.4401 15.5687 36.1484 14.7675 35.0334 14.7547L34.8543 14.757C34.7558 14.7242 34.7164 14.711 34.6758 14.7042C34.6487 14.6997 34.6211 14.698 34.5751 14.6951L34.4438 14.695L34.2994 14.6947L34.149 14.6954L34.0876 14.6951C33.8723 14.6938 33.6591 14.6926 33.4453 14.7243L33.3203 14.757L33.147 14.7987C32.0122 15.1023 31.1372 15.7831 30.5263 16.7841C30.0622 17.649 29.8717 18.566 30.1336 19.5261L30.1873 19.7048C30.3565 20.2773 30.6694 20.7747 30.9959 21.2698C31.4196 21.8991 31.837 22.4722 32.6291 22.6277L32.7725 22.6461V22.8104C32.6407 22.7732 32.5139 22.7503 32.3779 22.7317C31.8375 22.6589 31.3141 22.5327 30.7893 22.3872L30.6735 22.355C30.3844 22.2764 30.0978 22.1946 29.8141 22.0982C29.0369 21.7787 28.2319 21.3255 27.8842 20.5135L27.8418 20.3999C27.7345 19.9596 27.6806 19.7382 27.6597 19.5136C27.6386 19.2863 27.6515 19.0558 27.6775 18.592C27.8233 17.472 28.6259 16.6509 29.4543 15.9606C29.5499 15.8813 29.6452 15.8018 29.7394 15.7209C30.1869 15.3328 30.6477 14.9678 31.1265 14.6191L31.2385 14.5379C31.7786 14.1445 32.3273 13.7957 32.9272 13.5002L33.0464 13.4422C34.4795 12.7409 35.9322 12.4403 37.5233 12.4326L37.6757 12.4321C38.5123 12.4262 39.3071 12.4861 40.1154 12.7183L40.2198 12.7505C40.8338 12.9369 41.3879 13.2138 41.8653 13.6506C42.3568 14.1712 42.5859 14.8222 42.5984 15.5277L42.5998 15.6931C42.6027 15.8737 42.6055 16.0543 42.6077 16.235L42.6104 16.4812V16.4814C42.6169 17.0771 42.6233 17.6731 42.6523 18.2681L42.6593 18.3989C42.6662 18.537 42.6757 18.6734 42.6886 18.8111L42.6886 18.8112C42.7227 18.9204 42.7399 18.9755 42.7479 19.0319C42.7562 19.0894 42.7549 19.1482 42.7524 19.2669V19.267V19.2671L42.7526 19.4116L42.7535 19.7161C42.7535 19.8758 42.7536 20.0354 42.7546 20.195L42.7553 20.2898C42.7581 20.6698 42.7609 21.0496 42.7223 21.428C42.5897 22.2637 42.2908 23.1714 41.6021 23.7122L41.4833 23.7966C40.8802 24.2329 40.2094 24.4936 39.5122 24.7382C38.9054 24.9508 38.3239 25.1866 37.7476 25.4722C37.6187 25.537 37.4897 25.6017 37.3601 25.6651C37.0489 25.8164 36.7385 25.9677 36.4382 26.1397C35.8482 26.4905 35.2466 26.8359 34.5864 27.0357L34.416 27.0837C33.6795 27.3056 32.9927 27.3943 32.2295 27.2313C32.1354 27.2101 32.0412 27.1893 31.9467 27.1701C31.914 27.1635 31.8813 27.157 31.8486 27.1504C31.795 27.1396 31.7413 27.1287 31.6876 27.1178L31.5535 27.0905L31.5535 27.0905C31.0336 26.9702 30.7736 26.9101 30.5153 26.8434C30.2571 26.7768 30.0006 26.7036 29.4878 26.5573L29.4868 26.5571L29.4865 26.557L29.2423 26.4879C28.7976 26.3641 28.3551 26.2389 27.9214 26.0802L27.8078 26.0378C27.4166 25.892 27.0415 25.7188 26.6829 25.5047C24.3539 24.0181 23.6336 21.2173 23.0042 18.6937L22.9659 18.5372C22.7652 17.72 22.6108 16.8622 22.8193 16.0282L22.8564 15.9075C23.2238 14.6978 24.1585 14.0102 25.1573 13.3326C26.0366 12.7365 26.9069 12.1051 27.609 11.2987C27.7087 11.1792 27.8092 11.0621 27.9141 10.9471L27.9377 10.9216L27.9377 10.9215C28.1132 10.7313 28.2881 10.5418 28.4507 10.3402C28.6923 10.0339 28.9475 9.74738 29.2217 9.47025C30.849 7.85375 32.6361 7.41742 34.8877 7.40933L35.0084 7.40897C35.1252 7.4085 35.2421 7.40816 35.3589 7.40829L35.4683 7.40854L35.5094 7.40853C35.6626 7.4084 35.8073 7.40828 35.9584 7.4426C36.0066 7.45593 36.0318 7.46292 36.0574 7.46781C36.0857 7.47319 36.1143 7.47604 36.1746 7.48203L36.2497 7.48545C36.8047 7.51099 37.3696 7.53699 37.8127 7.14189C37.8377 7.07146 37.8498 7.03724 37.8566 7.002C37.8629 6.96871 37.8645 6.93449 37.8675 6.86796C37.7846 6.66835 37.6942 6.53448 37.5488 6.37597C36.511 5.38778 35.0552 5.19124 33.686 5.22077L33.5395 5.22441L33.4043 5.22724C33.0273 5.23477 32.6474 5.24236 32.2786 5.32328C32.0965 5.36705 31.9157 5.40999 31.7316 5.44355L31.7315 5.44355L31.7315 5.44354C31.4887 5.38816 31.365 5.35992 31.2558 5.3035C31.1422 5.24482 31.0444 5.15567 30.8449 4.97381C30.1151 4.34517 29.2422 3.92005 28.3216 3.64145L28.1157 3.58086C27.6039 3.43005 27.0999 3.32025 26.5715 3.24776C26.4468 3.2312 26.3222 3.21458 26.1977 3.19692C25.2215 3.05756 24.2526 3.02506 23.2672 3.02552ZM36.0064 17.4995L35.8954 17.4413C34.9815 16.9566 33.7501 16.8164 32.8616 17.4276C32.5383 17.6964 32.3063 17.9875 32.2389 18.4095L32.2248 18.537L32.2072 18.6612C32.1521 19.3854 32.6052 20.0398 33.0307 20.584L33.1013 20.6737L33.1132 20.689L33.1132 20.689L33.1132 20.689C33.2685 20.8893 33.4234 21.0891 33.5944 21.2763C34.1959 21.7882 34.8344 22.1985 35.6478 22.1636L35.7858 22.1529L35.9016 22.1456C36.606 22.0806 37.3424 21.759 37.8128 21.2215C38.0522 20.8753 38.1613 20.5442 38.0868 20.1258C37.8094 19.1092 36.9046 18.0347 36.0064 17.4995ZM35.9335 19.0822C35.8254 18.7807 35.5682 18.5539 35.289 18.4083C34.8572 18.2635 34.4927 18.4261 34.1259 18.6508C33.7076 18.9488 33.3822 19.3453 33.2656 19.852C33.2699 20.0881 33.3206 20.2299 33.4847 20.3999C33.7291 20.5998 34.0004 20.619 34.3065 20.619C34.8909 20.5563 35.3971 20.292 35.7857 19.852C35.9376 19.6101 35.985 19.3636 35.9335 19.0822Z" fill="white"/>
</svg>
