<svg width="1440" height="530" viewBox="0 0 1440 530" fill="none" xmlns="http://www.w3.org/2000/svg">
<g clip-path="url(#clip0_4_742)">
<rect width="1440" height="530" fill="#EEEEEE"/>
<rect x="552" y="418" width="68" height="10" fill="#0045F4"/>
<path d="M607.508 121.484L603.992 131.68H598.25L601.766 121.484H607.508ZM597.43 121.484L593.914 131.68H588.172L591.688 121.484H597.43ZM615.664 155H609.289L623.516 121.484H630.195L644.727 155H638.047L634.227 145.859H623.094L625.227 140.469H631.977L626.703 127.883L615.664 155ZM665 148.578C666.547 149.422 668.211 149.844 669.992 149.844C673.695 149.844 675.547 147.242 675.547 142.039C675.547 137.617 673.5 135.406 669.406 135.406C667.641 135.406 666.172 135.516 665 135.734V148.578ZM658.789 131.398C662.055 130.727 665.508 130.391 669.148 130.391C677.508 130.391 681.688 134.289 681.688 142.086C681.688 150.695 677.797 155 670.016 155C668.359 155 666.688 154.609 665 153.828V163.906H658.789V131.398ZM686.398 155V130.391H691.203L691.977 133.531C694.133 131.438 696.414 130.391 698.82 130.391V135.406C696.508 135.406 694.438 136.367 692.609 138.289V155H686.398ZM707.375 142.602C707.375 147.742 709.367 150.312 713.352 150.312C717.336 150.312 719.328 147.742 719.328 142.602C719.328 137.586 717.336 135.078 713.352 135.078C709.367 135.078 707.375 137.586 707.375 142.602ZM701.164 142.695C701.164 134.445 705.227 130.32 713.352 130.32C721.477 130.32 725.539 134.445 725.539 142.695C725.539 150.93 721.477 155.047 713.352 155.047C705.258 155.047 701.195 150.93 701.164 142.695ZM736.438 149.305C737.859 149.758 739.508 149.984 741.383 149.984C745.133 149.984 747.008 147.336 747.008 142.039C747.008 137.711 745.391 135.547 742.156 135.547C740.062 135.547 738.156 135.969 736.438 136.812V149.305ZM730.227 121.484H736.438V132.266C738.297 131.016 740.367 130.391 742.648 130.391C749.648 130.391 753.148 134.328 753.148 142.203C753.148 150.734 749.141 155 741.125 155C737.75 155 734.117 154.664 730.227 153.992V121.484ZM764.047 121.484V155H757.836V121.484H764.047ZM780.312 130.391C787.781 130.391 791.516 134.203 791.516 141.828C791.516 142.844 791.445 143.859 791.305 144.875H774.969C774.969 148.344 777.516 150.078 782.609 150.078C785.094 150.078 787.578 149.844 790.062 149.375V154.297C787.891 154.766 785.25 155 782.141 155C773.219 155 768.758 150.805 768.758 142.414C768.758 134.398 772.609 130.391 780.312 130.391ZM774.969 140.562H785.469V140.375C785.469 136.969 783.75 135.266 780.312 135.266C777.031 135.266 775.25 137.031 774.969 140.562ZM796.18 155V130.391H800.984L801.711 133.953C803.914 131.578 806.562 130.391 809.656 130.391C812.75 130.391 814.867 131.516 816.008 133.766C818.523 131.516 821.156 130.391 823.906 130.391C829.562 130.391 832.391 133.508 832.391 139.742V155H826.18V139.508C826.18 136.773 824.945 135.406 822.477 135.406C820.633 135.406 818.859 136.234 817.156 137.891V155H810.945V139.578C810.945 136.797 809.805 135.406 807.523 135.406C805.711 135.406 804 136.234 802.391 137.891V155H796.18Z" fill="black"/>
<path d="M553.82 180.391H560.078L563.266 197.523L568.961 180.391H574.281L580.422 197.523L583.188 180.391H589.656L583.234 205H577.398L571.609 187.539L565.75 205H559.82L553.82 180.391ZM603.812 180.391C611.281 180.391 615.016 184.203 615.016 191.828C615.016 192.844 614.945 193.859 614.805 194.875H598.469C598.469 198.344 601.016 200.078 606.109 200.078C608.594 200.078 611.078 199.844 613.562 199.375V204.297C611.391 204.766 608.75 205 605.641 205C596.719 205 592.258 200.805 592.258 192.414C592.258 184.398 596.109 180.391 603.812 180.391ZM598.469 190.562H608.969V190.375C608.969 186.969 607.25 185.266 603.812 185.266C600.531 185.266 598.75 187.031 598.469 190.562ZM625.891 171.484V205H619.68V171.484H625.891ZM637.984 171.484V205H631.773V171.484H637.984ZM654.414 203.828V198.672C657.148 199.766 660.305 200.312 663.883 200.312C666.555 200.312 667.891 199.453 667.891 197.734C667.891 196.094 666.992 195.273 665.195 195.273H660.742C655.742 195.273 653.242 192.812 653.242 187.891C653.242 182.734 656.891 180.156 664.188 180.156C667.281 180.156 670.195 180.625 672.93 181.562V186.719C670.195 185.625 667.227 185.078 664.023 185.078C660.664 185.078 658.984 185.938 658.984 187.656C658.984 189.297 659.961 190.117 661.914 190.117H665.898C671.367 190.117 674.102 192.578 674.102 197.5C674.102 202.656 670.617 205.234 663.648 205.234C660.227 205.234 657.148 204.766 654.414 203.828ZM678.109 176.406H682.703L683.641 180.391H689.828V185.312H684.32V196.633C684.32 198.93 685.312 200.078 687.297 200.078H689.828V205H684.297C680.172 205 678.109 202.789 678.109 198.367V176.406ZM692.898 197.336C692.898 192.445 696.461 190 703.586 190C705.258 190 706.93 190.156 708.602 190.469V188.617C708.602 186.414 707.016 185.312 703.844 185.312C701.156 185.312 698.172 185.703 694.891 186.484V181.562C698.172 180.781 701.156 180.391 703.844 180.391C711.156 180.391 714.812 183.094 714.812 188.5V205H711.203L709 202.797C706.859 204.266 704.5 205 701.922 205C695.906 205 692.898 202.445 692.898 197.336ZM708.602 194.688C707.039 194.375 705.367 194.219 703.586 194.219C700.602 194.219 699.109 195.234 699.109 197.266C699.109 199.453 700.359 200.547 702.859 200.547C704.922 200.547 706.836 199.906 708.602 198.625V194.688ZM720.344 176.406H724.938L725.875 180.391H732.062V185.312H726.555V196.633C726.555 198.93 727.547 200.078 729.531 200.078H732.062V205H726.531C722.406 205 720.344 202.789 720.344 198.367V176.406ZM746.688 180.391C754.156 180.391 757.891 184.203 757.891 191.828C757.891 192.844 757.82 193.859 757.68 194.875H741.344C741.344 198.344 743.891 200.078 748.984 200.078C751.469 200.078 753.953 199.844 756.438 199.375V204.297C754.266 204.766 751.625 205 748.516 205C739.594 205 735.133 200.805 735.133 192.414C735.133 184.398 738.984 180.391 746.688 180.391ZM741.344 190.562H751.844V190.375C751.844 186.969 750.125 185.266 746.688 185.266C743.406 185.266 741.625 187.031 741.344 190.562ZM778.141 186.812C776.859 185.969 775.25 185.547 773.312 185.547C769.453 185.547 767.523 187.711 767.523 192.039C767.523 197.18 769.531 199.75 773.547 199.75C775.172 199.75 776.703 199.523 778.141 199.07V186.812ZM784.352 203.523C780.586 204.508 776.906 205 773.312 205C765.359 205 761.383 200.734 761.383 192.203C761.383 184.328 765.273 180.391 773.055 180.391C774.711 180.391 776.406 180.781 778.141 181.562V171.484H784.352V203.523Z" fill="black"/>
<path d="M565.141 220.484V225.406H558.93V220.484H565.141ZM565.141 229.391V254H558.93V229.391H565.141ZM571.023 252.828V247.672C573.758 248.766 576.914 249.312 580.492 249.312C583.164 249.312 584.5 248.453 584.5 246.734C584.5 245.094 583.602 244.273 581.805 244.273H577.352C572.352 244.273 569.852 241.812 569.852 236.891C569.852 231.734 573.5 229.156 580.797 229.156C583.891 229.156 586.805 229.625 589.539 230.562V235.719C586.805 234.625 583.836 234.078 580.633 234.078C577.273 234.078 575.594 234.938 575.594 236.656C575.594 238.297 576.57 239.117 578.523 239.117H582.508C587.977 239.117 590.711 241.578 590.711 246.5C590.711 251.656 587.227 254.234 580.258 254.234C576.836 254.234 573.758 253.766 571.023 252.828ZM604.445 246.336C604.445 241.445 608.008 239 615.133 239C616.805 239 618.477 239.156 620.148 239.469V237.617C620.148 235.414 618.562 234.312 615.391 234.312C612.703 234.312 609.719 234.703 606.438 235.484V230.562C609.719 229.781 612.703 229.391 615.391 229.391C622.703 229.391 626.359 232.094 626.359 237.5V254H622.75L620.547 251.797C618.406 253.266 616.047 254 613.469 254C607.453 254 604.445 251.445 604.445 246.336ZM620.148 243.688C618.586 243.375 616.914 243.219 615.133 243.219C612.148 243.219 610.656 244.234 610.656 246.266C610.656 248.453 611.906 249.547 614.406 249.547C616.469 249.547 618.383 248.906 620.148 247.625V243.688Z" fill="black"/>
<path fill-rule="evenodd" clip-rule="evenodd" d="M668.516 275.484V309H674.727V280.945H683.117C685.898 280.945 687.289 282.336 687.289 285.117C687.289 288.555 684.477 290.781 678.852 291.797L679.742 297.328C689.102 295.891 693.781 291.758 693.781 284.93C693.781 278.633 690.359 275.484 683.516 275.484H668.516ZM747.359 303.305C748.781 303.758 750.43 303.984 752.305 303.984C756.055 303.984 757.93 301.336 757.93 296.039C757.93 291.711 756.312 289.547 753.078 289.547C750.984 289.547 749.078 289.969 747.359 290.812V303.305ZM741.148 275.484H747.359V286.266C749.219 285.016 751.289 284.391 753.57 284.391C760.57 284.391 764.07 288.328 764.07 296.203C764.07 304.734 760.062 309 752.047 309C748.672 309 745.039 308.664 741.148 307.992V275.484ZM774.969 309V275.484H768.758V309H774.969ZM791.234 284.391C798.703 284.391 802.438 288.203 802.438 295.828C802.438 296.844 802.367 297.859 802.227 298.875H785.891C785.891 302.344 788.438 304.078 793.531 304.078C796.016 304.078 798.5 303.844 800.984 303.375V308.297C798.812 308.766 796.172 309 793.062 309C784.141 309 779.68 304.805 779.68 296.414C779.68 288.398 783.531 284.391 791.234 284.391ZM785.891 294.562H796.391V294.375C796.391 290.969 794.672 289.266 791.234 289.266C787.953 289.266 786.172 291.031 785.891 294.562ZM813.312 309H807.102V284.391H811.906L812.633 287.953C814.836 285.578 817.484 284.391 820.578 284.391C823.672 284.391 825.789 285.516 826.93 287.766C829.445 285.516 832.078 284.391 834.828 284.391C840.484 284.391 843.312 287.508 843.312 293.742V309H837.102V293.508C837.102 290.773 835.867 289.406 833.398 289.406C831.555 289.406 829.781 290.234 828.078 291.891V309H821.867V293.578C821.867 290.797 820.727 289.406 818.445 289.406C816.633 289.406 814.922 290.234 813.312 291.891V309ZM724.273 304.312C720.289 304.312 718.297 301.742 718.297 296.602C718.297 291.586 720.289 289.078 724.273 289.078C728.258 289.078 730.25 291.586 730.25 296.602C730.25 301.742 728.258 304.312 724.273 304.312ZM724.273 284.32C716.148 284.32 712.086 288.445 712.086 296.695C712.117 304.93 716.18 309.047 724.273 309.047C732.398 309.047 736.461 304.93 736.461 296.695C736.461 288.445 732.398 284.32 724.273 284.32ZM697.32 309V284.391H702.125L702.898 287.531C705.055 285.438 707.336 284.391 709.742 284.391V289.406C707.43 289.406 705.359 290.367 703.531 292.289V309H697.32Z" fill="#0045F4"/>
<mask id="mask0_4_742" style="mask-type:alpha" maskUnits="userSpaceOnUse" x="668" y="275" width="176" height="35">
<path fill-rule="evenodd" clip-rule="evenodd" d="M668.516 275.484V309H674.727V280.945H683.117C685.898 280.945 687.289 282.336 687.289 285.117C687.289 288.555 684.477 290.781 678.852 291.797L679.742 297.328C689.102 295.891 693.781 291.758 693.781 284.93C693.781 278.633 690.359 275.484 683.516 275.484H668.516ZM747.359 303.305C748.781 303.758 750.43 303.984 752.305 303.984C756.055 303.984 757.93 301.336 757.93 296.039C757.93 291.711 756.312 289.547 753.078 289.547C750.984 289.547 749.078 289.969 747.359 290.812V303.305ZM741.148 275.484H747.359V286.266C749.219 285.016 751.289 284.391 753.57 284.391C760.57 284.391 764.07 288.328 764.07 296.203C764.07 304.734 760.062 309 752.047 309C748.672 309 745.039 308.664 741.148 307.992V275.484ZM774.969 309V275.484H768.758V309H774.969ZM791.234 284.391C798.703 284.391 802.438 288.203 802.438 295.828C802.438 296.844 802.367 297.859 802.227 298.875H785.891C785.891 302.344 788.438 304.078 793.531 304.078C796.016 304.078 798.5 303.844 800.984 303.375V308.297C798.812 308.766 796.172 309 793.062 309C784.141 309 779.68 304.805 779.68 296.414C779.68 288.398 783.531 284.391 791.234 284.391ZM785.891 294.562H796.391V294.375C796.391 290.969 794.672 289.266 791.234 289.266C787.953 289.266 786.172 291.031 785.891 294.562ZM813.312 309H807.102V284.391H811.906L812.633 287.953C814.836 285.578 817.484 284.391 820.578 284.391C823.672 284.391 825.789 285.516 826.93 287.766C829.445 285.516 832.078 284.391 834.828 284.391C840.484 284.391 843.312 287.508 843.312 293.742V309H837.102V293.508C837.102 290.773 835.867 289.406 833.398 289.406C831.555 289.406 829.781 290.234 828.078 291.891V309H821.867V293.578C821.867 290.797 820.727 289.406 818.445 289.406C816.633 289.406 814.922 290.234 813.312 291.891V309ZM724.273 304.312C720.289 304.312 718.297 301.742 718.297 296.602C718.297 291.586 720.289 289.078 724.273 289.078C728.258 289.078 730.25 291.586 730.25 296.602C730.25 301.742 728.258 304.312 724.273 304.312ZM724.273 284.32C716.148 284.32 712.086 288.445 712.086 296.695C712.117 304.93 716.18 309.047 724.273 309.047C732.398 309.047 736.461 304.93 736.461 296.695C736.461 288.445 732.398 284.32 724.273 284.32ZM697.32 309V284.391H702.125L702.898 287.531C705.055 285.438 707.336 284.391 709.742 284.391V289.406C707.43 289.406 705.359 290.367 703.531 292.289V309H697.32Z" fill="#0045F4"/>
</mask>
<g mask="url(#mask0_4_742)">
<line x1="634.646" y1="312.646" x2="675.646" y2="271.646" stroke="#4073F5"/>
<line x1="637.646" y1="312.646" x2="678.646" y2="271.646" stroke="#4073F5"/>
<line x1="640.646" y1="312.646" x2="681.646" y2="271.646" stroke="#4073F5"/>
<line x1="643.646" y1="312.646" x2="684.646" y2="271.646" stroke="#4073F5"/>
<line x1="646.646" y1="312.646" x2="687.646" y2="271.646" stroke="#4073F5"/>
<line x1="649.646" y1="312.646" x2="690.646" y2="271.646" stroke="#4073F5"/>
<line x1="652.646" y1="312.646" x2="693.646" y2="271.646" stroke="#4073F5"/>
<line x1="655.646" y1="312.646" x2="696.646" y2="271.646" stroke="#4073F5"/>
<line x1="658.646" y1="312.646" x2="699.646" y2="271.646" stroke="#4073F5"/>
<line x1="661.646" y1="312.646" x2="702.646" y2="271.646" stroke="#4073F5"/>
<line x1="664.646" y1="312.646" x2="705.646" y2="271.646" stroke="#4073F5"/>
<line x1="667.646" y1="312.646" x2="708.646" y2="271.646" stroke="#4073F5"/>
<line x1="670.646" y1="312.646" x2="711.646" y2="271.646" stroke="#4073F5"/>
<line x1="673.646" y1="312.646" x2="714.646" y2="271.646" stroke="#4073F5"/>
<line x1="676.646" y1="312.646" x2="717.646" y2="271.646" stroke="#4073F5"/>
<line x1="679.646" y1="312.646" x2="720.646" y2="271.646" stroke="#4073F5"/>
<line x1="682.646" y1="312.646" x2="723.646" y2="271.646" stroke="#4073F5"/>
<line x1="685.646" y1="312.646" x2="726.646" y2="271.646" stroke="#4073F5"/>
<line x1="688.646" y1="312.646" x2="729.646" y2="271.646" stroke="#4073F5"/>
<line x1="691.646" y1="312.646" x2="732.646" y2="271.646" stroke="#4073F5"/>
<line x1="694.646" y1="312.646" x2="735.646" y2="271.646" stroke="#4073F5"/>
<line x1="697.646" y1="312.646" x2="738.646" y2="271.646" stroke="#4073F5"/>
<line x1="700.646" y1="312.646" x2="741.646" y2="271.646" stroke="#4073F5"/>
<line x1="703.646" y1="312.646" x2="744.646" y2="271.646" stroke="#4073F5"/>
<line x1="706.646" y1="312.646" x2="747.646" y2="271.646" stroke="#4073F5"/>
<line x1="709.646" y1="312.646" x2="750.646" y2="271.646" stroke="#4073F5"/>
<line x1="712.646" y1="312.646" x2="753.646" y2="271.646" stroke="#4073F5"/>
<line x1="715.646" y1="312.646" x2="756.646" y2="271.646" stroke="#4073F5"/>
<line x1="718.646" y1="312.646" x2="759.646" y2="271.646" stroke="#4073F5"/>
<line x1="721.646" y1="312.646" x2="762.646" y2="271.646" stroke="#4073F5"/>
<line x1="724.646" y1="312.646" x2="765.646" y2="271.646" stroke="#4073F5"/>
<line x1="727.646" y1="312.646" x2="768.646" y2="271.646" stroke="#4073F5"/>
<line x1="730.646" y1="312.646" x2="771.646" y2="271.646" stroke="#4073F5"/>
<line x1="733.646" y1="312.646" x2="774.646" y2="271.646" stroke="#4073F5"/>
<line x1="736.646" y1="312.646" x2="777.646" y2="271.646" stroke="#4073F5"/>
<line x1="739.646" y1="312.646" x2="780.646" y2="271.646" stroke="#4073F5"/>
<line x1="742.646" y1="312.646" x2="783.646" y2="271.646" stroke="#4073F5"/>
<line x1="745.646" y1="312.646" x2="786.646" y2="271.646" stroke="#4073F5"/>
<line x1="748.646" y1="312.646" x2="789.646" y2="271.646" stroke="#4073F5"/>
<line x1="751.646" y1="312.646" x2="792.646" y2="271.646" stroke="#4073F5"/>
<line x1="754.646" y1="312.646" x2="795.646" y2="271.646" stroke="#4073F5"/>
<line x1="757.646" y1="312.646" x2="798.646" y2="271.646" stroke="#4073F5"/>
<line x1="760.646" y1="312.646" x2="801.646" y2="271.646" stroke="#4073F5"/>
<line x1="763.646" y1="312.646" x2="804.646" y2="271.646" stroke="#4073F5"/>
<line x1="766.646" y1="312.646" x2="807.646" y2="271.646" stroke="#4073F5"/>
<line x1="769.646" y1="312.646" x2="810.646" y2="271.646" stroke="#4073F5"/>
<line x1="772.646" y1="312.646" x2="813.646" y2="271.646" stroke="#4073F5"/>
<line x1="775.646" y1="312.646" x2="816.646" y2="271.646" stroke="#4073F5"/>
<line x1="778.646" y1="312.646" x2="819.646" y2="271.646" stroke="#4073F5"/>
<line x1="781.646" y1="312.646" x2="822.646" y2="271.646" stroke="#4073F5"/>
<line x1="784.646" y1="312.646" x2="825.646" y2="271.646" stroke="#4073F5"/>
<line x1="787.646" y1="312.646" x2="828.646" y2="271.646" stroke="#4073F5"/>
<line x1="790.646" y1="312.646" x2="831.646" y2="271.646" stroke="#4073F5"/>
<line x1="793.646" y1="312.646" x2="834.646" y2="271.646" stroke="#4073F5"/>
<line x1="796.646" y1="312.646" x2="837.646" y2="271.646" stroke="#4073F5"/>
<line x1="799.646" y1="312.646" x2="840.646" y2="271.646" stroke="#4073F5"/>
<line x1="802.646" y1="312.646" x2="843.646" y2="271.646" stroke="#4073F5"/>
<line x1="805.646" y1="312.646" x2="846.646" y2="271.646" stroke="#4073F5"/>
<line x1="808.646" y1="312.646" x2="849.646" y2="271.646" stroke="#4073F5"/>
<line x1="811.646" y1="312.646" x2="852.646" y2="271.646" stroke="#4073F5"/>
<line x1="814.646" y1="312.646" x2="855.646" y2="271.646" stroke="#4073F5"/>
<line x1="817.646" y1="312.646" x2="858.646" y2="271.646" stroke="#4073F5"/>
<line x1="820.646" y1="312.646" x2="861.646" y2="271.646" stroke="#4073F5"/>
<line x1="823.646" y1="312.646" x2="864.646" y2="271.646" stroke="#4073F5"/>
<line x1="826.646" y1="312.646" x2="867.646" y2="271.646" stroke="#4073F5"/>
<line x1="829.646" y1="312.646" x2="870.646" y2="271.646" stroke="#4073F5"/>
<line x1="832.646" y1="312.646" x2="873.646" y2="271.646" stroke="#4073F5"/>
<line x1="835.646" y1="312.646" x2="876.646" y2="271.646" stroke="#4073F5"/>
<line x1="838.646" y1="312.646" x2="879.646" y2="271.646" stroke="#4073F5"/>
<line x1="841.646" y1="312.646" x2="882.646" y2="271.646" stroke="#4073F5"/>
</g>
<path d="M576.93 381V347.484H583.141V359.531C585.078 357.438 587.555 356.391 590.57 356.391C596.398 356.391 599.312 359.422 599.312 365.484V381H593.102V365.484C593.102 362.766 591.75 361.406 589.047 361.406C587.031 361.406 585.062 362.211 583.141 363.82V381H576.93ZM604.023 373.336C604.023 368.445 607.586 366 614.711 366C616.383 366 618.055 366.156 619.727 366.469V364.617C619.727 362.414 618.141 361.312 614.969 361.312C612.281 361.312 609.297 361.703 606.016 362.484V357.562C609.297 356.781 612.281 356.391 614.969 356.391C622.281 356.391 625.938 359.094 625.938 364.5V381H622.328L620.125 378.797C617.984 380.266 615.625 381 613.047 381C607.031 381 604.023 378.445 604.023 373.336ZM619.727 370.688C618.164 370.375 616.492 370.219 614.711 370.219C611.727 370.219 610.234 371.234 610.234 373.266C610.234 375.453 611.484 376.547 613.984 376.547C616.047 376.547 617.961 375.906 619.727 374.625V370.688ZM638.031 347.484V381H631.82V347.484H638.031ZM643.914 381V356.391C643.914 349.641 647.602 346.266 654.977 346.266C656.992 346.266 658.82 346.578 660.461 347.203V352.125C658.914 351.5 657.234 351.188 655.422 351.188C651.891 351.188 650.125 352.922 650.125 356.391H657.508V361.312H650.125V381H643.914Z" fill="black"/>
<path d="M884.508 380.484L880.992 390.68H875.25L878.766 380.484H884.508ZM874.43 380.484L870.914 390.68H865.172L868.688 380.484H874.43Z" fill="black"/>
<rect x="665" y="337" width="191" height="60" rx="30" fill="#0045F4"/>
<path d="M691.93 382.828V377.672C694.664 378.766 697.82 379.312 701.398 379.312C704.07 379.312 705.406 378.453 705.406 376.734C705.406 375.094 704.508 374.273 702.711 374.273H698.258C693.258 374.273 690.758 371.812 690.758 366.891C690.758 361.734 694.406 359.156 701.703 359.156C704.797 359.156 707.711 359.625 710.445 360.562V365.719C707.711 364.625 704.742 364.078 701.539 364.078C698.18 364.078 696.5 364.938 696.5 366.656C696.5 368.297 697.477 369.117 699.43 369.117H703.414C708.883 369.117 711.617 371.578 711.617 376.5C711.617 381.656 708.133 384.234 701.164 384.234C697.742 384.234 694.664 383.766 691.93 382.828ZM721.016 371.602C721.016 376.742 723.008 379.312 726.992 379.312C730.977 379.312 732.969 376.742 732.969 371.602C732.969 366.586 730.977 364.078 726.992 364.078C723.008 364.078 721.016 366.586 721.016 371.602ZM714.805 371.695C714.805 363.445 718.867 359.32 726.992 359.32C735.117 359.32 739.18 363.445 739.18 371.695C739.18 379.93 735.117 384.047 726.992 384.047C718.898 384.047 714.836 379.93 714.805 371.695ZM750.078 350.484V384H743.867V350.484H750.078ZM753.031 359.391H759.594L765.57 376.594L771.781 359.391H778.344L768.336 384H762.43L753.031 359.391ZM791.656 359.391C799.125 359.391 802.859 363.203 802.859 370.828C802.859 371.844 802.789 372.859 802.648 373.875H786.312C786.312 377.344 788.859 379.078 793.953 379.078C796.438 379.078 798.922 378.844 801.406 378.375V383.297C799.234 383.766 796.594 384 793.484 384C784.562 384 780.102 379.805 780.102 371.414C780.102 363.398 783.953 359.391 791.656 359.391ZM786.312 369.562H796.812V369.375C796.812 365.969 795.094 364.266 791.656 364.266C788.375 364.266 786.594 366.031 786.312 369.562ZM823.109 365.812C821.828 364.969 820.219 364.547 818.281 364.547C814.422 364.547 812.492 366.711 812.492 371.039C812.492 376.18 814.5 378.75 818.516 378.75C820.141 378.75 821.672 378.523 823.109 378.07V365.812ZM829.32 382.523C825.555 383.508 821.875 384 818.281 384C810.328 384 806.352 379.734 806.352 371.203C806.352 363.328 810.242 359.391 818.023 359.391C819.68 359.391 821.375 359.781 823.109 360.562V350.484H829.32V382.523Z" fill="white"/>
<path fill-rule="evenodd" clip-rule="evenodd" d="M575.673 152.525C575.786 152.562 575.889 152.622 575.975 152.7C576.036 152.754 576.087 152.817 576.128 152.884C576.206 153.011 576.25 153.159 576.25 153.319V163.947C576.25 164.407 575.877 164.78 575.417 164.78C574.957 164.78 574.583 164.407 574.583 163.947V155.945L565.491 168.83C565.226 169.206 564.706 169.296 564.33 169.03C563.954 168.765 563.864 168.245 564.129 167.869L573.809 154.152H567.917C567.457 154.152 567.083 153.779 567.083 153.319C567.083 152.858 567.457 152.485 567.917 152.485H575.407C575.447 152.485 575.488 152.487 575.529 152.493C575.577 152.499 575.626 152.51 575.673 152.525Z" fill="#0045F4"/>
<rect x="556" y="145" width="30" height="30" stroke="#0045F4" stroke-width="2"/>
<rect x="839" y="135" width="8" height="8" fill="black"/>
<path d="M847 139H875V193.5H796.5M796.5 193.5V186.5M796.5 193.5V200" stroke="black" stroke-width="2" stroke-dasharray="2 2"/>
<rect x="587" y="261" width="8" height="8" stroke="black" stroke-width="2"/>
<path d="M591 294H590V295H591V294ZM631.5 294L621.5 288.226V299.774L631.5 294ZM590 269.5V270.521H592V269.5H590ZM590 272.562V274.604H592V272.562H590ZM590 276.646V278.688H592V276.646H590ZM590 280.729V282.771H592V280.729H590ZM590 284.813V286.854H592V284.813H590ZM590 288.896V290.938H592V288.896H590ZM590 292.979V294H592V292.979H590ZM591 295H592.013V293H591V295ZM594.038 295H596.062V293H594.038V295ZM598.088 295H600.113V293H598.088V295ZM602.137 295H604.163V293H602.137V295ZM606.188 295H608.212V293H606.188V295ZM610.237 295H612.262V293H610.237V295ZM614.288 295H616.312V293H614.288V295ZM618.337 295H620.362V293H618.337V295ZM622.387 295H624.412V293H622.387V295ZM626.438 295H628.463V293H626.438V295Z" fill="black"/>
<mask id="mask1_4_742" style="mask-type:alpha" maskUnits="userSpaceOnUse" x="857" y="257" width="32" height="55">
<path d="M870.5 312C874.329 307.024 875 301.264 875 294.5C875.143 290.131 873.742 279.915 867 274C860.258 268.085 857.857 267.202 857.5 267.5L869.5 257.5C873.5 257.5 880.74 265.24 884 268.5C887 271.5 888.5 280 889 284.5C889 297.508 882.186 308.077 870.5 312Z" fill="#6A6969"/>
</mask>
<g mask="url(#mask1_4_742)">
<line y1="-0.5" x2="30" y2="1.5" transform="matrix(0.735871 -0.677121 0.594699 0.803948 867 283.314)" stroke="black"/>
<line y1="-0.5" x2="30" y2="1.5" transform="matrix(0.735871 -0.677121 0.594699 0.803948 867 285.835)" stroke="black"/>
<line y1="-0.5" x2="30" y2="1.5" transform="matrix(0.735871 -0.677121 0.594699 0.803948 867 288.357)" stroke="black"/>
<line y1="-0.5" x2="30" y2="1.5" transform="matrix(0.735871 -0.677121 0.594699 0.803948 867 290.878)" stroke="black"/>
<line y1="-0.5" x2="30" y2="1.5" transform="matrix(0.735871 -0.677121 0.594699 0.803948 867 293.4)" stroke="black"/>
<line y1="-0.5" x2="30" y2="1.5" transform="matrix(0.735871 -0.677121 0.594699 0.803948 867 295.921)" stroke="black"/>
<line y1="-0.5" x2="30" y2="1.5" transform="matrix(0.735871 -0.677121 0.594699 0.803948 867 298.443)" stroke="black"/>
<line y1="-0.5" x2="30" y2="1.5" transform="matrix(0.735871 -0.677121 0.594699 0.803948 867 300.964)" stroke="black"/>
<line y1="-0.5" x2="30" y2="1.5" transform="matrix(0.735871 -0.677121 0.594699 0.803948 867 303.486)" stroke="black"/>
<line y1="-0.5" x2="30" y2="1.5" transform="matrix(0.735871 -0.677121 0.594699 0.803948 867 306.007)" stroke="black"/>
<line y1="-0.5" x2="30" y2="1.5" transform="matrix(0.735871 -0.677121 0.594699 0.803948 867 308.529)" stroke="black"/>
<line y1="-0.5" x2="30" y2="1.5" transform="matrix(0.735871 -0.677121 0.594699 0.803948 867 311.051)" stroke="black"/>
<line y1="-0.5" x2="30" y2="1.5" transform="matrix(0.735871 -0.677121 0.594699 0.803948 867 313.572)" stroke="black"/>
<line y1="-0.5" x2="30" y2="1.5" transform="matrix(0.735871 -0.677121 0.594699 0.803948 867 316.094)" stroke="black"/>
</g>
<path d="M868.736 311.998L868.592 312.047L868.499 312.168C863.196 319.06 854.867 323.5 845.5 323.5H667.5C651.484 323.5 638.5 310.516 638.5 294.5C638.5 281.714 646.775 270.859 658.264 267.002L658.408 266.953L658.501 266.832C663.804 259.94 672.133 255.5 681.5 255.5H859.5C875.516 255.5 888.5 268.484 888.5 284.5C888.5 297.286 880.225 308.141 868.736 311.998Z" stroke="black"/>
<path fill-rule="evenodd" clip-rule="evenodd" d="M448.5 425C447.672 425 447 425.672 447 426.5V437C447 437.828 447.672 438.5 448.5 438.5C449.328 438.5 450 437.828 450 437V426.5C450 425.672 449.328 425 448.5 425ZM448.5 448.5C447.672 448.5 447 449.172 447 450V460.5C447 461.328 447.672 462 448.5 462C449.328 462 450 461.328 450 460.5V450C450 449.172 449.328 448.5 448.5 448.5ZM467 443.5C467 442.672 466.328 442 465.5 442H455C454.172 442 453.5 442.672 453.5 443.5C453.5 444.328 454.172 445 455 445H465.5C466.328 445 467 444.328 467 443.5ZM443.5 443.5C443.5 442.672 442.828 442 442 442H431.5C430.672 442 430 442.672 430 443.5C430 444.328 430.672 445 431.5 445H442C442.828 445 443.5 444.328 443.5 443.5Z" fill="black"/>
<path fill-rule="evenodd" clip-rule="evenodd" d="M988.244 89.0815C987.659 88.4957 986.709 88.4957 986.123 89.0815L978.698 96.5061C978.113 97.0919 978.113 98.0416 978.698 98.6274C979.284 99.2132 980.234 99.2132 980.82 98.6274L988.244 91.2028C988.83 90.617 988.83 89.6673 988.244 89.0815ZM971.627 105.698C971.042 105.113 970.092 105.113 969.506 105.698L962.081 113.123C961.496 113.709 961.496 114.659 962.081 115.244C962.667 115.83 963.617 115.83 964.203 115.244L971.627 107.82C972.213 107.234 972.213 106.284 971.627 105.698ZM988.244 115.244C988.83 114.659 988.83 113.709 988.244 113.123L980.82 105.698C980.234 105.113 979.284 105.113 978.698 105.698C978.113 106.284 978.113 107.234 978.698 107.82L986.123 115.244C986.709 115.83 987.659 115.83 988.244 115.244ZM971.627 98.6274C972.213 98.0416 972.213 97.0919 971.627 96.5061L964.203 89.0815C963.617 88.4957 962.667 88.4957 962.081 89.0815C961.496 89.6673 961.496 90.617 962.081 91.2028L969.506 98.6274C970.092 99.2132 971.042 99.2132 971.627 98.6274Z" fill="black"/>
<rect x="1125" y="192.414" width="118.915" height="118.915" rx="15" transform="rotate(45 1125 192.414)" stroke="black" stroke-width="2"/>
<rect x="1273" y="234" width="191" height="85" rx="16" fill="#0045F4"/>
<circle cx="981" cy="447" r="6" stroke="black" stroke-width="2"/>
<circle cx="449" cy="102" r="6" stroke="black" stroke-width="2"/>
<circle cx="328" cy="270" r="75" stroke="black" stroke-width="2"/>
<circle cx="966" cy="437" r="3" fill="black"/>
<rect x="113" y="233" width="80" height="80" rx="16" fill="#0045F4"/>
<path d="M563.146 421.621H564.348L566.762 425.998L569.211 421.621H570.471L567.271 427.07V430H566.188V427.07L563.146 421.621ZM571.203 428.143C571.203 426.881 572.035 426.25 573.699 426.25C574.234 426.25 574.77 426.289 575.305 426.367V425.787C575.305 425.08 574.752 424.727 573.646 424.727C573.014 424.727 572.365 424.824 571.701 425.02V424.141C572.365 423.945 573.014 423.848 573.646 423.848C575.475 423.848 576.389 424.484 576.389 425.758V430H575.779L575.404 429.391C574.791 429.797 574.123 430 573.4 430C571.936 430 571.203 429.381 571.203 428.143ZM573.699 427.129C572.758 427.129 572.287 427.461 572.287 428.125C572.287 428.789 572.658 429.121 573.4 429.121C574.15 429.121 574.785 428.922 575.305 428.523V427.246C574.77 427.168 574.234 427.129 573.699 427.129ZM578.152 430V423.848H578.885L579.078 424.633C579.707 424.109 580.398 423.848 581.152 423.848C582.688 423.848 583.455 424.611 583.455 426.139V430H582.371V426.121C582.371 425.207 581.916 424.75 581.006 424.75C580.385 424.75 579.795 425.01 579.236 425.529V430H578.152ZM588.266 430V421.621H589.643L592.719 428.611L595.736 421.621H597.055V430H596.088V423.127L593.111 430H592.256L589.232 423.127V430H588.266ZM600.131 423.848V430H599.047V423.848H600.131ZM600.131 421.621V422.646H599.047V421.621H600.131ZM602.012 430V423.848H602.744L602.938 424.633C603.566 424.109 604.258 423.848 605.012 423.848C606.547 423.848 607.314 424.611 607.314 426.139V430H606.23V426.121C606.23 425.207 605.775 424.75 604.865 424.75C604.244 424.75 603.654 425.01 603.096 425.529V430H602.012Z" fill="black"/>
<rect x="39.75" y="227.414" width="64.1145" height="64.1145" rx="15" transform="rotate(45 39.75 227.414)" stroke="#0045F4" stroke-width="2"/>
</g>
<defs>
<clipPath id="clip0_4_742">
<rect width="1440" height="530" fill="white"/>
</clipPath>
</defs>
</svg>
