<svg width="32" height="33" viewBox="0 0 32 33" fill="none" xmlns="http://www.w3.org/2000/svg">
<g clip-path="url(#clip0_243_4412)">
<path fill-rule="evenodd" clip-rule="evenodd" d="M2 15.3937C2 8.32177 7.7329 2.58887 14.8049 2.58887C21.6538 2.58887 27.2466 7.96569 27.5927 14.7288C30.2266 16.2445 32 19.0874 32 22.3444C32 23.5554 31.7543 24.7115 31.3091 25.7636L31.9852 29.8485C32.0523 30.2537 31.8874 30.6625 31.558 30.9079C31.2285 31.1533 30.7897 31.1942 30.4206 31.0138L27.8931 29.7789C26.5394 30.6315 24.9359 31.1249 23.2195 31.1249C20.5707 31.1249 18.1958 29.952 16.5859 28.0972C14.6506 28.3575 12.6384 28.1546 10.5626 27.5176L5.73347 29.5917C5.36473 29.7501 4.93895 29.6946 4.62313 29.447C4.30731 29.1994 4.1518 28.7992 4.21761 28.4033L5.00921 23.6409C3.13222 21.4136 2 18.5348 2 15.3937ZM14.8049 4.78399C20.1267 4.78399 24.5335 8.70241 25.2974 13.8113C24.6313 13.6496 23.9354 13.5639 23.2195 13.5639C18.3702 13.5639 14.439 17.4951 14.439 22.3444C14.439 23.6519 14.7248 24.8927 15.2374 26.0077C13.8599 26.0488 12.4009 25.8207 10.8524 25.3058C10.5973 25.221 10.3199 25.2327 10.0729 25.3388L6.71229 26.7823L7.25996 23.4874C7.31534 23.1542 7.21425 22.8141 6.98588 22.5653C5.25201 20.6761 4.19512 18.1596 4.19512 15.3937C4.19512 9.5341 8.94524 4.78399 14.8049 4.78399ZM16.6342 22.3444C16.6342 18.7074 19.5825 15.7591 23.2195 15.7591C26.8565 15.7591 29.8049 18.7074 29.8049 22.3444C29.8049 23.3483 29.581 24.2969 29.1815 25.1454C29.1251 25.2635 29.0895 25.3922 29.0784 25.5264C29.0714 25.6105 29.0743 25.6944 29.0864 25.7766L29.0896 25.7968L29.472 28.1073L28.3153 27.5421C27.9528 27.3504 27.497 27.3705 27.1461 27.6317C26.0498 28.4474 24.6926 28.9298 23.2195 28.9298C19.5825 28.9298 16.6342 25.9814 16.6342 22.3444ZM9.68292 14.825C10.7437 14.825 11.6037 13.9587 11.6037 12.89C11.6037 11.8214 10.7437 10.955 9.68292 10.955C8.62217 10.955 7.76219 11.8214 7.76219 12.89C7.76219 13.9587 8.62217 14.825 9.68292 14.825ZM17.3658 14.825C18.4266 14.825 19.2866 13.9587 19.2866 12.89C19.2866 11.8214 18.4266 10.955 17.3658 10.955C16.3051 10.955 15.4451 11.8214 15.4451 12.89C15.4451 13.9587 16.3051 14.825 17.3658 14.825ZM26.1097 23.3913C25.3217 23.3913 24.6829 22.7477 24.6829 21.9539C24.6829 21.16 25.3217 20.5165 26.1097 20.5165C26.8978 20.5165 27.5366 21.16 27.5366 21.9539C27.5366 22.7477 26.8978 23.3913 26.1097 23.3913ZM19.1951 21.9539C19.1951 22.7477 19.8339 23.3913 20.6219 23.3913C21.41 23.3913 22.0488 22.7477 22.0488 21.9539C22.0488 21.16 21.41 20.5165 20.6219 20.5165C19.8339 20.5165 19.1951 21.16 19.1951 21.9539Z" fill="black"/>
</g>
<defs>
<clipPath id="clip0_243_4412">
<rect width="32" height="32" fill="white" transform="translate(0 0.666016)"/>
</clipPath>
</defs>
</svg>
