<svg width="32" height="33" viewBox="0 0 32 33" fill="none" xmlns="http://www.w3.org/2000/svg">
<path d="M24.6649 15.1401C24.5623 9.33795 19.8267 4.66602 14 4.66602C8.10893 4.66602 3.33333 9.44162 3.33333 15.3327C3.33333 18.1127 4.39687 20.6444 6.13927 22.5429L5.34028 27.3498L10.0833 25.3126C12.1731 26.0075 14.1453 26.1812 16 25.8337" stroke="#606062" stroke-width="1.5" stroke-linecap="round" stroke-linejoin="round"/>
<path d="M9.08333 14.3108C9.91173 14.3108 10.5833 13.6343 10.5833 12.7997C10.5833 11.9652 9.91173 11.2886 9.08333 11.2886C8.25493 11.2886 7.58333 11.9652 7.58333 12.7997C7.58333 13.6343 8.25493 14.3108 9.08333 14.3108Z" fill="#606062"/>
<path d="M16.0833 14.3108C16.9117 14.3108 17.5833 13.6343 17.5833 12.7997C17.5833 11.9652 16.9117 11.2886 16.0833 11.2886C15.2549 11.2886 14.5833 11.9652 14.5833 12.7997C14.5833 13.6343 15.2549 14.3108 16.0833 14.3108Z" fill="#606062"/>
<path d="M25.8412 27.2855C24.6757 28.1528 23.2311 28.666 21.6667 28.666C17.8007 28.666 14.6667 25.532 14.6667 21.666C14.6667 17.8 17.8007 14.666 21.6667 14.666C25.5327 14.666 28.6667 17.8 28.6667 21.666C28.6667 22.7325 28.4282 23.7433 28.0016 24.6479" stroke="#606062" stroke-width="1.5" stroke-linecap="round" stroke-linejoin="round"/>
<path d="M28.0015 24.6479L28.6666 28.6661L25.8411 27.2856" stroke="#606062" stroke-width="1.67" stroke-linecap="round" stroke-linejoin="round"/>
<path d="M24.625 22.2667C24.0037 22.2667 23.5 21.7593 23.5 21.1333C23.5 20.5074 24.0037 20 24.625 20C25.2463 20 25.75 20.5074 25.75 21.1333C25.75 21.7593 25.2463 22.2667 24.625 22.2667Z" fill="#606062"/>
<path d="M19.125 22.2667C18.5037 22.2667 18 21.7593 18 21.1333C18 20.5074 18.5037 20 19.125 20C19.7463 20 20.25 20.5074 20.25 21.1333C20.25 21.7593 19.7463 22.2667 19.125 22.2667Z" fill="#606062"/>
</svg>
