<svg width="32" height="33" viewBox="0 0 32 33" fill="none" xmlns="http://www.w3.org/2000/svg">
<path d="M24.6649 15.1401C24.5623 9.33795 19.8267 4.66602 14 4.66602C8.10894 4.66602 3.33334 9.44162 3.33334 15.3327C3.33334 18.1127 4.39688 20.6444 6.13929 22.5429L5.3403 27.3498L10.0833 25.3126C12.1731 26.0075 14.1453 26.1812 16 25.8337" stroke="currentColor" stroke-width="2.66667" stroke-linecap="round" stroke-linejoin="round"/>
<path d="M10.0833 14.3108C10.9117 14.3108 11.5833 13.6343 11.5833 12.7997C11.5833 11.9652 10.9117 11.2886 10.0833 11.2886C9.25494 11.2886 8.58334 11.9652 8.58334 12.7997C8.58334 13.6343 9.25494 14.3108 10.0833 14.3108Z" fill="currentColor"/>
<path d="M16.0833 14.3108C16.9117 14.3108 17.5833 13.6343 17.5833 12.7997C17.5833 11.9652 16.9117 11.2886 16.0833 11.2886C15.2549 11.2886 14.5833 11.9652 14.5833 12.7997C14.5833 13.6343 15.2549 14.3108 16.0833 14.3108Z" fill="currentColor"/>
<path d="M25.8412 27.2855C24.6757 28.1528 23.2311 28.666 21.6667 28.666C17.8007 28.666 14.6667 25.532 14.6667 21.666C14.6667 17.8 17.8007 14.666 21.6667 14.666C25.5327 14.666 28.6667 17.8 28.6667 21.666C28.6667 22.7325 28.4282 23.7433 28.0016 24.6479" stroke="currentColor" stroke-width="2.66667" stroke-linecap="round" stroke-linejoin="round"/>
<path d="M28.0016 24.6479L28.6666 28.6661L25.8412 27.2856" stroke="currentColor" stroke-width="2.66667" stroke-linecap="round" stroke-linejoin="round"/>
<path d="M23.7917 21.1998C23.1703 21.1998 22.6667 20.6924 22.6667 20.0664C22.6667 19.4405 23.1703 18.9331 23.7917 18.9331C24.413 18.9331 24.9167 19.4405 24.9167 20.0664C24.9167 20.6924 24.413 21.1998 23.7917 21.1998Z" fill="currentColor"/>
<path d="M19.2917 21.1998C18.6703 21.1998 18.1667 20.6924 18.1667 20.0664C18.1667 19.4405 18.6703 18.9331 19.2917 18.9331C19.913 18.9331 20.4167 19.4405 20.4167 20.0664C20.4167 20.6924 19.913 21.1998 19.2917 21.1998Z" fill="currentColor"/>
</svg>
